%TF.GenerationSoftware,KiCad,Pcbnew,9.0.4*%
%TF.CreationDate,2026-01-16T11:12:57-07:00*%
%TF.ProjectId,SparkFun_Capacitive_Soil_Moisture_Sensor,53706172-6b46-4756-9e5f-436170616369,v10*%
%TF.SameCoordinates,Original*%
%TF.FileFunction,Copper,L2,Bot*%
%TF.FilePolarity,Positive*%
%FSLAX46Y46*%
G04 Gerber Fmt 4.6, Leading zero omitted, Abs format (unit mm)*
G04 Created by KiCad (PCBNEW 9.0.4) date 2026-01-16 11:12:57*
%MOMM*%
%LPD*%
G01*
G04 APERTURE LIST*
G04 Aperture macros list*
%AMRoundRect*
0 Rectangle with rounded corners*
0 $1 Rounding radius*
0 $2 $3 $4 $5 $6 $7 $8 $9 X,Y pos of 4 corners*
0 Add a 4 corners polygon primitive as box body*
4,1,4,$2,$3,$4,$5,$6,$7,$8,$9,$2,$3,0*
0 Add four circle primitives for the rounded corners*
1,1,$1+$1,$2,$3*
1,1,$1+$1,$4,$5*
1,1,$1+$1,$6,$7*
1,1,$1+$1,$8,$9*
0 Add four rect primitives between the rounded corners*
20,1,$1+$1,$2,$3,$4,$5,0*
20,1,$1+$1,$4,$5,$6,$7,0*
20,1,$1+$1,$6,$7,$8,$9,0*
20,1,$1+$1,$8,$9,$2,$3,0*%
G04 Aperture macros list end*
%ADD10C,0.254000*%
%TA.AperFunction,EtchedComponent*%
%ADD11C,0.000000*%
%TD*%
%TA.AperFunction,SMDPad,CuDef*%
%ADD12RoundRect,0.508000X0.000010X0.000010X-0.000010X0.000010X-0.000010X-0.000010X0.000010X-0.000010X0*%
%TD*%
%TA.AperFunction,SMDPad,CuDef*%
%ADD13C,0.500000*%
%TD*%
%TA.AperFunction,SMDPad,CuDef*%
%ADD14R,1.270000X0.660400*%
%TD*%
%TA.AperFunction,ViaPad*%
%ADD15C,0.560000*%
%TD*%
%TA.AperFunction,Conductor*%
%ADD16C,0.152400*%
%TD*%
G04 APERTURE END LIST*
D10*
G36*
X14506463Y-17576279D02*
G01*
X14572319Y-17609207D01*
X14591556Y-17628444D01*
X14617312Y-17679956D01*
X14617312Y-17716757D01*
X14591556Y-17768269D01*
X14572319Y-17787507D01*
X14506463Y-17820435D01*
X14341631Y-17861643D01*
X14130994Y-17861643D01*
X13966162Y-17820435D01*
X13900306Y-17787507D01*
X13881067Y-17768268D01*
X13855312Y-17716758D01*
X13855312Y-17679956D01*
X13881067Y-17628446D01*
X13900306Y-17609207D01*
X13966162Y-17576279D01*
X14130994Y-17535071D01*
X14341631Y-17535071D01*
X14506463Y-17576279D01*
G37*
G36*
X14998312Y-18242643D02*
G01*
X13474312Y-18242643D01*
X13474312Y-17649976D01*
X13601312Y-17649976D01*
X13601312Y-17746738D01*
X13603752Y-17771514D01*
X13605498Y-17775730D01*
X13605822Y-17780283D01*
X13614720Y-17803534D01*
X13663101Y-17900296D01*
X13669814Y-17910960D01*
X13671097Y-17914058D01*
X13673958Y-17917544D01*
X13676363Y-17921365D01*
X13678896Y-17923562D01*
X13686890Y-17933303D01*
X13735271Y-17981684D01*
X13745011Y-17989677D01*
X13747209Y-17992211D01*
X13751029Y-17994615D01*
X13754516Y-17997477D01*
X13757613Y-17998759D01*
X13768278Y-18005473D01*
X13865040Y-18053854D01*
X13866852Y-18054547D01*
X13867590Y-18055094D01*
X13877982Y-18058806D01*
X13888291Y-18062752D01*
X13889206Y-18062817D01*
X13891034Y-18063470D01*
X14084558Y-18111851D01*
X14088853Y-18112486D01*
X14090584Y-18113203D01*
X14099913Y-18114121D01*
X14109186Y-18115493D01*
X14111038Y-18115217D01*
X14115360Y-18115643D01*
X14357265Y-18115643D01*
X14361586Y-18115217D01*
X14363439Y-18115493D01*
X14372711Y-18114121D01*
X14382041Y-18113203D01*
X14383771Y-18112486D01*
X14388067Y-18111851D01*
X14581591Y-18063470D01*
X14583418Y-18062817D01*
X14584334Y-18062752D01*
X14594634Y-18058809D01*
X14605036Y-18055094D01*
X14605774Y-18054546D01*
X14607585Y-18053854D01*
X14704347Y-18005473D01*
X14715011Y-17998759D01*
X14718109Y-17997477D01*
X14721595Y-17994615D01*
X14725416Y-17992211D01*
X14727613Y-17989677D01*
X14737354Y-17981684D01*
X14785735Y-17933303D01*
X14793731Y-17923559D01*
X14796262Y-17921364D01*
X14798664Y-17917547D01*
X14801528Y-17914058D01*
X14802811Y-17910960D01*
X14809525Y-17900295D01*
X14857905Y-17803533D01*
X14866802Y-17780281D01*
X14867125Y-17775730D01*
X14868872Y-17771514D01*
X14871312Y-17746738D01*
X14871312Y-17649976D01*
X14868872Y-17625200D01*
X14867125Y-17620983D01*
X14866802Y-17616433D01*
X14857905Y-17593181D01*
X14809525Y-17496419D01*
X14802811Y-17485753D01*
X14801528Y-17482656D01*
X14798664Y-17479166D01*
X14796262Y-17475350D01*
X14793731Y-17473154D01*
X14785735Y-17463411D01*
X14737354Y-17415030D01*
X14727613Y-17407036D01*
X14725416Y-17404503D01*
X14721595Y-17402098D01*
X14718109Y-17399237D01*
X14715011Y-17397954D01*
X14704347Y-17391241D01*
X14607585Y-17342860D01*
X14605774Y-17342167D01*
X14605036Y-17341620D01*
X14594634Y-17337904D01*
X14584334Y-17333962D01*
X14583418Y-17333896D01*
X14581591Y-17333244D01*
X14388067Y-17284863D01*
X14383771Y-17284227D01*
X14382041Y-17283511D01*
X14372711Y-17282592D01*
X14363439Y-17281221D01*
X14361586Y-17281496D01*
X14357265Y-17281071D01*
X14115360Y-17281071D01*
X14111038Y-17281496D01*
X14109186Y-17281221D01*
X14099913Y-17282592D01*
X14090584Y-17283511D01*
X14088853Y-17284227D01*
X14084558Y-17284863D01*
X13891034Y-17333244D01*
X13889206Y-17333896D01*
X13888291Y-17333962D01*
X13877982Y-17337907D01*
X13867590Y-17341620D01*
X13866852Y-17342166D01*
X13865040Y-17342860D01*
X13768278Y-17391241D01*
X13757613Y-17397954D01*
X13754516Y-17399237D01*
X13751029Y-17402098D01*
X13747209Y-17404503D01*
X13745011Y-17407036D01*
X13735271Y-17415030D01*
X13686890Y-17463411D01*
X13678896Y-17473151D01*
X13676363Y-17475349D01*
X13673958Y-17479169D01*
X13671097Y-17482656D01*
X13669814Y-17485753D01*
X13663101Y-17496418D01*
X13614720Y-17593180D01*
X13605822Y-17616431D01*
X13605498Y-17620983D01*
X13603752Y-17625200D01*
X13601312Y-17649976D01*
X13474312Y-17649976D01*
X13474312Y-16730606D01*
X13601312Y-16730606D01*
X13603752Y-16742939D01*
X13603752Y-16755514D01*
X13608514Y-16767011D01*
X13610929Y-16779217D01*
X13617903Y-16789678D01*
X13622715Y-16801295D01*
X13631513Y-16810093D01*
X13638415Y-16820446D01*
X13648863Y-16827443D01*
X13657755Y-16836335D01*
X13669249Y-16841096D01*
X13679588Y-16848020D01*
X13691918Y-16850486D01*
X13703536Y-16855298D01*
X13728051Y-16857712D01*
X13728180Y-16857738D01*
X13728223Y-16857729D01*
X13728312Y-16857738D01*
X14617312Y-16857738D01*
X14617312Y-17021024D01*
X14619752Y-17045800D01*
X14638715Y-17091581D01*
X14673755Y-17126621D01*
X14719536Y-17145584D01*
X14769088Y-17145584D01*
X14814869Y-17126621D01*
X14849909Y-17091581D01*
X14868872Y-17045800D01*
X14871312Y-17021024D01*
X14871312Y-16440452D01*
X14868872Y-16415676D01*
X14849909Y-16369895D01*
X14814869Y-16334855D01*
X14769088Y-16315892D01*
X14719536Y-16315892D01*
X14673755Y-16334855D01*
X14638715Y-16369895D01*
X14619752Y-16415676D01*
X14617312Y-16440452D01*
X14617312Y-16603738D01*
X14077686Y-16603738D01*
X14083809Y-16594010D01*
X14132190Y-16497248D01*
X14141088Y-16473997D01*
X14144601Y-16424568D01*
X14128930Y-16377557D01*
X14096463Y-16340122D01*
X14052143Y-16317962D01*
X14002714Y-16314449D01*
X13955703Y-16330120D01*
X13918268Y-16362587D01*
X13905006Y-16383656D01*
X13865842Y-16461983D01*
X13792541Y-16535283D01*
X13657865Y-16625068D01*
X13657797Y-16625123D01*
X13657755Y-16625141D01*
X13657660Y-16625235D01*
X13638604Y-16640841D01*
X13631606Y-16651289D01*
X13622715Y-16660181D01*
X13617953Y-16671675D01*
X13611030Y-16682014D01*
X13608563Y-16694344D01*
X13603752Y-16705962D01*
X13603752Y-16718405D01*
X13601312Y-16730606D01*
X13474312Y-16730606D01*
X13474312Y-15599414D01*
X13941343Y-15599414D01*
X13943803Y-15648906D01*
X13965016Y-15693690D01*
X14001752Y-15726946D01*
X14024264Y-15737577D01*
X14366714Y-15859881D01*
X14024264Y-15982185D01*
X14001752Y-15992816D01*
X13965016Y-16026072D01*
X13943803Y-16070856D01*
X13941343Y-16120348D01*
X13958009Y-16167013D01*
X13991265Y-16203749D01*
X14036049Y-16224962D01*
X14085541Y-16227422D01*
X14109694Y-16221387D01*
X14787026Y-15979482D01*
X14809538Y-15968851D01*
X14814262Y-15964573D01*
X14820026Y-15961844D01*
X14832502Y-15948061D01*
X14846274Y-15935595D01*
X14849002Y-15929835D01*
X14853282Y-15925108D01*
X14859533Y-15907603D01*
X14867488Y-15890811D01*
X14867804Y-15884444D01*
X14869948Y-15878442D01*
X14869025Y-15859881D01*
X14869948Y-15841320D01*
X14867804Y-15835317D01*
X14867488Y-15828951D01*
X14859533Y-15812158D01*
X14853282Y-15794654D01*
X14849002Y-15789926D01*
X14846274Y-15784167D01*
X14832502Y-15771700D01*
X14820026Y-15757918D01*
X14814262Y-15755188D01*
X14809538Y-15750911D01*
X14787026Y-15740280D01*
X14109694Y-15498375D01*
X14085541Y-15492340D01*
X14036049Y-15494800D01*
X13991265Y-15516013D01*
X13958009Y-15552749D01*
X13941343Y-15599414D01*
X13474312Y-15599414D01*
X13474312Y-15365340D01*
X14998312Y-15365340D01*
X14998312Y-18242643D01*
G37*
D11*
%TA.AperFunction,EtchedComponent*%
%TO.C,JP2*%
G36*
X12827000Y-10287000D02*
G01*
X12527000Y-10287000D01*
X12527000Y-9787000D01*
X12827000Y-9787000D01*
X12827000Y-10287000D01*
G37*
%TD.AperFunction*%
%TA.AperFunction,EtchedComponent*%
G36*
X12850000Y-9254300D02*
G01*
X12550000Y-9254300D01*
X12550000Y-8754300D01*
X12850000Y-8754300D01*
X12850000Y-9254300D01*
G37*
%TD.AperFunction*%
%TA.AperFunction,EtchedComponent*%
%TO.C,JP1*%
G36*
X2055000Y-9457500D02*
G01*
X1755000Y-9457500D01*
X1755000Y-8957500D01*
X2055000Y-8957500D01*
X2055000Y-9457500D01*
G37*
%TD.AperFunction*%
%TD*%
D12*
%TO.P,TP5,1,1*%
%TO.N,3.3V*%
X11430000Y-5397500D03*
%TD*%
%TO.P,TP6,1,1*%
%TO.N,SDA*%
X11430000Y-2857500D03*
%TD*%
%TO.P,TP4,1,1*%
%TO.N,GND*%
X13970000Y-5397500D03*
%TD*%
D13*
%TO.P,FID2,*%
%TO.N,*%
X1270000Y-2857500D03*
%TD*%
D14*
%TO.P,JP2,1,A*%
%TO.N,Net-(JP2-A)*%
X12700000Y-8483600D03*
%TO.P,JP2,2,B*%
%TO.N,3.3V*%
X12700000Y-9525000D03*
%TO.P,JP2,3,C*%
%TO.N,Net-(JP2-C)*%
X12700000Y-10566400D03*
%TD*%
%TO.P,JP1,1,A*%
%TO.N,Net-(JP1-A)*%
X1905000Y-9728200D03*
%TO.P,JP1,2,B*%
%TO.N,3.3V*%
X1905000Y-8686800D03*
%TD*%
D12*
%TO.P,TP7,1,1*%
%TO.N,SCL*%
X13970000Y-2857500D03*
%TD*%
D13*
%TO.P,FID1,*%
%TO.N,*%
X14287500Y-19050000D03*
%TD*%
D15*
%TO.N,3.3V*%
X7620000Y-15240000D03*
X11430000Y-5397500D03*
X3492500Y-6350000D03*
%TO.N,GND*%
X9525000Y-17462500D03*
X9525000Y-19050000D03*
X635000Y-14605000D03*
X9842500Y-6096000D03*
X13970000Y-5397500D03*
X6350000Y-2222500D03*
X635000Y-16192500D03*
X10477500Y-16510000D03*
%TO.N,SCL*%
X6667500Y-5397500D03*
X13970000Y-2857500D03*
X7620000Y-2222500D03*
%TO.N,SDA*%
X11430000Y-2857500D03*
X8890000Y-3492500D03*
X8255000Y-5397500D03*
%TO.N,Net-(JP1-A)*%
X635000Y-11430000D03*
%TO.N,Net-(JP2-A)*%
X11112500Y-8255000D03*
%TO.N,Net-(JP2-C)*%
X6039900Y-8890000D03*
%TD*%
D16*
%TO.N,3.3V*%
X4241800Y-8686800D02*
X7620000Y-12065000D01*
X1905000Y-7937500D02*
X1905000Y-8686800D01*
X1905000Y-8686800D02*
X4241800Y-8686800D01*
X14287500Y-8890000D02*
X13652500Y-9525000D01*
X14287500Y-8255000D02*
X14287500Y-8890000D01*
X13652500Y-9525000D02*
X12700000Y-9525000D01*
X3492500Y-6350000D02*
X1905000Y-7937500D01*
X7620000Y-12065000D02*
X7620000Y-15240000D01*
X11430000Y-5397500D02*
X14287500Y-8255000D01*
%TO.N,SCL*%
X6667500Y-3175000D02*
X6667500Y-5397500D01*
X7620000Y-2222500D02*
X6667500Y-3175000D01*
%TO.N,SDA*%
X8255000Y-4127500D02*
X8890000Y-3492500D01*
X8255000Y-5397500D02*
X8255000Y-4127500D01*
%TO.N,Net-(JP1-A)*%
X908050Y-9728200D02*
X635000Y-10001250D01*
X635000Y-10001250D02*
X635000Y-11430000D01*
X1905000Y-9728200D02*
X908050Y-9728200D01*
%TO.N,Net-(JP2-A)*%
X11112500Y-8255000D02*
X12471400Y-8255000D01*
X11112500Y-8255000D02*
X11112500Y-8318500D01*
X12471400Y-8255000D02*
X12700000Y-8483600D01*
%TO.N,Net-(JP2-C)*%
X7716300Y-10566400D02*
X12700000Y-10566400D01*
X6039900Y-8890000D02*
X7716300Y-10566400D01*
%TD*%
%TA.AperFunction,Conductor*%
%TO.N,GND*%
G36*
X15131901Y-97265D02*
G01*
X15161965Y-149336D01*
X15163300Y-164600D01*
X15163300Y-25128800D01*
X15142735Y-25185301D01*
X15090664Y-25215365D01*
X15075400Y-25216700D01*
X164600Y-25216700D01*
X108099Y-25196135D01*
X78035Y-25144064D01*
X76700Y-25128800D01*
X76700Y-22106989D01*
X739500Y-22106989D01*
X739500Y-22343011D01*
X770307Y-22577014D01*
X831394Y-22804993D01*
X879470Y-22921059D01*
X921713Y-23023043D01*
X921714Y-23023045D01*
X1039728Y-23227452D01*
X1166918Y-23393208D01*
X1183408Y-23414699D01*
X1350301Y-23581592D01*
X1537550Y-23725273D01*
X1741951Y-23843284D01*
X1960007Y-23933606D01*
X2187986Y-23994693D01*
X2367541Y-24018331D01*
X2421987Y-24025500D01*
X2421989Y-24025500D01*
X2658013Y-24025500D01*
X2706784Y-24019078D01*
X2892014Y-23994693D01*
X3119993Y-23933606D01*
X3338049Y-23843284D01*
X3542450Y-23725273D01*
X3729699Y-23581592D01*
X3896592Y-23414699D01*
X4040273Y-23227450D01*
X4158284Y-23023049D01*
X4248606Y-22804993D01*
X4309693Y-22577014D01*
X4340500Y-22343011D01*
X4340500Y-22106989D01*
X10899500Y-22106989D01*
X10899500Y-22343011D01*
X10930307Y-22577014D01*
X10991394Y-22804993D01*
X11039470Y-22921059D01*
X11081713Y-23023043D01*
X11081714Y-23023045D01*
X11199728Y-23227452D01*
X11326918Y-23393208D01*
X11343408Y-23414699D01*
X11510301Y-23581592D01*
X11697550Y-23725273D01*
X11901951Y-23843284D01*
X12120007Y-23933606D01*
X12347986Y-23994693D01*
X12527541Y-24018331D01*
X12581987Y-24025500D01*
X12581989Y-24025500D01*
X12818013Y-24025500D01*
X12866784Y-24019078D01*
X13052014Y-23994693D01*
X13279993Y-23933606D01*
X13498049Y-23843284D01*
X13702450Y-23725273D01*
X13889699Y-23581592D01*
X14056592Y-23414699D01*
X14200273Y-23227450D01*
X14318284Y-23023049D01*
X14408606Y-22804993D01*
X14469693Y-22577014D01*
X14500500Y-22343011D01*
X14500500Y-22106989D01*
X14469693Y-21872986D01*
X14408606Y-21645007D01*
X14318284Y-21426951D01*
X14200273Y-21222550D01*
X14056592Y-21035301D01*
X13889699Y-20868408D01*
X13868208Y-20851918D01*
X13702452Y-20724728D01*
X13634316Y-20685390D01*
X13498049Y-20606716D01*
X13498047Y-20606715D01*
X13498045Y-20606714D01*
X13498043Y-20606713D01*
X13396059Y-20564470D01*
X13279993Y-20516394D01*
X13279986Y-20516392D01*
X13052026Y-20455310D01*
X13052014Y-20455307D01*
X12818013Y-20424500D01*
X12818011Y-20424500D01*
X12581989Y-20424500D01*
X12581987Y-20424500D01*
X12347985Y-20455307D01*
X12347973Y-20455310D01*
X12120013Y-20516392D01*
X12120009Y-20516393D01*
X12120007Y-20516394D01*
X12120005Y-20516395D01*
X11901956Y-20606713D01*
X11901954Y-20606714D01*
X11697547Y-20724728D01*
X11510304Y-20868405D01*
X11343405Y-21035304D01*
X11199728Y-21222547D01*
X11081714Y-21426954D01*
X11081713Y-21426956D01*
X11005475Y-21611010D01*
X10991394Y-21645007D01*
X10930307Y-21872986D01*
X10899500Y-22106989D01*
X4340500Y-22106989D01*
X4309693Y-21872986D01*
X4248606Y-21645007D01*
X4158284Y-21426951D01*
X4040273Y-21222550D01*
X3896592Y-21035301D01*
X3729699Y-20868408D01*
X3708208Y-20851918D01*
X3542452Y-20724728D01*
X3474316Y-20685390D01*
X3338049Y-20606716D01*
X3338047Y-20606715D01*
X3338045Y-20606714D01*
X3338043Y-20606713D01*
X3236059Y-20564470D01*
X3119993Y-20516394D01*
X3119986Y-20516392D01*
X2892026Y-20455310D01*
X2892014Y-20455307D01*
X2658013Y-20424500D01*
X2658011Y-20424500D01*
X2421989Y-20424500D01*
X2421987Y-20424500D01*
X2187985Y-20455307D01*
X2187973Y-20455310D01*
X1960013Y-20516392D01*
X1960009Y-20516393D01*
X1960007Y-20516394D01*
X1960005Y-20516395D01*
X1741956Y-20606713D01*
X1741954Y-20606714D01*
X1537547Y-20724728D01*
X1350304Y-20868405D01*
X1183405Y-21035304D01*
X1039728Y-21222547D01*
X921714Y-21426954D01*
X921713Y-21426956D01*
X845475Y-21611010D01*
X831394Y-21645007D01*
X770307Y-21872986D01*
X739500Y-22106989D01*
X76700Y-22106989D01*
X76700Y-18984108D01*
X13787000Y-18984108D01*
X13787000Y-19115892D01*
X13821108Y-19243186D01*
X13887000Y-19357314D01*
X13980186Y-19450500D01*
X14094314Y-19516392D01*
X14221608Y-19550500D01*
X14353391Y-19550500D01*
X14353392Y-19550500D01*
X14480686Y-19516392D01*
X14594814Y-19450500D01*
X14688000Y-19357314D01*
X14753892Y-19243186D01*
X14788000Y-19115892D01*
X14788000Y-18984108D01*
X14753892Y-18856814D01*
X14688000Y-18742686D01*
X14594814Y-18649500D01*
X14480686Y-18583608D01*
X14480685Y-18583607D01*
X14480684Y-18583607D01*
X14353392Y-18549500D01*
X14221608Y-18549500D01*
X14094315Y-18583607D01*
X13980184Y-18649501D01*
X13887001Y-18742684D01*
X13821107Y-18856815D01*
X13787000Y-18984108D01*
X76700Y-18984108D01*
X76700Y-18122924D01*
X13593919Y-18122924D01*
X13593920Y-18122924D01*
X14877769Y-18122924D01*
X14877770Y-18122924D01*
X14877770Y-15484884D01*
X13593919Y-15484884D01*
X13593919Y-18122924D01*
X76700Y-18122924D01*
X76700Y-11707643D01*
X97265Y-11651142D01*
X149336Y-11621078D01*
X208550Y-11631519D01*
X240722Y-11663692D01*
X268268Y-11711403D01*
X353597Y-11796732D01*
X458103Y-11857068D01*
X458105Y-11857068D01*
X458106Y-11857069D01*
X574664Y-11888300D01*
X695335Y-11888300D01*
X695336Y-11888300D01*
X811897Y-11857068D01*
X916403Y-11796732D01*
X1001732Y-11711403D01*
X1062068Y-11606897D01*
X1093300Y-11490336D01*
X1093300Y-11369664D01*
X1062068Y-11253103D01*
X1001732Y-11148597D01*
X916403Y-11063268D01*
X915245Y-11062110D01*
X889834Y-11007616D01*
X889500Y-10999955D01*
X889500Y-10143078D01*
X896062Y-10125047D01*
X897735Y-10105931D01*
X908743Y-10090208D01*
X910065Y-10086577D01*
X915244Y-10080924D01*
X927923Y-10068245D01*
X946964Y-10049203D01*
X1001457Y-10023793D01*
X1059535Y-10039354D01*
X1094024Y-10088606D01*
X1095330Y-10094211D01*
X1102043Y-10127966D01*
X1102044Y-10127968D01*
X1102045Y-10127969D01*
X1141453Y-10186947D01*
X1200431Y-10226355D01*
X1252439Y-10236700D01*
X2557560Y-10236699D01*
X2557563Y-10236699D01*
X2557565Y-10236698D01*
X2609565Y-10226356D01*
X2609566Y-10226356D01*
X2609566Y-10226355D01*
X2609569Y-10226355D01*
X2668547Y-10186947D01*
X2707955Y-10127969D01*
X2718300Y-10075961D01*
X2718299Y-9380440D01*
X2718299Y-9380439D01*
X2718299Y-9380436D01*
X2718298Y-9380434D01*
X2707956Y-9328434D01*
X2707956Y-9328433D01*
X2700362Y-9317068D01*
X2668547Y-9269453D01*
X2668546Y-9269452D01*
X2663737Y-9262255D01*
X2664926Y-9261460D01*
X2643337Y-9215161D01*
X2658900Y-9157083D01*
X2668421Y-9145733D01*
X2668543Y-9145549D01*
X2668547Y-9145547D01*
X2707955Y-9086569D01*
X2718300Y-9034561D01*
X2718300Y-9029200D01*
X2738865Y-8972699D01*
X2790936Y-8942635D01*
X2806200Y-8941300D01*
X4099972Y-8941300D01*
X4156473Y-8961865D01*
X4162127Y-8967045D01*
X7339755Y-12144672D01*
X7365166Y-12199166D01*
X7365500Y-12206827D01*
X7365500Y-14809955D01*
X7344935Y-14866456D01*
X7339755Y-14872110D01*
X7253269Y-14958595D01*
X7192930Y-15063106D01*
X7161700Y-15179664D01*
X7161700Y-15300335D01*
X7192930Y-15416893D01*
X7192931Y-15416896D01*
X7192932Y-15416897D01*
X7253268Y-15521403D01*
X7338597Y-15606732D01*
X7443103Y-15667068D01*
X7443105Y-15667068D01*
X7443106Y-15667069D01*
X7559664Y-15698300D01*
X7680335Y-15698300D01*
X7680336Y-15698300D01*
X7796897Y-15667068D01*
X7901403Y-15606732D01*
X7986732Y-15521403D01*
X8047068Y-15416897D01*
X8078300Y-15300336D01*
X8078300Y-15179664D01*
X8047068Y-15063103D01*
X7986732Y-14958597D01*
X7901403Y-14873268D01*
X7900245Y-14872110D01*
X7874834Y-14817616D01*
X7874500Y-14809955D01*
X7874500Y-12014378D01*
X7874499Y-12014375D01*
X7835756Y-11920839D01*
X7835755Y-11920838D01*
X7835755Y-11920837D01*
X7764163Y-11849245D01*
X7764161Y-11849244D01*
X4744582Y-8829664D01*
X5581600Y-8829664D01*
X5581600Y-8950336D01*
X5584091Y-8959633D01*
X5612830Y-9066893D01*
X5612831Y-9066896D01*
X5612832Y-9066897D01*
X5673168Y-9171403D01*
X5758497Y-9256732D01*
X5863003Y-9317068D01*
X5863005Y-9317068D01*
X5863006Y-9317069D01*
X5979564Y-9348300D01*
X6101872Y-9348300D01*
X6158373Y-9368865D01*
X6164027Y-9374045D01*
X7572137Y-10782155D01*
X7665677Y-10820901D01*
X7777154Y-10820901D01*
X7777162Y-10820900D01*
X11798801Y-10820900D01*
X11855302Y-10841465D01*
X11885366Y-10893536D01*
X11886701Y-10908800D01*
X11886701Y-10914165D01*
X11897043Y-10966165D01*
X11897043Y-10966166D01*
X11897044Y-10966168D01*
X11897045Y-10966169D01*
X11936453Y-11025147D01*
X11995431Y-11064555D01*
X12047439Y-11074900D01*
X13352560Y-11074899D01*
X13352563Y-11074899D01*
X13352565Y-11074898D01*
X13404565Y-11064556D01*
X13404566Y-11064556D01*
X13404566Y-11064555D01*
X13404569Y-11064555D01*
X13463547Y-11025147D01*
X13502955Y-10966169D01*
X13513300Y-10914161D01*
X13513299Y-10218640D01*
X13513299Y-10218639D01*
X13513299Y-10218636D01*
X13513298Y-10218634D01*
X13502956Y-10166634D01*
X13502956Y-10166633D01*
X13487217Y-10143078D01*
X13463547Y-10107653D01*
X13463546Y-10107652D01*
X13458737Y-10100455D01*
X13459926Y-10099660D01*
X13438337Y-10053361D01*
X13453900Y-9995283D01*
X13463421Y-9983933D01*
X13463543Y-9983749D01*
X13463547Y-9983747D01*
X13502955Y-9924769D01*
X13513300Y-9872761D01*
X13513300Y-9867400D01*
X13533865Y-9810899D01*
X13585936Y-9780835D01*
X13601200Y-9779500D01*
X13703122Y-9779500D01*
X13703123Y-9779500D01*
X13796663Y-9740755D01*
X14503255Y-9034163D01*
X14542001Y-8940623D01*
X14542001Y-8839377D01*
X14542001Y-8832298D01*
X14542000Y-8832284D01*
X14542000Y-8204378D01*
X14541999Y-8204375D01*
X14503256Y-8110839D01*
X14503255Y-8110838D01*
X14503255Y-8110837D01*
X14431663Y-8039245D01*
X14431661Y-8039244D01*
X12101148Y-5708730D01*
X12075737Y-5654236D01*
X12079383Y-5620424D01*
X12093727Y-5574393D01*
X12110017Y-5522118D01*
X12113263Y-5486400D01*
X13287240Y-5486400D01*
X13290478Y-5522026D01*
X13290479Y-5522028D01*
X13340026Y-5681030D01*
X13426184Y-5823550D01*
X13543949Y-5941315D01*
X13686469Y-6027473D01*
X13845472Y-6077021D01*
X13845480Y-6077022D01*
X13881099Y-6080258D01*
X13881100Y-6080258D01*
X13881100Y-5486401D01*
X14058900Y-5486401D01*
X14058900Y-6080258D01*
X14094519Y-6077022D01*
X14094527Y-6077021D01*
X14253530Y-6027473D01*
X14396050Y-5941315D01*
X14513815Y-5823550D01*
X14599973Y-5681030D01*
X14649520Y-5522028D01*
X14649521Y-5522026D01*
X14652759Y-5486400D01*
X14058901Y-5486400D01*
X14058900Y-5486401D01*
X13881100Y-5486401D01*
X13881099Y-5486400D01*
X13287240Y-5486400D01*
X12113263Y-5486400D01*
X12116300Y-5452975D01*
X12116299Y-5342026D01*
X12116264Y-5341640D01*
X12116264Y-5341631D01*
X12113263Y-5308599D01*
X13287240Y-5308599D01*
X13287241Y-5308600D01*
X13881099Y-5308600D01*
X13881100Y-5308599D01*
X14058900Y-5308599D01*
X14058901Y-5308600D01*
X14652759Y-5308600D01*
X14652759Y-5308599D01*
X14649521Y-5272973D01*
X14649520Y-5272971D01*
X14599973Y-5113969D01*
X14513815Y-4971449D01*
X14396050Y-4853684D01*
X14253530Y-4767526D01*
X14094528Y-4717979D01*
X14094526Y-4717978D01*
X14058900Y-4714740D01*
X14058900Y-5308599D01*
X13881100Y-5308599D01*
X13881100Y-4714741D01*
X13881099Y-4714740D01*
X13845473Y-4717978D01*
X13845471Y-4717979D01*
X13686469Y-4767526D01*
X13543949Y-4853684D01*
X13426184Y-4971449D01*
X13340026Y-5113969D01*
X13290479Y-5272971D01*
X13290478Y-5272973D01*
X13287240Y-5308599D01*
X12113263Y-5308599D01*
X12110018Y-5272889D01*
X12110017Y-5272881D01*
X12060433Y-5113762D01*
X11976617Y-4975116D01*
X11974212Y-4971137D01*
X11856363Y-4853288D01*
X11835336Y-4840576D01*
X11713737Y-4767066D01*
X11554619Y-4717483D01*
X11485481Y-4711200D01*
X11374518Y-4711200D01*
X11374515Y-4711201D01*
X11305389Y-4717481D01*
X11305381Y-4717482D01*
X11146262Y-4767066D01*
X11003638Y-4853287D01*
X10885787Y-4971138D01*
X10799566Y-5113762D01*
X10749983Y-5272880D01*
X10743700Y-5342018D01*
X10743700Y-5452981D01*
X10743701Y-5452984D01*
X10749981Y-5522110D01*
X10749982Y-5522118D01*
X10799566Y-5681237D01*
X10873076Y-5802836D01*
X10885788Y-5823863D01*
X11003637Y-5941712D01*
X11064437Y-5978467D01*
X11146262Y-6027933D01*
X11146264Y-6027933D01*
X11146265Y-6027934D01*
X11305382Y-6077517D01*
X11374525Y-6083800D01*
X11485474Y-6083799D01*
X11485481Y-6083799D01*
X11485483Y-6083798D01*
X11502823Y-6082222D01*
X11554610Y-6077518D01*
X11554615Y-6077517D01*
X11554618Y-6077517D01*
X11652924Y-6046883D01*
X11712985Y-6049707D01*
X11741230Y-6068648D01*
X13537342Y-7864759D01*
X14007255Y-8334672D01*
X14032666Y-8389166D01*
X14033000Y-8396827D01*
X14033000Y-8748172D01*
X14012435Y-8804673D01*
X14007255Y-8810327D01*
X13650661Y-9166920D01*
X13596167Y-9192331D01*
X13538089Y-9176768D01*
X13513904Y-9151252D01*
X13505423Y-9137642D01*
X13502955Y-9125231D01*
X13463547Y-9066253D01*
X13459077Y-9063266D01*
X13451301Y-9050787D01*
X13447043Y-9030632D01*
X13438337Y-9011961D01*
X13441000Y-9002022D01*
X13438874Y-8991958D01*
X13448568Y-8973780D01*
X13453900Y-8953883D01*
X13463421Y-8942533D01*
X13463543Y-8942349D01*
X13463547Y-8942347D01*
X13502955Y-8883369D01*
X13513300Y-8831361D01*
X13513299Y-8135840D01*
X13513299Y-8135836D01*
X13513298Y-8135834D01*
X13502956Y-8083834D01*
X13502956Y-8083833D01*
X13502955Y-8083831D01*
X13463547Y-8024853D01*
X13419152Y-7995189D01*
X13419150Y-7995187D01*
X13404570Y-7985445D01*
X13376868Y-7979935D01*
X13352561Y-7975100D01*
X13352559Y-7975100D01*
X12047436Y-7975100D01*
X12047434Y-7975101D01*
X11995434Y-7985443D01*
X11995432Y-7985444D01*
X11995072Y-7985685D01*
X11994246Y-7985935D01*
X11987435Y-7988757D01*
X11987157Y-7988086D01*
X11946236Y-8000500D01*
X11542545Y-8000500D01*
X11486044Y-7979935D01*
X11480390Y-7974755D01*
X11393904Y-7888269D01*
X11393903Y-7888268D01*
X11289397Y-7827932D01*
X11289396Y-7827931D01*
X11289393Y-7827930D01*
X11172836Y-7796700D01*
X11052164Y-7796700D01*
X10935606Y-7827930D01*
X10831095Y-7888269D01*
X10745769Y-7973595D01*
X10685430Y-8078106D01*
X10654200Y-8194664D01*
X10654200Y-8315335D01*
X10685430Y-8431893D01*
X10685431Y-8431896D01*
X10685432Y-8431897D01*
X10745768Y-8536403D01*
X10831097Y-8621732D01*
X10935603Y-8682068D01*
X10935605Y-8682068D01*
X10935606Y-8682069D01*
X11052164Y-8713300D01*
X11172835Y-8713300D01*
X11172836Y-8713300D01*
X11289397Y-8682068D01*
X11393903Y-8621732D01*
X11479232Y-8536403D01*
X11479232Y-8536402D01*
X11480390Y-8535245D01*
X11534884Y-8509834D01*
X11542545Y-8509500D01*
X11798801Y-8509500D01*
X11855302Y-8530065D01*
X11885366Y-8582136D01*
X11886701Y-8597400D01*
X11886701Y-8831365D01*
X11897043Y-8883365D01*
X11897043Y-8883366D01*
X11897044Y-8883368D01*
X11897045Y-8883369D01*
X11935753Y-8941300D01*
X11941263Y-8949545D01*
X11940073Y-8950339D01*
X11961663Y-8996639D01*
X11946100Y-9054717D01*
X11936578Y-9066066D01*
X11897045Y-9125231D01*
X11886700Y-9177240D01*
X11886700Y-9872763D01*
X11886701Y-9872765D01*
X11897043Y-9924765D01*
X11897043Y-9924766D01*
X11897044Y-9924768D01*
X11897045Y-9924769D01*
X11935753Y-9982700D01*
X11941263Y-9990945D01*
X11940073Y-9991739D01*
X11961663Y-10038039D01*
X11946100Y-10096117D01*
X11936578Y-10107466D01*
X11897045Y-10166631D01*
X11886700Y-10218640D01*
X11886700Y-10224000D01*
X11866135Y-10280501D01*
X11814064Y-10310565D01*
X11798800Y-10311900D01*
X7858128Y-10311900D01*
X7801627Y-10291335D01*
X7795973Y-10286155D01*
X6523945Y-9014127D01*
X6498534Y-8959633D01*
X6498200Y-8951972D01*
X6498200Y-8829664D01*
X6466969Y-8713106D01*
X6466968Y-8713105D01*
X6466968Y-8713103D01*
X6406632Y-8608597D01*
X6321303Y-8523268D01*
X6216797Y-8462932D01*
X6216796Y-8462931D01*
X6216793Y-8462930D01*
X6100236Y-8431700D01*
X5979564Y-8431700D01*
X5863006Y-8462930D01*
X5758495Y-8523269D01*
X5673169Y-8608595D01*
X5612830Y-8713106D01*
X5588296Y-8804673D01*
X5581600Y-8829664D01*
X4744582Y-8829664D01*
X4385963Y-8471045D01*
X4385961Y-8471044D01*
X4385960Y-8471043D01*
X4292424Y-8432300D01*
X4292423Y-8432300D01*
X2806199Y-8432300D01*
X2749698Y-8411735D01*
X2719634Y-8359664D01*
X2718299Y-8344400D01*
X2718299Y-8339036D01*
X2718298Y-8339034D01*
X2707956Y-8287034D01*
X2707956Y-8287033D01*
X2707955Y-8287031D01*
X2668547Y-8228053D01*
X2609569Y-8188645D01*
X2557561Y-8178300D01*
X2557559Y-8178300D01*
X2247400Y-8178300D01*
X2225942Y-8170490D01*
X2203450Y-8166524D01*
X2198351Y-8160447D01*
X2190899Y-8157735D01*
X2179480Y-8137958D01*
X2164801Y-8120464D01*
X2162787Y-8109046D01*
X2160835Y-8105664D01*
X2159500Y-8090400D01*
X2159500Y-8079327D01*
X2180065Y-8022826D01*
X2185234Y-8017183D01*
X3368372Y-6834044D01*
X3422866Y-6808634D01*
X3430527Y-6808300D01*
X3552835Y-6808300D01*
X3552836Y-6808300D01*
X3669397Y-6777068D01*
X3773903Y-6716732D01*
X3859232Y-6631403D01*
X3919568Y-6526897D01*
X3950800Y-6410336D01*
X3950800Y-6289664D01*
X3919568Y-6173103D01*
X3859232Y-6068597D01*
X3773903Y-5983268D01*
X3669397Y-5922932D01*
X3669396Y-5922931D01*
X3669393Y-5922930D01*
X3552836Y-5891700D01*
X3432164Y-5891700D01*
X3315606Y-5922930D01*
X3211095Y-5983269D01*
X3125769Y-6068595D01*
X3065430Y-6173106D01*
X3034200Y-6289664D01*
X3034200Y-6411971D01*
X3013635Y-6468472D01*
X3008455Y-6474126D01*
X1760837Y-7721745D01*
X1760836Y-7721744D01*
X1689246Y-7793335D01*
X1689243Y-7793339D01*
X1650500Y-7886875D01*
X1650500Y-8090400D01*
X1629935Y-8146901D01*
X1577864Y-8176965D01*
X1562600Y-8178300D01*
X1252436Y-8178300D01*
X1252434Y-8178301D01*
X1200434Y-8188643D01*
X1200433Y-8188643D01*
X1141454Y-8228052D01*
X1141452Y-8228054D01*
X1102045Y-8287031D01*
X1091700Y-8339040D01*
X1091700Y-9034563D01*
X1091701Y-9034565D01*
X1102043Y-9086565D01*
X1102043Y-9086566D01*
X1146263Y-9152745D01*
X1145073Y-9153539D01*
X1166663Y-9199839D01*
X1151100Y-9257917D01*
X1141578Y-9269266D01*
X1102045Y-9328431D01*
X1091700Y-9380440D01*
X1091700Y-9385800D01*
X1071135Y-9442301D01*
X1019064Y-9472365D01*
X1003800Y-9473700D01*
X857425Y-9473700D01*
X763889Y-9512443D01*
X490837Y-9785495D01*
X490836Y-9785494D01*
X419246Y-9857085D01*
X419243Y-9857089D01*
X380500Y-9950625D01*
X380500Y-10999955D01*
X359935Y-11056456D01*
X354755Y-11062110D01*
X268269Y-11148595D01*
X268268Y-11148597D01*
X240722Y-11196306D01*
X194664Y-11234955D01*
X134537Y-11234955D01*
X88476Y-11196306D01*
X76700Y-11152356D01*
X76700Y-5337164D01*
X6209200Y-5337164D01*
X6209200Y-5457835D01*
X6240430Y-5574393D01*
X6240431Y-5574396D01*
X6240432Y-5574397D01*
X6300768Y-5678903D01*
X6386097Y-5764232D01*
X6490603Y-5824568D01*
X6490605Y-5824568D01*
X6490606Y-5824569D01*
X6607164Y-5855800D01*
X6727835Y-5855800D01*
X6727836Y-5855800D01*
X6844397Y-5824568D01*
X6948903Y-5764232D01*
X7034232Y-5678903D01*
X7094568Y-5574397D01*
X7125800Y-5457836D01*
X7125800Y-5337164D01*
X7796700Y-5337164D01*
X7796700Y-5457835D01*
X7827930Y-5574393D01*
X7827931Y-5574396D01*
X7827932Y-5574397D01*
X7888268Y-5678903D01*
X7973597Y-5764232D01*
X8078103Y-5824568D01*
X8078105Y-5824568D01*
X8078106Y-5824569D01*
X8194664Y-5855800D01*
X8315335Y-5855800D01*
X8315336Y-5855800D01*
X8431897Y-5824568D01*
X8536403Y-5764232D01*
X8621732Y-5678903D01*
X8682068Y-5574397D01*
X8713300Y-5457836D01*
X8713300Y-5337164D01*
X8682068Y-5220603D01*
X8621732Y-5116097D01*
X8536403Y-5030768D01*
X8535245Y-5029610D01*
X8509834Y-4975116D01*
X8509500Y-4967455D01*
X8509500Y-4269327D01*
X8530065Y-4212826D01*
X8535235Y-4207182D01*
X8765872Y-3976544D01*
X8820366Y-3951134D01*
X8828027Y-3950800D01*
X8950335Y-3950800D01*
X8950336Y-3950800D01*
X9066897Y-3919568D01*
X9171403Y-3859232D01*
X9256732Y-3773903D01*
X9317068Y-3669397D01*
X9348300Y-3552836D01*
X9348300Y-3432164D01*
X9317068Y-3315603D01*
X9256732Y-3211097D01*
X9171403Y-3125768D01*
X9066897Y-3065432D01*
X9066896Y-3065431D01*
X9066893Y-3065430D01*
X8950336Y-3034200D01*
X8829664Y-3034200D01*
X8713106Y-3065430D01*
X8608595Y-3125769D01*
X8523269Y-3211095D01*
X8462930Y-3315606D01*
X8431700Y-3432164D01*
X8431700Y-3554471D01*
X8411135Y-3610972D01*
X8405955Y-3616626D01*
X8110837Y-3911745D01*
X8110836Y-3911744D01*
X8039246Y-3983335D01*
X8039243Y-3983339D01*
X8000500Y-4076875D01*
X8000500Y-4967455D01*
X7979935Y-5023956D01*
X7974755Y-5029610D01*
X7888269Y-5116095D01*
X7827930Y-5220606D01*
X7796700Y-5337164D01*
X7125800Y-5337164D01*
X7094568Y-5220603D01*
X7034232Y-5116097D01*
X6948903Y-5030768D01*
X6947745Y-5029610D01*
X6922334Y-4975116D01*
X6922000Y-4967455D01*
X6922000Y-3316826D01*
X6942565Y-3260325D01*
X6947734Y-3254682D01*
X7400397Y-2802018D01*
X10743700Y-2802018D01*
X10743700Y-2912981D01*
X10743701Y-2912984D01*
X10749981Y-2982110D01*
X10749982Y-2982118D01*
X10799566Y-3141237D01*
X10841798Y-3211095D01*
X10885788Y-3283863D01*
X11003637Y-3401712D01*
X11054011Y-3432164D01*
X11146262Y-3487933D01*
X11146264Y-3487933D01*
X11146265Y-3487934D01*
X11305382Y-3537517D01*
X11374525Y-3543800D01*
X11485474Y-3543799D01*
X11485481Y-3543799D01*
X11485483Y-3543798D01*
X11502823Y-3542222D01*
X11554610Y-3537518D01*
X11554618Y-3537517D01*
X11554621Y-3537516D01*
X11713735Y-3487934D01*
X11856363Y-3401712D01*
X11974212Y-3283863D01*
X12060434Y-3141235D01*
X12110017Y-2982118D01*
X12116300Y-2912975D01*
X12116299Y-2802026D01*
X12116299Y-2802025D01*
X12116299Y-2802018D01*
X13283700Y-2802018D01*
X13283700Y-2912981D01*
X13283701Y-2912984D01*
X13289981Y-2982110D01*
X13289982Y-2982118D01*
X13339566Y-3141237D01*
X13381798Y-3211095D01*
X13425788Y-3283863D01*
X13543637Y-3401712D01*
X13594011Y-3432164D01*
X13686262Y-3487933D01*
X13686264Y-3487933D01*
X13686265Y-3487934D01*
X13845382Y-3537517D01*
X13914525Y-3543800D01*
X14025474Y-3543799D01*
X14025481Y-3543799D01*
X14025483Y-3543798D01*
X14042823Y-3542222D01*
X14094610Y-3537518D01*
X14094618Y-3537517D01*
X14094621Y-3537516D01*
X14253735Y-3487934D01*
X14396363Y-3401712D01*
X14514212Y-3283863D01*
X14600434Y-3141235D01*
X14650017Y-2982118D01*
X14656300Y-2912975D01*
X14656299Y-2802026D01*
X14656299Y-2802025D01*
X14656299Y-2802018D01*
X14656298Y-2802015D01*
X14650018Y-2732889D01*
X14650017Y-2732881D01*
X14600433Y-2573762D01*
X14529847Y-2457001D01*
X14514212Y-2431137D01*
X14396363Y-2313288D01*
X14348696Y-2284472D01*
X14253737Y-2227066D01*
X14094619Y-2177483D01*
X14025481Y-2171200D01*
X13914518Y-2171200D01*
X13914515Y-2171201D01*
X13845389Y-2177481D01*
X13845381Y-2177482D01*
X13686262Y-2227066D01*
X13543638Y-2313287D01*
X13425787Y-2431138D01*
X13339566Y-2573762D01*
X13289983Y-2732880D01*
X13283700Y-2802018D01*
X12116299Y-2802018D01*
X12116298Y-2802015D01*
X12110018Y-2732889D01*
X12110017Y-2732881D01*
X12060433Y-2573762D01*
X11989847Y-2457001D01*
X11974212Y-2431137D01*
X11856363Y-2313288D01*
X11808696Y-2284472D01*
X11713737Y-2227066D01*
X11554619Y-2177483D01*
X11485481Y-2171200D01*
X11374518Y-2171200D01*
X11374515Y-2171201D01*
X11305389Y-2177481D01*
X11305381Y-2177482D01*
X11146262Y-2227066D01*
X11003638Y-2313287D01*
X10885787Y-2431138D01*
X10799566Y-2573762D01*
X10749983Y-2732880D01*
X10743700Y-2802018D01*
X7400397Y-2802018D01*
X7495871Y-2706544D01*
X7550365Y-2681134D01*
X7558026Y-2680800D01*
X7680335Y-2680800D01*
X7680336Y-2680800D01*
X7796897Y-2649568D01*
X7901403Y-2589232D01*
X7986732Y-2503903D01*
X8047068Y-2399397D01*
X8078300Y-2282836D01*
X8078300Y-2162164D01*
X8047068Y-2045603D01*
X7986732Y-1941097D01*
X7901403Y-1855768D01*
X7796897Y-1795432D01*
X7796896Y-1795431D01*
X7796893Y-1795430D01*
X7680336Y-1764200D01*
X7559664Y-1764200D01*
X7443106Y-1795430D01*
X7338595Y-1855769D01*
X7253269Y-1941095D01*
X7192930Y-2045606D01*
X7161700Y-2162164D01*
X7161700Y-2284472D01*
X7141135Y-2340973D01*
X7135955Y-2346626D01*
X6523337Y-2959244D01*
X6523337Y-2959245D01*
X6523336Y-2959244D01*
X6451746Y-3030835D01*
X6451743Y-3030839D01*
X6413000Y-3124375D01*
X6413000Y-4967455D01*
X6392435Y-5023956D01*
X6387255Y-5029610D01*
X6300769Y-5116095D01*
X6240430Y-5220606D01*
X6209200Y-5337164D01*
X76700Y-5337164D01*
X76700Y-2791608D01*
X769500Y-2791608D01*
X769500Y-2923391D01*
X799190Y-3034200D01*
X803608Y-3050686D01*
X869500Y-3164814D01*
X962686Y-3258000D01*
X1076814Y-3323892D01*
X1204108Y-3358000D01*
X1335891Y-3358000D01*
X1335892Y-3358000D01*
X1463186Y-3323892D01*
X1577314Y-3258000D01*
X1670500Y-3164814D01*
X1736392Y-3050686D01*
X1770500Y-2923392D01*
X1770500Y-2791608D01*
X1736392Y-2664314D01*
X1670500Y-2550186D01*
X1577314Y-2457000D01*
X1463186Y-2391108D01*
X1463185Y-2391107D01*
X1463184Y-2391107D01*
X1335892Y-2357000D01*
X1204108Y-2357000D01*
X1076815Y-2391107D01*
X962684Y-2457001D01*
X869501Y-2550184D01*
X803607Y-2664315D01*
X769500Y-2791608D01*
X76700Y-2791608D01*
X76700Y-164600D01*
X97265Y-108099D01*
X149336Y-78035D01*
X164600Y-76700D01*
X15075400Y-76700D01*
X15131901Y-97265D01*
G37*
%TD.AperFunction*%
%TD*%
M02*
