%TF.GenerationSoftware,KiCad,Pcbnew,9.0.4*%
%TF.CreationDate,2026-01-16T11:12:57-07:00*%
%TF.ProjectId,SparkFun_Capacitive_Soil_Moisture_Sensor,53706172-6b46-4756-9e5f-436170616369,v10*%
%TF.SameCoordinates,Original*%
%TF.FileFunction,Legend,Bot*%
%TF.FilePolarity,Positive*%
%FSLAX46Y46*%
G04 Gerber Fmt 4.6, Leading zero omitted, Abs format (unit mm)*
G04 Created by KiCad (PCBNEW 9.0.4) date 2026-01-16 11:12:57*
%MOMM*%
%LPD*%
G01*
G04 APERTURE LIST*
%ADD10C,0.152400*%
%ADD11C,0.300000*%
%ADD12C,0.000000*%
%ADD13C,0.018437*%
G04 APERTURE END LIST*
D10*
X14986000Y-28575000D02*
X13716000Y-28575000D01*
X14986000Y-41275000D02*
X13716000Y-41275000D01*
X14986000Y-42862500D02*
X14478000Y-42862500D01*
D11*
X14986000Y-25400000D02*
X254000Y-25400000D01*
D10*
X14986000Y-46037500D02*
X14478000Y-46037500D01*
X14986000Y-34925000D02*
X13716000Y-34925000D01*
X14986000Y-31750000D02*
X12446000Y-31750000D01*
X14986000Y-44450000D02*
X12446000Y-44450000D01*
X14986000Y-52387500D02*
X14478000Y-52387500D01*
X14986000Y-33337500D02*
X14478000Y-33337500D01*
X14986000Y-58737500D02*
X14478000Y-58737500D01*
X14986000Y-38100000D02*
X12446000Y-38100000D01*
X14986000Y-50800000D02*
X12446000Y-50800000D01*
X14986000Y-55562500D02*
X14478000Y-55562500D01*
X14986000Y-60325000D02*
X13716000Y-60325000D01*
X14986000Y-63500000D02*
X12446000Y-63500000D01*
X14986000Y-36512500D02*
X14478000Y-36512500D01*
X14986000Y-47625000D02*
X13716000Y-47625000D01*
X14986000Y-53975000D02*
X13716000Y-53975000D01*
X14986000Y-30162500D02*
X14478000Y-30162500D01*
X14986000Y-49212500D02*
X14478000Y-49212500D01*
X14986000Y-39687500D02*
X14478000Y-39687500D01*
X14986000Y-61912500D02*
X14478000Y-61912500D01*
X14986000Y-57150000D02*
X12446000Y-57150000D01*
D12*
%TO.C,kibuzzard-69334C1A*%
G36*
X3541793Y-9421234D02*
G01*
X3437501Y-9421234D01*
X3356063Y-9405622D01*
X3286857Y-9358788D01*
X3239540Y-9289742D01*
X3223767Y-9207500D01*
X3239540Y-9125097D01*
X3286857Y-9055569D01*
X3356385Y-9008251D01*
X3438789Y-8992479D01*
X3541793Y-8992479D01*
X3541793Y-9421234D01*
G37*
G36*
X5586288Y-8598857D02*
G01*
X5645657Y-8607664D01*
X5703877Y-8622247D01*
X5760387Y-8642466D01*
X5814643Y-8668128D01*
X5866122Y-8698983D01*
X5914330Y-8734736D01*
X5958800Y-8775042D01*
X5999106Y-8819513D01*
X6034859Y-8867720D01*
X6065715Y-8919199D01*
X6091376Y-8973455D01*
X6111596Y-9029965D01*
X6126179Y-9088185D01*
X6134985Y-9147554D01*
X6137930Y-9207500D01*
X6134985Y-9267446D01*
X6126179Y-9326815D01*
X6111596Y-9385035D01*
X6091376Y-9441545D01*
X6065715Y-9495801D01*
X6034859Y-9547280D01*
X5999106Y-9595487D01*
X5958800Y-9639958D01*
X5914330Y-9680264D01*
X5866122Y-9716017D01*
X5814643Y-9746872D01*
X5760387Y-9772534D01*
X5703877Y-9792753D01*
X5645657Y-9807336D01*
X5586288Y-9816143D01*
X5526342Y-9819088D01*
X5258102Y-9819088D01*
X5140935Y-9819088D01*
X4423767Y-9819088D01*
X3660248Y-9819088D01*
X2988145Y-9819088D01*
X2988038Y-9819088D01*
X2988038Y-9202350D01*
X2988145Y-9202350D01*
X2996434Y-9292921D01*
X3021299Y-9376652D01*
X3062743Y-9453543D01*
X3120763Y-9523594D01*
X3190532Y-9581896D01*
X3267222Y-9623541D01*
X3350833Y-9648527D01*
X3441364Y-9656856D01*
X3660248Y-9656856D01*
X3725269Y-9647843D01*
X3760677Y-9620161D01*
X3774196Y-9584109D01*
X3777415Y-9538401D01*
X3777415Y-8875311D01*
X3831493Y-8875311D01*
X3840505Y-8942264D01*
X3870119Y-8978315D01*
X3905527Y-8990547D01*
X3949948Y-8992479D01*
X4305312Y-8992479D01*
X4305312Y-9107071D01*
X4067115Y-9107071D01*
X4025269Y-9109002D01*
X3994368Y-9119303D01*
X3969905Y-9150204D01*
X3962823Y-9208788D01*
X3969905Y-9266084D01*
X3995012Y-9295697D01*
X4027201Y-9305998D01*
X4069690Y-9307929D01*
X4305312Y-9307929D01*
X4305312Y-9422521D01*
X3948660Y-9422521D01*
X3904239Y-9424453D01*
X3869475Y-9436685D01*
X3840505Y-9472736D01*
X3831493Y-9540976D01*
X3840505Y-9607929D01*
X3870119Y-9643981D01*
X3905527Y-9656212D01*
X3949948Y-9658144D01*
X4423767Y-9658144D01*
X4490720Y-9649131D01*
X4526772Y-9619517D01*
X4539003Y-9584109D01*
X4540151Y-9557715D01*
X4609175Y-9557715D01*
X4616900Y-9614367D01*
X4642008Y-9645268D01*
X4672909Y-9656212D01*
X4709604Y-9658144D01*
X5140935Y-9658144D01*
X5207887Y-9649131D01*
X5243939Y-9619517D01*
X5256171Y-9584109D01*
X5258102Y-9539689D01*
X5258102Y-8874024D01*
X5256171Y-8830891D01*
X5243939Y-8795483D01*
X5207887Y-8765869D01*
X5139647Y-8756856D01*
X5072694Y-8765869D01*
X5036643Y-8795483D01*
X5024411Y-8830891D01*
X5022480Y-8875311D01*
X5022480Y-9457285D01*
X4708317Y-9457285D01*
X4671621Y-9459217D01*
X4642008Y-9469517D01*
X4616900Y-9499775D01*
X4609175Y-9557715D01*
X4540151Y-9557715D01*
X4540935Y-9539689D01*
X4540935Y-8874024D01*
X4514540Y-8781964D01*
X4419905Y-8756856D01*
X3948660Y-8756856D01*
X3904239Y-8758788D01*
X3869475Y-8771019D01*
X3840505Y-8807071D01*
X3831493Y-8875311D01*
X3777415Y-8875311D01*
X3777415Y-8872736D01*
X3775484Y-8829603D01*
X3763252Y-8794195D01*
X3727201Y-8765225D01*
X3658960Y-8756856D01*
X3437501Y-8756856D01*
X3348660Y-8765064D01*
X3266257Y-8789689D01*
X3190291Y-8830730D01*
X3120763Y-8888187D01*
X3062743Y-8957071D01*
X3021299Y-9032393D01*
X2996434Y-9114152D01*
X2988145Y-9202350D01*
X2988038Y-9202350D01*
X2988038Y-8595912D01*
X2988145Y-8595912D01*
X5258102Y-8595912D01*
X5526342Y-8595912D01*
X5586288Y-8598857D01*
G37*
%TO.C,kibuzzard-696937C9*%
G36*
X10825655Y-63826216D02*
G01*
X10884989Y-63858512D01*
X10917285Y-63918348D01*
X10928051Y-64011731D01*
X10884989Y-64157940D01*
X10735776Y-64200000D01*
X10586563Y-64157940D01*
X10543501Y-64009728D01*
X10554016Y-63917847D01*
X10585562Y-63858512D01*
X10733773Y-63815451D01*
X10825655Y-63826216D01*
G37*
G36*
X7886706Y-62812017D02*
G01*
X7937779Y-62863090D01*
X7954803Y-62923176D01*
X7957808Y-62996280D01*
X7946541Y-63145494D01*
X7912743Y-63312732D01*
X7860418Y-63444921D01*
X7793573Y-63488984D01*
X7723723Y-63445172D01*
X7670397Y-63313734D01*
X7636599Y-63146745D01*
X7625333Y-62996280D01*
X7628337Y-62924177D01*
X7645361Y-62863090D01*
X7695433Y-62812017D01*
X7789567Y-62795994D01*
X7886706Y-62812017D01*
G37*
G36*
X8298294Y-62812017D02*
G01*
X8348366Y-62863090D01*
X8365390Y-62923176D01*
X8368394Y-62996280D01*
X8364388Y-63083405D01*
X8352371Y-63184549D01*
X8330340Y-63290200D01*
X8296291Y-63390844D01*
X8204160Y-63488984D01*
X8135812Y-63445172D01*
X8082986Y-63313734D01*
X8049188Y-63146745D01*
X8037922Y-62996280D01*
X8040926Y-62924177D01*
X8057951Y-62863090D01*
X8108022Y-62812017D01*
X8202157Y-62795994D01*
X8298294Y-62812017D01*
G37*
G36*
X10320182Y-62810014D02*
G01*
X10376263Y-62863090D01*
X10399295Y-62918169D01*
X10409310Y-62974249D01*
X10483416Y-63543062D01*
X10458380Y-63601144D01*
X10369253Y-63661230D01*
X10239067Y-63701288D01*
X10126906Y-63653219D01*
X10048795Y-63625179D01*
X9960669Y-63658226D01*
X9924617Y-63741345D01*
X9958666Y-63825465D01*
X10054803Y-63855508D01*
X10170969Y-63823462D01*
X10307164Y-63757368D01*
X10431341Y-63825465D01*
X10505447Y-63961660D01*
X10429338Y-64083834D01*
X10387278Y-64119886D01*
X10251084Y-64188984D01*
X10150941Y-64215272D01*
X10042786Y-64224034D01*
X9912600Y-64208123D01*
X9797102Y-64160388D01*
X9696291Y-64080830D01*
X9618402Y-63977905D01*
X9571669Y-63860070D01*
X9556091Y-63727325D01*
X9572114Y-63608155D01*
X9620182Y-63498999D01*
X9700297Y-63399857D01*
X9801553Y-63321412D01*
X9913045Y-63274344D01*
X10034775Y-63258655D01*
X10044789Y-63258655D01*
X10078838Y-63262661D01*
X10064818Y-63156509D01*
X9756377Y-63156509D01*
X9692285Y-63153505D01*
X9640211Y-63135479D01*
X9597149Y-63082403D01*
X9584131Y-62982260D01*
X9598151Y-62873104D01*
X9643215Y-62817024D01*
X9697293Y-62797997D01*
X9766391Y-62793991D01*
X10225046Y-62791989D01*
X10320182Y-62810014D01*
G37*
G36*
X9085418Y-62789235D02*
G01*
X9195576Y-62829041D01*
X9286205Y-62888376D01*
X9353802Y-62960229D01*
X9404624Y-63044850D01*
X9444932Y-63142489D01*
X9473723Y-63241631D01*
X9489996Y-63330758D01*
X9497507Y-63414878D01*
X9500011Y-63498999D01*
X9491999Y-63645207D01*
X9463959Y-63804435D01*
X9438673Y-63887554D01*
X9402872Y-63962661D01*
X9304732Y-64094850D01*
X9239388Y-64149177D01*
X9157521Y-64189986D01*
X9061885Y-64215522D01*
X8963244Y-64223395D01*
X8955232Y-64224034D01*
X8834560Y-64211516D01*
X8728909Y-64173963D01*
X8641284Y-64117382D01*
X8574689Y-64047783D01*
X8523866Y-63965415D01*
X8483559Y-63870529D01*
X8454267Y-63772389D01*
X8436491Y-63680258D01*
X8427479Y-63590880D01*
X8424474Y-63501001D01*
X8424537Y-63498999D01*
X8790998Y-63498999D01*
X8790998Y-63509013D01*
X8791999Y-63589127D01*
X8803015Y-63677253D01*
X8829052Y-63767382D01*
X8880125Y-63828469D01*
X8963244Y-63855508D01*
X9037725Y-63833351D01*
X9090926Y-63766881D01*
X9122847Y-63656098D01*
X9133487Y-63501001D01*
X9122722Y-63344152D01*
X9090426Y-63232117D01*
X9036599Y-63164896D01*
X8961241Y-63142489D01*
X8886760Y-63164771D01*
X8833559Y-63231617D01*
X8801638Y-63343026D01*
X8790998Y-63498999D01*
X8424537Y-63498999D01*
X8427228Y-63413376D01*
X8435490Y-63326753D01*
X8452514Y-63236373D01*
X8481556Y-63137482D01*
X8521863Y-63040844D01*
X8572686Y-62957225D01*
X8639782Y-62886373D01*
X8728909Y-62828040D01*
X8836563Y-62788984D01*
X8959238Y-62775966D01*
X9085418Y-62789235D01*
G37*
G36*
X11645075Y-62789235D02*
G01*
X11755232Y-62829041D01*
X11845862Y-62888376D01*
X11913459Y-62960229D01*
X11964281Y-63044850D01*
X12004589Y-63142489D01*
X12033380Y-63241631D01*
X12049653Y-63330758D01*
X12057164Y-63414878D01*
X12059667Y-63498999D01*
X12051656Y-63645207D01*
X12023616Y-63804435D01*
X11998330Y-63887554D01*
X11962529Y-63962661D01*
X11864388Y-64094850D01*
X11799045Y-64149177D01*
X11717178Y-64189986D01*
X11621541Y-64215522D01*
X11522901Y-64223395D01*
X11514889Y-64224034D01*
X11394217Y-64211516D01*
X11288566Y-64173963D01*
X11200941Y-64117382D01*
X11134345Y-64047783D01*
X11083523Y-63965415D01*
X11043215Y-63870529D01*
X11013923Y-63772389D01*
X10996148Y-63680258D01*
X10987135Y-63590880D01*
X10984131Y-63501001D01*
X10984194Y-63498999D01*
X11350655Y-63498999D01*
X11350655Y-63509013D01*
X11351656Y-63589127D01*
X11362672Y-63677253D01*
X11388709Y-63767382D01*
X11439782Y-63828469D01*
X11522901Y-63855508D01*
X11597382Y-63833351D01*
X11650583Y-63766881D01*
X11682504Y-63656098D01*
X11693144Y-63501001D01*
X11682378Y-63344152D01*
X11650082Y-63232117D01*
X11596255Y-63164896D01*
X11520898Y-63142489D01*
X11446416Y-63164771D01*
X11393215Y-63231617D01*
X11361295Y-63343026D01*
X11350655Y-63498999D01*
X10984194Y-63498999D01*
X10986885Y-63413376D01*
X10995147Y-63326753D01*
X11012171Y-63236373D01*
X11041212Y-63137482D01*
X11081520Y-63040844D01*
X11132343Y-62957225D01*
X11199438Y-62886373D01*
X11288566Y-62828040D01*
X11396220Y-62788984D01*
X11518895Y-62775966D01*
X11645075Y-62789235D01*
G37*
%TO.C,kibuzzard-6937166E*%
G36*
X13688884Y-1660007D02*
G01*
X13708913Y-1676459D01*
X13715708Y-1696130D01*
X13716781Y-1720093D01*
X13716781Y-2089907D01*
X13715708Y-2114585D01*
X13708913Y-2134256D01*
X13688884Y-2150708D01*
X13651688Y-2155715D01*
X13412060Y-2155715D01*
X13391674Y-2154642D01*
X13374506Y-2148562D01*
X13360558Y-2131395D01*
X13356266Y-2099921D01*
X13360558Y-2067732D01*
X13374506Y-2050923D01*
X13390959Y-2045200D01*
X13411345Y-2044127D01*
X13585880Y-2044127D01*
X13585880Y-1720808D01*
X13586953Y-1696130D01*
X13593748Y-1676459D01*
X13613777Y-1660007D01*
X13650973Y-1655000D01*
X13688884Y-1660007D01*
G37*
G36*
X13964367Y-1652139D02*
G01*
X13997539Y-1658577D01*
X14031874Y-1669932D01*
X14066924Y-1686831D01*
X14100454Y-1708648D01*
X14130229Y-1734757D01*
X14155622Y-1766856D01*
X14176009Y-1806645D01*
X14189421Y-1852425D01*
X14193891Y-1902496D01*
X14189331Y-1954535D01*
X14175651Y-2001924D01*
X14154996Y-2042965D01*
X14129514Y-2075959D01*
X14099739Y-2102783D01*
X14066209Y-2125315D01*
X14031338Y-2142750D01*
X13997539Y-2154285D01*
X13965261Y-2160722D01*
X13934950Y-2162868D01*
X13888693Y-2158418D01*
X13844344Y-2145065D01*
X13801903Y-2122811D01*
X13772575Y-2100994D01*
X13762561Y-2074886D01*
X13778298Y-2033398D01*
X13804049Y-2002818D01*
X13828369Y-1992625D01*
X13864134Y-2006931D01*
X13900079Y-2024635D01*
X13937811Y-2030536D01*
X13992175Y-2019092D01*
X14018015Y-2003087D01*
X14041173Y-1977961D01*
X14057536Y-1945147D01*
X14062990Y-1906073D01*
X14059950Y-1875672D01*
X14050830Y-1848848D01*
X14018999Y-1809864D01*
X13978584Y-1788763D01*
X13937811Y-1781609D01*
X13920644Y-1782325D01*
X13906338Y-1784828D01*
X13894893Y-1787690D01*
X13885236Y-1791266D01*
X13878441Y-1795200D01*
X13872361Y-1799134D01*
X13867711Y-1802353D01*
X13829084Y-1818805D01*
X13804406Y-1809149D01*
X13777582Y-1780179D01*
X13761845Y-1740122D01*
X13768641Y-1718662D01*
X13781874Y-1703641D01*
X13801187Y-1690050D01*
X13846331Y-1667796D01*
X13890203Y-1654444D01*
X13932804Y-1649993D01*
X13964367Y-1652139D01*
G37*
G36*
X14450051Y-1651940D02*
G01*
X14490347Y-1666365D01*
X14525079Y-1690408D01*
X14551704Y-1721762D01*
X14567679Y-1758124D01*
X14573004Y-1799492D01*
X14567282Y-1845987D01*
X14550114Y-1884614D01*
X14521502Y-1915372D01*
X14481445Y-1938262D01*
X14454353Y-1948008D01*
X14420286Y-1957217D01*
X14364134Y-1974027D01*
X14345536Y-1996202D01*
X14358412Y-2029464D01*
X14400615Y-2039835D01*
X14428870Y-2033040D01*
X14457840Y-2006931D01*
X14490108Y-1980862D01*
X14521105Y-1976094D01*
X14550830Y-1992625D01*
X14580873Y-2038405D01*
X14562990Y-2084900D01*
X14558698Y-2089907D01*
X14550830Y-2099921D01*
X14538312Y-2112439D01*
X14521144Y-2126388D01*
X14498970Y-2139979D01*
X14471431Y-2151781D01*
X14437811Y-2159649D01*
X14397754Y-2162868D01*
X14350186Y-2157504D01*
X14301187Y-2139263D01*
X14257196Y-2107432D01*
X14226080Y-2059149D01*
X14216960Y-2028212D01*
X14213920Y-1994056D01*
X14220626Y-1940587D01*
X14240744Y-1901781D01*
X14272128Y-1874599D01*
X14312632Y-1856001D01*
X14358412Y-1844914D01*
X14402046Y-1835973D01*
X14430300Y-1823455D01*
X14442818Y-1800207D01*
X14431373Y-1778391D01*
X14404907Y-1769449D01*
X14381302Y-1771953D01*
X14367353Y-1777318D01*
X14357339Y-1785544D01*
X14349113Y-1792339D01*
X14301187Y-1805572D01*
X14258984Y-1770880D01*
X14241817Y-1726888D01*
X14267568Y-1690050D01*
X14304684Y-1666206D01*
X14350226Y-1651900D01*
X14404192Y-1647132D01*
X14450051Y-1651940D01*
G37*
%TO.C,kibuzzard-6937167A*%
G36*
X14145966Y-4200722D02*
G01*
X14165637Y-4216102D01*
X14172790Y-4235057D01*
X14174220Y-4259020D01*
X14174220Y-4630265D01*
X14172790Y-4655300D01*
X14165994Y-4674971D01*
X14146681Y-4691066D01*
X14109843Y-4696073D01*
X14071931Y-4691066D01*
X14051903Y-4674971D01*
X14045107Y-4655658D01*
X14044034Y-4630980D01*
X14044034Y-4432124D01*
X13858770Y-4676760D01*
X13837668Y-4692139D01*
X13800830Y-4696073D01*
X13762918Y-4691066D01*
X13742890Y-4674971D01*
X13736094Y-4655658D01*
X13735021Y-4630980D01*
X13735021Y-4261881D01*
X13736094Y-4237203D01*
X13742890Y-4217532D01*
X13762918Y-4201080D01*
X13800114Y-4196073D01*
X13837310Y-4201080D01*
X13857339Y-4216459D01*
X13864492Y-4235415D01*
X13865923Y-4259020D01*
X13865923Y-4464313D01*
X14044750Y-4223970D01*
X14057625Y-4209306D01*
X14075866Y-4200365D01*
X14108412Y-4196073D01*
X14145966Y-4200722D01*
G37*
G36*
X13667067Y-4200007D02*
G01*
X13687096Y-4216102D01*
X13693891Y-4235773D01*
X13694964Y-4259735D01*
X13694964Y-4629549D01*
X13693176Y-4654943D01*
X13685665Y-4674971D01*
X13665994Y-4690351D01*
X13629871Y-4695358D01*
X13564063Y-4695358D01*
X13508269Y-4695358D01*
X13457974Y-4690731D01*
X13411524Y-4676849D01*
X13368918Y-4653713D01*
X13330157Y-4621323D01*
X13297924Y-4582406D01*
X13274900Y-4539689D01*
X13261085Y-4493171D01*
X13256743Y-4445715D01*
X13387382Y-4445715D01*
X13396144Y-4491406D01*
X13422432Y-4529764D01*
X13460880Y-4555783D01*
X13506123Y-4564456D01*
X13564063Y-4564456D01*
X13564063Y-4326259D01*
X13506838Y-4326259D01*
X13461059Y-4335021D01*
X13422432Y-4361309D01*
X13396144Y-4399936D01*
X13387382Y-4445715D01*
X13256743Y-4445715D01*
X13256481Y-4442854D01*
X13261085Y-4393856D01*
X13274900Y-4348433D01*
X13297924Y-4306588D01*
X13330157Y-4268319D01*
X13368784Y-4236398D01*
X13410987Y-4213598D01*
X13456767Y-4199918D01*
X13506123Y-4195358D01*
X13629156Y-4195358D01*
X13667067Y-4200007D01*
G37*
G36*
X14477757Y-4191401D02*
G01*
X14524989Y-4205283D01*
X14568422Y-4228418D01*
X14608054Y-4260808D01*
X14641070Y-4299681D01*
X14664653Y-4342264D01*
X14678803Y-4388558D01*
X14683519Y-4438562D01*
X14678870Y-4491003D01*
X14664921Y-4539599D01*
X14641674Y-4584351D01*
X14609127Y-4625258D01*
X14570143Y-4659369D01*
X14527582Y-4683734D01*
X14481445Y-4698353D01*
X14431731Y-4703226D01*
X14376891Y-4700126D01*
X14329680Y-4690827D01*
X14290100Y-4675329D01*
X14263813Y-4658788D01*
X14243605Y-4639206D01*
X14226438Y-4598076D01*
X14226438Y-4451438D01*
X14226795Y-4433555D01*
X14230014Y-4417818D01*
X14238598Y-4403512D01*
X14255408Y-4394213D01*
X14282947Y-4389206D01*
X14408126Y-4389206D01*
X14427439Y-4390279D01*
X14443176Y-4396001D01*
X14456409Y-4412811D01*
X14460343Y-4444285D01*
X14456767Y-4476474D01*
X14444607Y-4493283D01*
X14429585Y-4499006D01*
X14410272Y-4500079D01*
X14357339Y-4500079D01*
X14357339Y-4561595D01*
X14387740Y-4568569D01*
X14428870Y-4570894D01*
X14475186Y-4561059D01*
X14515422Y-4531552D01*
X14543319Y-4488991D01*
X14552618Y-4439993D01*
X14543677Y-4392514D01*
X14516853Y-4353083D01*
X14477332Y-4326527D01*
X14430300Y-4317675D01*
X14386130Y-4322682D01*
X14349471Y-4337704D01*
X14310844Y-4354156D01*
X14284378Y-4344678D01*
X14257911Y-4316245D01*
X14241459Y-4276187D01*
X14248255Y-4255443D01*
X14261488Y-4240422D01*
X14281516Y-4226116D01*
X14312185Y-4209574D01*
X14349828Y-4197146D01*
X14389617Y-4189367D01*
X14426724Y-4186774D01*
X14477757Y-4191401D01*
G37*
D13*
%TO.C,Ref\u002A\u002A*%
X3657682Y-2246839D02*
X3658382Y-2246891D01*
X3659079Y-2246977D01*
X3659771Y-2247096D01*
X3660458Y-2247247D01*
X3661139Y-2247428D01*
X3661812Y-2247641D01*
X3662476Y-2247882D01*
X3663131Y-2248152D01*
X3663775Y-2248450D01*
X3665027Y-2249125D01*
X3666224Y-2249900D01*
X3667357Y-2250769D01*
X3668418Y-2251725D01*
X3669399Y-2252761D01*
X3670291Y-2253869D01*
X3670701Y-2254448D01*
X3671086Y-2255043D01*
X3671445Y-2255653D01*
X3671776Y-2256277D01*
X3672079Y-2256913D01*
X3672352Y-2257562D01*
X3672595Y-2258223D01*
X3672806Y-2258893D01*
X3672985Y-2259574D01*
X3673130Y-2260263D01*
X3731466Y-2573756D01*
X3731793Y-2575147D01*
X3732241Y-2576544D01*
X3732803Y-2577936D01*
X3733472Y-2579314D01*
X3734239Y-2580670D01*
X3735096Y-2581994D01*
X3736037Y-2583278D01*
X3737053Y-2584512D01*
X3738137Y-2585686D01*
X3739280Y-2586793D01*
X3740474Y-2587822D01*
X3741713Y-2588765D01*
X3742989Y-2589613D01*
X3744292Y-2590356D01*
X3745617Y-2590986D01*
X3746954Y-2591492D01*
X3957087Y-2677503D01*
X3958395Y-2678078D01*
X3959783Y-2678558D01*
X3961236Y-2678944D01*
X3962744Y-2679237D01*
X3964294Y-2679438D01*
X3965873Y-2679548D01*
X3967471Y-2679567D01*
X3969073Y-2679497D01*
X3970669Y-2679338D01*
X3972247Y-2679091D01*
X3973793Y-2678756D01*
X3975296Y-2678336D01*
X3976743Y-2677829D01*
X3978123Y-2677239D01*
X3979423Y-2676564D01*
X3980631Y-2675807D01*
X4242518Y-2496078D01*
X4243110Y-2495693D01*
X4243719Y-2495339D01*
X4244344Y-2495014D01*
X4244984Y-2494719D01*
X4245638Y-2494454D01*
X4246303Y-2494218D01*
X4247665Y-2493834D01*
X4249060Y-2493566D01*
X4250476Y-2493414D01*
X4251902Y-2493375D01*
X4253329Y-2493450D01*
X4254746Y-2493638D01*
X4256141Y-2493937D01*
X4257504Y-2494346D01*
X4258824Y-2494864D01*
X4260091Y-2495491D01*
X4260701Y-2495845D01*
X4261293Y-2496226D01*
X4261867Y-2496633D01*
X4262421Y-2497067D01*
X4262953Y-2497527D01*
X4263463Y-2498014D01*
X4484049Y-2718582D01*
X4484534Y-2719093D01*
X4484993Y-2719627D01*
X4485426Y-2720182D01*
X4485832Y-2720757D01*
X4486212Y-2721351D01*
X4486565Y-2721962D01*
X4486891Y-2722589D01*
X4487191Y-2723231D01*
X4487464Y-2723886D01*
X4487709Y-2724553D01*
X4488118Y-2725917D01*
X4488418Y-2727313D01*
X4488606Y-2728729D01*
X4488682Y-2730156D01*
X4488644Y-2731582D01*
X4488493Y-2732997D01*
X4488374Y-2733697D01*
X4488226Y-2734390D01*
X4488049Y-2735075D01*
X4487843Y-2735750D01*
X4487607Y-2736414D01*
X4487342Y-2737067D01*
X4487048Y-2737705D01*
X4486723Y-2738329D01*
X4486369Y-2738937D01*
X4485985Y-2739527D01*
X4309372Y-2996914D01*
X4308619Y-2998131D01*
X4307950Y-2999436D01*
X4307367Y-3000817D01*
X4306870Y-3002264D01*
X4306460Y-3003763D01*
X4306138Y-3005303D01*
X4305905Y-3006872D01*
X4305760Y-3008458D01*
X4305706Y-3010050D01*
X4305743Y-3011636D01*
X4305871Y-3013203D01*
X4306092Y-3014739D01*
X4306406Y-3016234D01*
X4306814Y-3017675D01*
X4307317Y-3019050D01*
X4307915Y-3020348D01*
X4400840Y-3237099D01*
X4401088Y-3237766D01*
X4401367Y-3238430D01*
X4402016Y-3239749D01*
X4402778Y-3241048D01*
X4403643Y-3242319D01*
X4404603Y-3243554D01*
X4405648Y-3244745D01*
X4406769Y-3245885D01*
X4407957Y-3246966D01*
X4409203Y-3247979D01*
X4410498Y-3248918D01*
X4411833Y-3249773D01*
X4413198Y-3250538D01*
X4414584Y-3251204D01*
X4415983Y-3251764D01*
X4417384Y-3252209D01*
X4418084Y-3252386D01*
X4418780Y-3252532D01*
X4721856Y-3308895D01*
X4722547Y-3309044D01*
X4723229Y-3309225D01*
X4723900Y-3309439D01*
X4724562Y-3309685D01*
X4725211Y-3309960D01*
X4725849Y-3310265D01*
X4726473Y-3310598D01*
X4727083Y-3310958D01*
X4727678Y-3311344D01*
X4728258Y-3311756D01*
X4728821Y-3312191D01*
X4729366Y-3312650D01*
X4729893Y-3313130D01*
X4730401Y-3313632D01*
X4730889Y-3314153D01*
X4731356Y-3314694D01*
X4731801Y-3315252D01*
X4732224Y-3315828D01*
X4732624Y-3316419D01*
X4732999Y-3317025D01*
X4733349Y-3317645D01*
X4733673Y-3318278D01*
X4733970Y-3318922D01*
X4734239Y-3319578D01*
X4734480Y-3320243D01*
X4734692Y-3320916D01*
X4734873Y-3321598D01*
X4735024Y-3322286D01*
X4735142Y-3322979D01*
X4735228Y-3323677D01*
X4735280Y-3324379D01*
X4735297Y-3325084D01*
X4735279Y-3637028D01*
X4735261Y-3637732D01*
X4735209Y-3638434D01*
X4735123Y-3639133D01*
X4735004Y-3639828D01*
X4734854Y-3640517D01*
X4734672Y-3641200D01*
X4734460Y-3641875D01*
X4734218Y-3642541D01*
X4733650Y-3643845D01*
X4732975Y-3645101D01*
X4732200Y-3646301D01*
X4731331Y-3647438D01*
X4730375Y-3648502D01*
X4729340Y-3649486D01*
X4728231Y-3650380D01*
X4727652Y-3650791D01*
X4727057Y-3651177D01*
X4726447Y-3651536D01*
X4725824Y-3651867D01*
X4725187Y-3652170D01*
X4724538Y-3652443D01*
X4723878Y-3652685D01*
X4723207Y-3652895D01*
X4722527Y-3653072D01*
X4721838Y-3653216D01*
X4426192Y-3708233D01*
X4425497Y-3708376D01*
X4424801Y-3708551D01*
X4423407Y-3708994D01*
X4422019Y-3709553D01*
X4420646Y-3710221D01*
X4419298Y-3710990D01*
X4417982Y-3711852D01*
X4416709Y-3712798D01*
X4415487Y-3713820D01*
X4414325Y-3714911D01*
X4413232Y-3716062D01*
X4412218Y-3717265D01*
X4411291Y-3718511D01*
X4410461Y-3719794D01*
X4409736Y-3721105D01*
X4409126Y-3722435D01*
X4408867Y-3723105D01*
X4408639Y-3723776D01*
X4316341Y-3954337D01*
X4315770Y-3955649D01*
X4315293Y-3957038D01*
X4314910Y-3958492D01*
X4314621Y-3960000D01*
X4314423Y-3961549D01*
X4314317Y-3963127D01*
X4314301Y-3964723D01*
X4314375Y-3966324D01*
X4314538Y-3967919D01*
X4314788Y-3969494D01*
X4315126Y-3971039D01*
X4315550Y-3972541D01*
X4316060Y-3973989D01*
X4316654Y-3975369D01*
X4317332Y-3976671D01*
X4318093Y-3977882D01*
X4486021Y-4222603D01*
X4486404Y-4223194D01*
X4486757Y-4223801D01*
X4487080Y-4224425D01*
X4487374Y-4225064D01*
X4487638Y-4225717D01*
X4487873Y-4226382D01*
X4488255Y-4227743D01*
X4488521Y-4229137D01*
X4488673Y-4230554D01*
X4488710Y-4231982D01*
X4488635Y-4233410D01*
X4488448Y-4234828D01*
X4488150Y-4236226D01*
X4487742Y-4237591D01*
X4487224Y-4238914D01*
X4486599Y-4240184D01*
X4486247Y-4240796D01*
X4485867Y-4241390D01*
X4485461Y-4241966D01*
X4485029Y-4242521D01*
X4484570Y-4243055D01*
X4484086Y-4243567D01*
X4263481Y-4464135D01*
X4262971Y-4464618D01*
X4262439Y-4465075D01*
X4261885Y-4465506D01*
X4261311Y-4465910D01*
X4260719Y-4466289D01*
X4260109Y-4466640D01*
X4259483Y-4466965D01*
X4258842Y-4467263D01*
X4258188Y-4467535D01*
X4257522Y-4467779D01*
X4256159Y-4468186D01*
X4254764Y-4468483D01*
X4253347Y-4468670D01*
X4251920Y-4468746D01*
X4250494Y-4468709D01*
X4249078Y-4468558D01*
X4248377Y-4468440D01*
X4247683Y-4468293D01*
X4246998Y-4468118D01*
X4246321Y-4467913D01*
X4245656Y-4467679D01*
X4245002Y-4467416D01*
X4244362Y-4467124D01*
X4243737Y-4466802D01*
X4243128Y-4466451D01*
X4242536Y-4466070D01*
X4002148Y-4301073D01*
X4000939Y-4300323D01*
X3999644Y-4299666D01*
X3998275Y-4299101D01*
X3996843Y-4298628D01*
X3995361Y-4298248D01*
X3993839Y-4297962D01*
X3992291Y-4297768D01*
X3990728Y-4297669D01*
X3989161Y-4297663D01*
X3987603Y-4297751D01*
X3986066Y-4297934D01*
X3984561Y-4298212D01*
X3983100Y-4298585D01*
X3981695Y-4299054D01*
X3980358Y-4299618D01*
X3979101Y-4300278D01*
X3873085Y-4356881D01*
X3872453Y-4357184D01*
X3871815Y-4357451D01*
X3871173Y-4357681D01*
X3870528Y-4357875D01*
X3869880Y-4358034D01*
X3869232Y-4358159D01*
X3868583Y-4358248D01*
X3867936Y-4358303D01*
X3867291Y-4358325D01*
X3866650Y-4358313D01*
X3866013Y-4358268D01*
X3865382Y-4358191D01*
X3864757Y-4358082D01*
X3864140Y-4357941D01*
X3863533Y-4357769D01*
X3862935Y-4357566D01*
X3862349Y-4357332D01*
X3861775Y-4357069D01*
X3861215Y-4356776D01*
X3860669Y-4356454D01*
X3860139Y-4356103D01*
X3859626Y-4355723D01*
X3859130Y-4355316D01*
X3858654Y-4354882D01*
X3858198Y-4354420D01*
X3857763Y-4353931D01*
X3857350Y-4353417D01*
X3856961Y-4352876D01*
X3856597Y-4352310D01*
X3856258Y-4351720D01*
X3855946Y-4351104D01*
X3855662Y-4350465D01*
X3637067Y-3822286D01*
X3636812Y-3821628D01*
X3636591Y-3820961D01*
X3636403Y-3820286D01*
X3636248Y-3819602D01*
X3636125Y-3818913D01*
X3636034Y-3818219D01*
X3635946Y-3816820D01*
X3635980Y-3815417D01*
X3636133Y-3814018D01*
X3636402Y-3812636D01*
X3636783Y-3811278D01*
X3637274Y-3809956D01*
X3637870Y-3808680D01*
X3638569Y-3807459D01*
X3639367Y-3806304D01*
X3640260Y-3805224D01*
X3640742Y-3804715D01*
X3641246Y-3804230D01*
X3641773Y-3803768D01*
X3642322Y-3803331D01*
X3642892Y-3802921D01*
X3643483Y-3802539D01*
X3670015Y-3786295D01*
X3671930Y-3785079D01*
X3673972Y-3783691D01*
X3676103Y-3782161D01*
X3678286Y-3780520D01*
X3680484Y-3778797D01*
X3682660Y-3777024D01*
X3684775Y-3775229D01*
X3686793Y-3773445D01*
X3704353Y-3761423D01*
X3721113Y-3748370D01*
X3737026Y-3734332D01*
X3752046Y-3719354D01*
X3766129Y-3703481D01*
X3779227Y-3686759D01*
X3791295Y-3669234D01*
X3802288Y-3650950D01*
X3812159Y-3631954D01*
X3816659Y-3622203D01*
X3820862Y-3612291D01*
X3824762Y-3602224D01*
X3828352Y-3592007D01*
X3831628Y-3581645D01*
X3834583Y-3571146D01*
X3837213Y-3560514D01*
X3839510Y-3549754D01*
X3841469Y-3538874D01*
X3843085Y-3527878D01*
X3844352Y-3516772D01*
X3845264Y-3505561D01*
X3845815Y-3494253D01*
X3846001Y-3482851D01*
X3845552Y-3465098D01*
X3844219Y-3447578D01*
X3842025Y-3430312D01*
X3838991Y-3413323D01*
X3835139Y-3396633D01*
X3830489Y-3380262D01*
X3825065Y-3364232D01*
X3818888Y-3348566D01*
X3811979Y-3333284D01*
X3804360Y-3318409D01*
X3796053Y-3303962D01*
X3787079Y-3289965D01*
X3777460Y-3276440D01*
X3767218Y-3263407D01*
X3756375Y-3250890D01*
X3744952Y-3238909D01*
X3732970Y-3227486D01*
X3720452Y-3216643D01*
X3707420Y-3206402D01*
X3693894Y-3196784D01*
X3679897Y-3187810D01*
X3665450Y-3179504D01*
X3650575Y-3171885D01*
X3635294Y-3164977D01*
X3619628Y-3158800D01*
X3603599Y-3153376D01*
X3587228Y-3148728D01*
X3570538Y-3144875D01*
X3553551Y-3141842D01*
X3536286Y-3139648D01*
X3518768Y-3138316D01*
X3501016Y-3137867D01*
X3483265Y-3138316D01*
X3465746Y-3139648D01*
X3448482Y-3141842D01*
X3431495Y-3144875D01*
X3414805Y-3148728D01*
X3398435Y-3153376D01*
X3382407Y-3158800D01*
X3366742Y-3164977D01*
X3351461Y-3171885D01*
X3336587Y-3179504D01*
X3322141Y-3187810D01*
X3308144Y-3196784D01*
X3294619Y-3206402D01*
X3281588Y-3216643D01*
X3269071Y-3227486D01*
X3257090Y-3238909D01*
X3245668Y-3250890D01*
X3234825Y-3263408D01*
X3224584Y-3276440D01*
X3214966Y-3289965D01*
X3205993Y-3303963D01*
X3197687Y-3318409D01*
X3190068Y-3333284D01*
X3183160Y-3348566D01*
X3176983Y-3364232D01*
X3171560Y-3380262D01*
X3166911Y-3396633D01*
X3163059Y-3413324D01*
X3160025Y-3430312D01*
X3157831Y-3447578D01*
X3156499Y-3465098D01*
X3156050Y-3482851D01*
X3156786Y-3505561D01*
X3158965Y-3527878D01*
X3162539Y-3549754D01*
X3167465Y-3571146D01*
X3173695Y-3592007D01*
X3181184Y-3612291D01*
X3189886Y-3631954D01*
X3199756Y-3650950D01*
X3210748Y-3669234D01*
X3222816Y-3686759D01*
X3235914Y-3703481D01*
X3249997Y-3719354D01*
X3265018Y-3734332D01*
X3280933Y-3748370D01*
X3297695Y-3761423D01*
X3315258Y-3773445D01*
X3317265Y-3775229D01*
X3319373Y-3777024D01*
X3321544Y-3778797D01*
X3323740Y-3780520D01*
X3325921Y-3782161D01*
X3328051Y-3783691D01*
X3330090Y-3785079D01*
X3332000Y-3786295D01*
X3358531Y-3802539D01*
X3359119Y-3802921D01*
X3359686Y-3803331D01*
X3360232Y-3803768D01*
X3360757Y-3804230D01*
X3361259Y-3804715D01*
X3361739Y-3805224D01*
X3362196Y-3805753D01*
X3362630Y-3806303D01*
X3363040Y-3806872D01*
X3363426Y-3807459D01*
X3363787Y-3808062D01*
X3364123Y-3808680D01*
X3364434Y-3809312D01*
X3364719Y-3809956D01*
X3364978Y-3810612D01*
X3365210Y-3811278D01*
X3365415Y-3811953D01*
X3365593Y-3812635D01*
X3365742Y-3813324D01*
X3365863Y-3814018D01*
X3365956Y-3814716D01*
X3366019Y-3815416D01*
X3366052Y-3816118D01*
X3366055Y-3816820D01*
X3366028Y-3817520D01*
X3365970Y-3818218D01*
X3365880Y-3818913D01*
X3365759Y-3819602D01*
X3365606Y-3820286D01*
X3365419Y-3820961D01*
X3365200Y-3821628D01*
X3364947Y-3822286D01*
X3146370Y-4350483D01*
X3146087Y-4351123D01*
X3145775Y-4351739D01*
X3145436Y-4352329D01*
X3145072Y-4352895D01*
X3144683Y-4353435D01*
X3144271Y-4353949D01*
X3143837Y-4354437D01*
X3143381Y-4354898D01*
X3142905Y-4355332D01*
X3142410Y-4355739D01*
X3141898Y-4356118D01*
X3141368Y-4356468D01*
X3140823Y-4356789D01*
X3140263Y-4357082D01*
X3139690Y-4357345D01*
X3139104Y-4357578D01*
X3138507Y-4357780D01*
X3137900Y-4357952D01*
X3137283Y-4358092D01*
X3136659Y-4358202D01*
X3136028Y-4358279D01*
X3135391Y-4358323D01*
X3134749Y-4358335D01*
X3134104Y-4358314D01*
X3133457Y-4358259D01*
X3132808Y-4358170D01*
X3132158Y-4358047D01*
X3131510Y-4357889D01*
X3130864Y-4357695D01*
X3130220Y-4357466D01*
X3129581Y-4357201D01*
X3128947Y-4356900D01*
X3022932Y-4300297D01*
X3021671Y-4299636D01*
X3020332Y-4299070D01*
X3018926Y-4298601D01*
X3017464Y-4298226D01*
X3015958Y-4297947D01*
X3014421Y-4297763D01*
X3012863Y-4297673D01*
X3011297Y-4297678D01*
X3009735Y-4297777D01*
X3008188Y-4297971D01*
X3006668Y-4298258D01*
X3005187Y-4298638D01*
X3003756Y-4299112D01*
X3002387Y-4299679D01*
X3001093Y-4300339D01*
X2999885Y-4301092D01*
X2759478Y-4466089D01*
X2758888Y-4466470D01*
X2758280Y-4466821D01*
X2757656Y-4467142D01*
X2757017Y-4467435D01*
X2756364Y-4467698D01*
X2755700Y-4467931D01*
X2754339Y-4468312D01*
X2752945Y-4468577D01*
X2751529Y-4468727D01*
X2750103Y-4468764D01*
X2748676Y-4468689D01*
X2747260Y-4468502D01*
X2745865Y-4468205D01*
X2744502Y-4467798D01*
X2743183Y-4467282D01*
X2741917Y-4466659D01*
X2741308Y-4466308D01*
X2740716Y-4465929D01*
X2740143Y-4465525D01*
X2739591Y-4465094D01*
X2739060Y-4464637D01*
X2738552Y-4464154D01*
X2517947Y-4243586D01*
X2517460Y-4243074D01*
X2517000Y-4242540D01*
X2516566Y-4241985D01*
X2516159Y-4241409D01*
X2515778Y-4240815D01*
X2515424Y-4240203D01*
X2515097Y-4239576D01*
X2514797Y-4238933D01*
X2514524Y-4238278D01*
X2514278Y-4237610D01*
X2513869Y-4236244D01*
X2513570Y-4234847D01*
X2513383Y-4233429D01*
X2513308Y-4232000D01*
X2513346Y-4230573D01*
X2513499Y-4229156D01*
X2513619Y-4228456D01*
X2513767Y-4227762D01*
X2513944Y-4227076D01*
X2514151Y-4226401D01*
X2514387Y-4225736D01*
X2514653Y-4225083D01*
X2514948Y-4224444D01*
X2515272Y-4223820D01*
X2515627Y-4223212D01*
X2516011Y-4222622D01*
X2683958Y-3977901D01*
X2684713Y-3976690D01*
X2685386Y-3975388D01*
X2685976Y-3974008D01*
X2686482Y-3972560D01*
X2686904Y-3971058D01*
X2687241Y-3969513D01*
X2687490Y-3967937D01*
X2687653Y-3966343D01*
X2687727Y-3964742D01*
X2687712Y-3963146D01*
X2687606Y-3961568D01*
X2687409Y-3960019D01*
X2687120Y-3958511D01*
X2686738Y-3957057D01*
X2686262Y-3955668D01*
X2685691Y-3954356D01*
X2593393Y-3723795D01*
X2593165Y-3723123D01*
X2592904Y-3722454D01*
X2592293Y-3721123D01*
X2591569Y-3719813D01*
X2590740Y-3718530D01*
X2589815Y-3717284D01*
X2588804Y-3716081D01*
X2587714Y-3714930D01*
X2586556Y-3713839D01*
X2585337Y-3712817D01*
X2584067Y-3711871D01*
X2582754Y-3711009D01*
X2581407Y-3710240D01*
X2580035Y-3709572D01*
X2578648Y-3709013D01*
X2577950Y-3708776D01*
X2577252Y-3708570D01*
X2576555Y-3708395D01*
X2575859Y-3708253D01*
X2280213Y-3653235D01*
X2279526Y-3653092D01*
X2278847Y-3652914D01*
X2278178Y-3652704D01*
X2277518Y-3652462D01*
X2276870Y-3652189D01*
X2276234Y-3651886D01*
X2275611Y-3651555D01*
X2275002Y-3651196D01*
X2274407Y-3650810D01*
X2273828Y-3650399D01*
X2273265Y-3649964D01*
X2272720Y-3649505D01*
X2272192Y-3649024D01*
X2271684Y-3648522D01*
X2271195Y-3647999D01*
X2270727Y-3647457D01*
X2270281Y-3646897D01*
X2269857Y-3646321D01*
X2269457Y-3645728D01*
X2269081Y-3645120D01*
X2268730Y-3644498D01*
X2268405Y-3643864D01*
X2268106Y-3643218D01*
X2267836Y-3642561D01*
X2267594Y-3641894D01*
X2267381Y-3641219D01*
X2267199Y-3640536D01*
X2267048Y-3639847D01*
X2266929Y-3639153D01*
X2266843Y-3638454D01*
X2266790Y-3637751D01*
X2266773Y-3637047D01*
X2266736Y-3325102D01*
X2266752Y-3324396D01*
X2266802Y-3323693D01*
X2266887Y-3322993D01*
X2267004Y-3322298D01*
X2267153Y-3321609D01*
X2267334Y-3320927D01*
X2267545Y-3320252D01*
X2267785Y-3319586D01*
X2268055Y-3318930D01*
X2268351Y-3318284D01*
X2269024Y-3317030D01*
X2269798Y-3315832D01*
X2270666Y-3314697D01*
X2271620Y-3313634D01*
X2272653Y-3312651D01*
X2273760Y-3311757D01*
X2274932Y-3310959D01*
X2275541Y-3310599D01*
X2276163Y-3310266D01*
X2276798Y-3309961D01*
X2277446Y-3309685D01*
X2278105Y-3309440D01*
X2278774Y-3309226D01*
X2279453Y-3309044D01*
X2280140Y-3308896D01*
X2583235Y-3252532D01*
X2584624Y-3252209D01*
X2586021Y-3251764D01*
X2587415Y-3251204D01*
X2588799Y-3250538D01*
X2590162Y-3249774D01*
X2591495Y-3248918D01*
X2592790Y-3247980D01*
X2594037Y-3246966D01*
X2595226Y-3245886D01*
X2596349Y-3244746D01*
X2597396Y-3243554D01*
X2598358Y-3242319D01*
X2599226Y-3241048D01*
X2599991Y-3239750D01*
X2600643Y-3238431D01*
X2601174Y-3237100D01*
X2694081Y-3020348D01*
X2694682Y-3019051D01*
X2695188Y-3017676D01*
X2695598Y-3016235D01*
X2695914Y-3014740D01*
X2696136Y-3013203D01*
X2696265Y-3011636D01*
X2696302Y-3010050D01*
X2696247Y-3008459D01*
X2696102Y-3006872D01*
X2695866Y-3005303D01*
X2695541Y-3003763D01*
X2695128Y-3002264D01*
X2694627Y-3000818D01*
X2694039Y-2999436D01*
X2693364Y-2998131D01*
X2692604Y-2996915D01*
X2516010Y-2739527D01*
X2515629Y-2738937D01*
X2515278Y-2738329D01*
X2514955Y-2737705D01*
X2514663Y-2737067D01*
X2514399Y-2736415D01*
X2514164Y-2735750D01*
X2513782Y-2734390D01*
X2513515Y-2732997D01*
X2513363Y-2731582D01*
X2513323Y-2730156D01*
X2513397Y-2728729D01*
X2513582Y-2727313D01*
X2513879Y-2725917D01*
X2514286Y-2724553D01*
X2514802Y-2723231D01*
X2515427Y-2721963D01*
X2515780Y-2721351D01*
X2516160Y-2720758D01*
X2516566Y-2720182D01*
X2516999Y-2719627D01*
X2517459Y-2719093D01*
X2517945Y-2718582D01*
X2738513Y-2498014D01*
X2739025Y-2497528D01*
X2739558Y-2497067D01*
X2740113Y-2496634D01*
X2740688Y-2496226D01*
X2741282Y-2495846D01*
X2741892Y-2495492D01*
X2742519Y-2495165D01*
X2743160Y-2494865D01*
X2743814Y-2494592D01*
X2744480Y-2494346D01*
X2745843Y-2493937D01*
X2747237Y-2493638D01*
X2748651Y-2493451D01*
X2750076Y-2493376D01*
X2751501Y-2493414D01*
X2752914Y-2493567D01*
X2753613Y-2493686D01*
X2754306Y-2493834D01*
X2754990Y-2494012D01*
X2755664Y-2494219D01*
X2756328Y-2494454D01*
X2756980Y-2494720D01*
X2757618Y-2495015D01*
X2758242Y-2495339D01*
X2758849Y-2495694D01*
X2759439Y-2496078D01*
X3021345Y-2675807D01*
X3022556Y-2676565D01*
X3023859Y-2677239D01*
X3025241Y-2677830D01*
X3026691Y-2678336D01*
X3028195Y-2678756D01*
X3029742Y-2679091D01*
X3031320Y-2679338D01*
X3032917Y-2679497D01*
X3034519Y-2679568D01*
X3036116Y-2679548D01*
X3037694Y-2679439D01*
X3039243Y-2679238D01*
X3040748Y-2678944D01*
X3042200Y-2678558D01*
X3043584Y-2678078D01*
X3044889Y-2677504D01*
X3255003Y-2591493D01*
X3255672Y-2591255D01*
X3256338Y-2590986D01*
X3257001Y-2590686D01*
X3257660Y-2590356D01*
X3258962Y-2589613D01*
X3260237Y-2588765D01*
X3261475Y-2587822D01*
X3262670Y-2586793D01*
X3263813Y-2585686D01*
X3264897Y-2584512D01*
X3265914Y-2583278D01*
X3266856Y-2581995D01*
X3267715Y-2580670D01*
X3268483Y-2579315D01*
X3269153Y-2577936D01*
X3269716Y-2576544D01*
X3270164Y-2575148D01*
X3270343Y-2574451D01*
X3270491Y-2573756D01*
X3328846Y-2260263D01*
X3328991Y-2259574D01*
X3329170Y-2258893D01*
X3329381Y-2258223D01*
X3329624Y-2257562D01*
X3329897Y-2256913D01*
X3330200Y-2256277D01*
X3330532Y-2255653D01*
X3330890Y-2255043D01*
X3331275Y-2254448D01*
X3331686Y-2253869D01*
X3332121Y-2253306D01*
X3332578Y-2252761D01*
X3333059Y-2252233D01*
X3333560Y-2251725D01*
X3334081Y-2251237D01*
X3334622Y-2250769D01*
X3335180Y-2250324D01*
X3335756Y-2249900D01*
X3336347Y-2249501D01*
X3336954Y-2249125D01*
X3337574Y-2248774D01*
X3338207Y-2248450D01*
X3338852Y-2248152D01*
X3339508Y-2247882D01*
X3340173Y-2247641D01*
X3340847Y-2247428D01*
X3341529Y-2247247D01*
X3342217Y-2247096D01*
X3342911Y-2246977D01*
X3343610Y-2246891D01*
X3344312Y-2246839D01*
X3345016Y-2246822D01*
X3656979Y-2246822D01*
X3657682Y-2246839D01*
G36*
X3657682Y-2246839D02*
G01*
X3658382Y-2246891D01*
X3659079Y-2246977D01*
X3659771Y-2247096D01*
X3660458Y-2247247D01*
X3661139Y-2247428D01*
X3661812Y-2247641D01*
X3662476Y-2247882D01*
X3663131Y-2248152D01*
X3663775Y-2248450D01*
X3665027Y-2249125D01*
X3666224Y-2249900D01*
X3667357Y-2250769D01*
X3668418Y-2251725D01*
X3669399Y-2252761D01*
X3670291Y-2253869D01*
X3670701Y-2254448D01*
X3671086Y-2255043D01*
X3671445Y-2255653D01*
X3671776Y-2256277D01*
X3672079Y-2256913D01*
X3672352Y-2257562D01*
X3672595Y-2258223D01*
X3672806Y-2258893D01*
X3672985Y-2259574D01*
X3673130Y-2260263D01*
X3731466Y-2573756D01*
X3731793Y-2575147D01*
X3732241Y-2576544D01*
X3732803Y-2577936D01*
X3733472Y-2579314D01*
X3734239Y-2580670D01*
X3735096Y-2581994D01*
X3736037Y-2583278D01*
X3737053Y-2584512D01*
X3738137Y-2585686D01*
X3739280Y-2586793D01*
X3740474Y-2587822D01*
X3741713Y-2588765D01*
X3742989Y-2589613D01*
X3744292Y-2590356D01*
X3745617Y-2590986D01*
X3746954Y-2591492D01*
X3957087Y-2677503D01*
X3958395Y-2678078D01*
X3959783Y-2678558D01*
X3961236Y-2678944D01*
X3962744Y-2679237D01*
X3964294Y-2679438D01*
X3965873Y-2679548D01*
X3967471Y-2679567D01*
X3969073Y-2679497D01*
X3970669Y-2679338D01*
X3972247Y-2679091D01*
X3973793Y-2678756D01*
X3975296Y-2678336D01*
X3976743Y-2677829D01*
X3978123Y-2677239D01*
X3979423Y-2676564D01*
X3980631Y-2675807D01*
X4242518Y-2496078D01*
X4243110Y-2495693D01*
X4243719Y-2495339D01*
X4244344Y-2495014D01*
X4244984Y-2494719D01*
X4245638Y-2494454D01*
X4246303Y-2494218D01*
X4247665Y-2493834D01*
X4249060Y-2493566D01*
X4250476Y-2493414D01*
X4251902Y-2493375D01*
X4253329Y-2493450D01*
X4254746Y-2493638D01*
X4256141Y-2493937D01*
X4257504Y-2494346D01*
X4258824Y-2494864D01*
X4260091Y-2495491D01*
X4260701Y-2495845D01*
X4261293Y-2496226D01*
X4261867Y-2496633D01*
X4262421Y-2497067D01*
X4262953Y-2497527D01*
X4263463Y-2498014D01*
X4484049Y-2718582D01*
X4484534Y-2719093D01*
X4484993Y-2719627D01*
X4485426Y-2720182D01*
X4485832Y-2720757D01*
X4486212Y-2721351D01*
X4486565Y-2721962D01*
X4486891Y-2722589D01*
X4487191Y-2723231D01*
X4487464Y-2723886D01*
X4487709Y-2724553D01*
X4488118Y-2725917D01*
X4488418Y-2727313D01*
X4488606Y-2728729D01*
X4488682Y-2730156D01*
X4488644Y-2731582D01*
X4488493Y-2732997D01*
X4488374Y-2733697D01*
X4488226Y-2734390D01*
X4488049Y-2735075D01*
X4487843Y-2735750D01*
X4487607Y-2736414D01*
X4487342Y-2737067D01*
X4487048Y-2737705D01*
X4486723Y-2738329D01*
X4486369Y-2738937D01*
X4485985Y-2739527D01*
X4309372Y-2996914D01*
X4308619Y-2998131D01*
X4307950Y-2999436D01*
X4307367Y-3000817D01*
X4306870Y-3002264D01*
X4306460Y-3003763D01*
X4306138Y-3005303D01*
X4305905Y-3006872D01*
X4305760Y-3008458D01*
X4305706Y-3010050D01*
X4305743Y-3011636D01*
X4305871Y-3013203D01*
X4306092Y-3014739D01*
X4306406Y-3016234D01*
X4306814Y-3017675D01*
X4307317Y-3019050D01*
X4307915Y-3020348D01*
X4400840Y-3237099D01*
X4401088Y-3237766D01*
X4401367Y-3238430D01*
X4402016Y-3239749D01*
X4402778Y-3241048D01*
X4403643Y-3242319D01*
X4404603Y-3243554D01*
X4405648Y-3244745D01*
X4406769Y-3245885D01*
X4407957Y-3246966D01*
X4409203Y-3247979D01*
X4410498Y-3248918D01*
X4411833Y-3249773D01*
X4413198Y-3250538D01*
X4414584Y-3251204D01*
X4415983Y-3251764D01*
X4417384Y-3252209D01*
X4418084Y-3252386D01*
X4418780Y-3252532D01*
X4721856Y-3308895D01*
X4722547Y-3309044D01*
X4723229Y-3309225D01*
X4723900Y-3309439D01*
X4724562Y-3309685D01*
X4725211Y-3309960D01*
X4725849Y-3310265D01*
X4726473Y-3310598D01*
X4727083Y-3310958D01*
X4727678Y-3311344D01*
X4728258Y-3311756D01*
X4728821Y-3312191D01*
X4729366Y-3312650D01*
X4729893Y-3313130D01*
X4730401Y-3313632D01*
X4730889Y-3314153D01*
X4731356Y-3314694D01*
X4731801Y-3315252D01*
X4732224Y-3315828D01*
X4732624Y-3316419D01*
X4732999Y-3317025D01*
X4733349Y-3317645D01*
X4733673Y-3318278D01*
X4733970Y-3318922D01*
X4734239Y-3319578D01*
X4734480Y-3320243D01*
X4734692Y-3320916D01*
X4734873Y-3321598D01*
X4735024Y-3322286D01*
X4735142Y-3322979D01*
X4735228Y-3323677D01*
X4735280Y-3324379D01*
X4735297Y-3325084D01*
X4735279Y-3637028D01*
X4735261Y-3637732D01*
X4735209Y-3638434D01*
X4735123Y-3639133D01*
X4735004Y-3639828D01*
X4734854Y-3640517D01*
X4734672Y-3641200D01*
X4734460Y-3641875D01*
X4734218Y-3642541D01*
X4733650Y-3643845D01*
X4732975Y-3645101D01*
X4732200Y-3646301D01*
X4731331Y-3647438D01*
X4730375Y-3648502D01*
X4729340Y-3649486D01*
X4728231Y-3650380D01*
X4727652Y-3650791D01*
X4727057Y-3651177D01*
X4726447Y-3651536D01*
X4725824Y-3651867D01*
X4725187Y-3652170D01*
X4724538Y-3652443D01*
X4723878Y-3652685D01*
X4723207Y-3652895D01*
X4722527Y-3653072D01*
X4721838Y-3653216D01*
X4426192Y-3708233D01*
X4425497Y-3708376D01*
X4424801Y-3708551D01*
X4423407Y-3708994D01*
X4422019Y-3709553D01*
X4420646Y-3710221D01*
X4419298Y-3710990D01*
X4417982Y-3711852D01*
X4416709Y-3712798D01*
X4415487Y-3713820D01*
X4414325Y-3714911D01*
X4413232Y-3716062D01*
X4412218Y-3717265D01*
X4411291Y-3718511D01*
X4410461Y-3719794D01*
X4409736Y-3721105D01*
X4409126Y-3722435D01*
X4408867Y-3723105D01*
X4408639Y-3723776D01*
X4316341Y-3954337D01*
X4315770Y-3955649D01*
X4315293Y-3957038D01*
X4314910Y-3958492D01*
X4314621Y-3960000D01*
X4314423Y-3961549D01*
X4314317Y-3963127D01*
X4314301Y-3964723D01*
X4314375Y-3966324D01*
X4314538Y-3967919D01*
X4314788Y-3969494D01*
X4315126Y-3971039D01*
X4315550Y-3972541D01*
X4316060Y-3973989D01*
X4316654Y-3975369D01*
X4317332Y-3976671D01*
X4318093Y-3977882D01*
X4486021Y-4222603D01*
X4486404Y-4223194D01*
X4486757Y-4223801D01*
X4487080Y-4224425D01*
X4487374Y-4225064D01*
X4487638Y-4225717D01*
X4487873Y-4226382D01*
X4488255Y-4227743D01*
X4488521Y-4229137D01*
X4488673Y-4230554D01*
X4488710Y-4231982D01*
X4488635Y-4233410D01*
X4488448Y-4234828D01*
X4488150Y-4236226D01*
X4487742Y-4237591D01*
X4487224Y-4238914D01*
X4486599Y-4240184D01*
X4486247Y-4240796D01*
X4485867Y-4241390D01*
X4485461Y-4241966D01*
X4485029Y-4242521D01*
X4484570Y-4243055D01*
X4484086Y-4243567D01*
X4263481Y-4464135D01*
X4262971Y-4464618D01*
X4262439Y-4465075D01*
X4261885Y-4465506D01*
X4261311Y-4465910D01*
X4260719Y-4466289D01*
X4260109Y-4466640D01*
X4259483Y-4466965D01*
X4258842Y-4467263D01*
X4258188Y-4467535D01*
X4257522Y-4467779D01*
X4256159Y-4468186D01*
X4254764Y-4468483D01*
X4253347Y-4468670D01*
X4251920Y-4468746D01*
X4250494Y-4468709D01*
X4249078Y-4468558D01*
X4248377Y-4468440D01*
X4247683Y-4468293D01*
X4246998Y-4468118D01*
X4246321Y-4467913D01*
X4245656Y-4467679D01*
X4245002Y-4467416D01*
X4244362Y-4467124D01*
X4243737Y-4466802D01*
X4243128Y-4466451D01*
X4242536Y-4466070D01*
X4002148Y-4301073D01*
X4000939Y-4300323D01*
X3999644Y-4299666D01*
X3998275Y-4299101D01*
X3996843Y-4298628D01*
X3995361Y-4298248D01*
X3993839Y-4297962D01*
X3992291Y-4297768D01*
X3990728Y-4297669D01*
X3989161Y-4297663D01*
X3987603Y-4297751D01*
X3986066Y-4297934D01*
X3984561Y-4298212D01*
X3983100Y-4298585D01*
X3981695Y-4299054D01*
X3980358Y-4299618D01*
X3979101Y-4300278D01*
X3873085Y-4356881D01*
X3872453Y-4357184D01*
X3871815Y-4357451D01*
X3871173Y-4357681D01*
X3870528Y-4357875D01*
X3869880Y-4358034D01*
X3869232Y-4358159D01*
X3868583Y-4358248D01*
X3867936Y-4358303D01*
X3867291Y-4358325D01*
X3866650Y-4358313D01*
X3866013Y-4358268D01*
X3865382Y-4358191D01*
X3864757Y-4358082D01*
X3864140Y-4357941D01*
X3863533Y-4357769D01*
X3862935Y-4357566D01*
X3862349Y-4357332D01*
X3861775Y-4357069D01*
X3861215Y-4356776D01*
X3860669Y-4356454D01*
X3860139Y-4356103D01*
X3859626Y-4355723D01*
X3859130Y-4355316D01*
X3858654Y-4354882D01*
X3858198Y-4354420D01*
X3857763Y-4353931D01*
X3857350Y-4353417D01*
X3856961Y-4352876D01*
X3856597Y-4352310D01*
X3856258Y-4351720D01*
X3855946Y-4351104D01*
X3855662Y-4350465D01*
X3637067Y-3822286D01*
X3636812Y-3821628D01*
X3636591Y-3820961D01*
X3636403Y-3820286D01*
X3636248Y-3819602D01*
X3636125Y-3818913D01*
X3636034Y-3818219D01*
X3635946Y-3816820D01*
X3635980Y-3815417D01*
X3636133Y-3814018D01*
X3636402Y-3812636D01*
X3636783Y-3811278D01*
X3637274Y-3809956D01*
X3637870Y-3808680D01*
X3638569Y-3807459D01*
X3639367Y-3806304D01*
X3640260Y-3805224D01*
X3640742Y-3804715D01*
X3641246Y-3804230D01*
X3641773Y-3803768D01*
X3642322Y-3803331D01*
X3642892Y-3802921D01*
X3643483Y-3802539D01*
X3670015Y-3786295D01*
X3671930Y-3785079D01*
X3673972Y-3783691D01*
X3676103Y-3782161D01*
X3678286Y-3780520D01*
X3680484Y-3778797D01*
X3682660Y-3777024D01*
X3684775Y-3775229D01*
X3686793Y-3773445D01*
X3704353Y-3761423D01*
X3721113Y-3748370D01*
X3737026Y-3734332D01*
X3752046Y-3719354D01*
X3766129Y-3703481D01*
X3779227Y-3686759D01*
X3791295Y-3669234D01*
X3802288Y-3650950D01*
X3812159Y-3631954D01*
X3816659Y-3622203D01*
X3820862Y-3612291D01*
X3824762Y-3602224D01*
X3828352Y-3592007D01*
X3831628Y-3581645D01*
X3834583Y-3571146D01*
X3837213Y-3560514D01*
X3839510Y-3549754D01*
X3841469Y-3538874D01*
X3843085Y-3527878D01*
X3844352Y-3516772D01*
X3845264Y-3505561D01*
X3845815Y-3494253D01*
X3846001Y-3482851D01*
X3845552Y-3465098D01*
X3844219Y-3447578D01*
X3842025Y-3430312D01*
X3838991Y-3413323D01*
X3835139Y-3396633D01*
X3830489Y-3380262D01*
X3825065Y-3364232D01*
X3818888Y-3348566D01*
X3811979Y-3333284D01*
X3804360Y-3318409D01*
X3796053Y-3303962D01*
X3787079Y-3289965D01*
X3777460Y-3276440D01*
X3767218Y-3263407D01*
X3756375Y-3250890D01*
X3744952Y-3238909D01*
X3732970Y-3227486D01*
X3720452Y-3216643D01*
X3707420Y-3206402D01*
X3693894Y-3196784D01*
X3679897Y-3187810D01*
X3665450Y-3179504D01*
X3650575Y-3171885D01*
X3635294Y-3164977D01*
X3619628Y-3158800D01*
X3603599Y-3153376D01*
X3587228Y-3148728D01*
X3570538Y-3144875D01*
X3553551Y-3141842D01*
X3536286Y-3139648D01*
X3518768Y-3138316D01*
X3501016Y-3137867D01*
X3483265Y-3138316D01*
X3465746Y-3139648D01*
X3448482Y-3141842D01*
X3431495Y-3144875D01*
X3414805Y-3148728D01*
X3398435Y-3153376D01*
X3382407Y-3158800D01*
X3366742Y-3164977D01*
X3351461Y-3171885D01*
X3336587Y-3179504D01*
X3322141Y-3187810D01*
X3308144Y-3196784D01*
X3294619Y-3206402D01*
X3281588Y-3216643D01*
X3269071Y-3227486D01*
X3257090Y-3238909D01*
X3245668Y-3250890D01*
X3234825Y-3263408D01*
X3224584Y-3276440D01*
X3214966Y-3289965D01*
X3205993Y-3303963D01*
X3197687Y-3318409D01*
X3190068Y-3333284D01*
X3183160Y-3348566D01*
X3176983Y-3364232D01*
X3171560Y-3380262D01*
X3166911Y-3396633D01*
X3163059Y-3413324D01*
X3160025Y-3430312D01*
X3157831Y-3447578D01*
X3156499Y-3465098D01*
X3156050Y-3482851D01*
X3156786Y-3505561D01*
X3158965Y-3527878D01*
X3162539Y-3549754D01*
X3167465Y-3571146D01*
X3173695Y-3592007D01*
X3181184Y-3612291D01*
X3189886Y-3631954D01*
X3199756Y-3650950D01*
X3210748Y-3669234D01*
X3222816Y-3686759D01*
X3235914Y-3703481D01*
X3249997Y-3719354D01*
X3265018Y-3734332D01*
X3280933Y-3748370D01*
X3297695Y-3761423D01*
X3315258Y-3773445D01*
X3317265Y-3775229D01*
X3319373Y-3777024D01*
X3321544Y-3778797D01*
X3323740Y-3780520D01*
X3325921Y-3782161D01*
X3328051Y-3783691D01*
X3330090Y-3785079D01*
X3332000Y-3786295D01*
X3358531Y-3802539D01*
X3359119Y-3802921D01*
X3359686Y-3803331D01*
X3360232Y-3803768D01*
X3360757Y-3804230D01*
X3361259Y-3804715D01*
X3361739Y-3805224D01*
X3362196Y-3805753D01*
X3362630Y-3806303D01*
X3363040Y-3806872D01*
X3363426Y-3807459D01*
X3363787Y-3808062D01*
X3364123Y-3808680D01*
X3364434Y-3809312D01*
X3364719Y-3809956D01*
X3364978Y-3810612D01*
X3365210Y-3811278D01*
X3365415Y-3811953D01*
X3365593Y-3812635D01*
X3365742Y-3813324D01*
X3365863Y-3814018D01*
X3365956Y-3814716D01*
X3366019Y-3815416D01*
X3366052Y-3816118D01*
X3366055Y-3816820D01*
X3366028Y-3817520D01*
X3365970Y-3818218D01*
X3365880Y-3818913D01*
X3365759Y-3819602D01*
X3365606Y-3820286D01*
X3365419Y-3820961D01*
X3365200Y-3821628D01*
X3364947Y-3822286D01*
X3146370Y-4350483D01*
X3146087Y-4351123D01*
X3145775Y-4351739D01*
X3145436Y-4352329D01*
X3145072Y-4352895D01*
X3144683Y-4353435D01*
X3144271Y-4353949D01*
X3143837Y-4354437D01*
X3143381Y-4354898D01*
X3142905Y-4355332D01*
X3142410Y-4355739D01*
X3141898Y-4356118D01*
X3141368Y-4356468D01*
X3140823Y-4356789D01*
X3140263Y-4357082D01*
X3139690Y-4357345D01*
X3139104Y-4357578D01*
X3138507Y-4357780D01*
X3137900Y-4357952D01*
X3137283Y-4358092D01*
X3136659Y-4358202D01*
X3136028Y-4358279D01*
X3135391Y-4358323D01*
X3134749Y-4358335D01*
X3134104Y-4358314D01*
X3133457Y-4358259D01*
X3132808Y-4358170D01*
X3132158Y-4358047D01*
X3131510Y-4357889D01*
X3130864Y-4357695D01*
X3130220Y-4357466D01*
X3129581Y-4357201D01*
X3128947Y-4356900D01*
X3022932Y-4300297D01*
X3021671Y-4299636D01*
X3020332Y-4299070D01*
X3018926Y-4298601D01*
X3017464Y-4298226D01*
X3015958Y-4297947D01*
X3014421Y-4297763D01*
X3012863Y-4297673D01*
X3011297Y-4297678D01*
X3009735Y-4297777D01*
X3008188Y-4297971D01*
X3006668Y-4298258D01*
X3005187Y-4298638D01*
X3003756Y-4299112D01*
X3002387Y-4299679D01*
X3001093Y-4300339D01*
X2999885Y-4301092D01*
X2759478Y-4466089D01*
X2758888Y-4466470D01*
X2758280Y-4466821D01*
X2757656Y-4467142D01*
X2757017Y-4467435D01*
X2756364Y-4467698D01*
X2755700Y-4467931D01*
X2754339Y-4468312D01*
X2752945Y-4468577D01*
X2751529Y-4468727D01*
X2750103Y-4468764D01*
X2748676Y-4468689D01*
X2747260Y-4468502D01*
X2745865Y-4468205D01*
X2744502Y-4467798D01*
X2743183Y-4467282D01*
X2741917Y-4466659D01*
X2741308Y-4466308D01*
X2740716Y-4465929D01*
X2740143Y-4465525D01*
X2739591Y-4465094D01*
X2739060Y-4464637D01*
X2738552Y-4464154D01*
X2517947Y-4243586D01*
X2517460Y-4243074D01*
X2517000Y-4242540D01*
X2516566Y-4241985D01*
X2516159Y-4241409D01*
X2515778Y-4240815D01*
X2515424Y-4240203D01*
X2515097Y-4239576D01*
X2514797Y-4238933D01*
X2514524Y-4238278D01*
X2514278Y-4237610D01*
X2513869Y-4236244D01*
X2513570Y-4234847D01*
X2513383Y-4233429D01*
X2513308Y-4232000D01*
X2513346Y-4230573D01*
X2513499Y-4229156D01*
X2513619Y-4228456D01*
X2513767Y-4227762D01*
X2513944Y-4227076D01*
X2514151Y-4226401D01*
X2514387Y-4225736D01*
X2514653Y-4225083D01*
X2514948Y-4224444D01*
X2515272Y-4223820D01*
X2515627Y-4223212D01*
X2516011Y-4222622D01*
X2683958Y-3977901D01*
X2684713Y-3976690D01*
X2685386Y-3975388D01*
X2685976Y-3974008D01*
X2686482Y-3972560D01*
X2686904Y-3971058D01*
X2687241Y-3969513D01*
X2687490Y-3967937D01*
X2687653Y-3966343D01*
X2687727Y-3964742D01*
X2687712Y-3963146D01*
X2687606Y-3961568D01*
X2687409Y-3960019D01*
X2687120Y-3958511D01*
X2686738Y-3957057D01*
X2686262Y-3955668D01*
X2685691Y-3954356D01*
X2593393Y-3723795D01*
X2593165Y-3723123D01*
X2592904Y-3722454D01*
X2592293Y-3721123D01*
X2591569Y-3719813D01*
X2590740Y-3718530D01*
X2589815Y-3717284D01*
X2588804Y-3716081D01*
X2587714Y-3714930D01*
X2586556Y-3713839D01*
X2585337Y-3712817D01*
X2584067Y-3711871D01*
X2582754Y-3711009D01*
X2581407Y-3710240D01*
X2580035Y-3709572D01*
X2578648Y-3709013D01*
X2577950Y-3708776D01*
X2577252Y-3708570D01*
X2576555Y-3708395D01*
X2575859Y-3708253D01*
X2280213Y-3653235D01*
X2279526Y-3653092D01*
X2278847Y-3652914D01*
X2278178Y-3652704D01*
X2277518Y-3652462D01*
X2276870Y-3652189D01*
X2276234Y-3651886D01*
X2275611Y-3651555D01*
X2275002Y-3651196D01*
X2274407Y-3650810D01*
X2273828Y-3650399D01*
X2273265Y-3649964D01*
X2272720Y-3649505D01*
X2272192Y-3649024D01*
X2271684Y-3648522D01*
X2271195Y-3647999D01*
X2270727Y-3647457D01*
X2270281Y-3646897D01*
X2269857Y-3646321D01*
X2269457Y-3645728D01*
X2269081Y-3645120D01*
X2268730Y-3644498D01*
X2268405Y-3643864D01*
X2268106Y-3643218D01*
X2267836Y-3642561D01*
X2267594Y-3641894D01*
X2267381Y-3641219D01*
X2267199Y-3640536D01*
X2267048Y-3639847D01*
X2266929Y-3639153D01*
X2266843Y-3638454D01*
X2266790Y-3637751D01*
X2266773Y-3637047D01*
X2266736Y-3325102D01*
X2266752Y-3324396D01*
X2266802Y-3323693D01*
X2266887Y-3322993D01*
X2267004Y-3322298D01*
X2267153Y-3321609D01*
X2267334Y-3320927D01*
X2267545Y-3320252D01*
X2267785Y-3319586D01*
X2268055Y-3318930D01*
X2268351Y-3318284D01*
X2269024Y-3317030D01*
X2269798Y-3315832D01*
X2270666Y-3314697D01*
X2271620Y-3313634D01*
X2272653Y-3312651D01*
X2273760Y-3311757D01*
X2274932Y-3310959D01*
X2275541Y-3310599D01*
X2276163Y-3310266D01*
X2276798Y-3309961D01*
X2277446Y-3309685D01*
X2278105Y-3309440D01*
X2278774Y-3309226D01*
X2279453Y-3309044D01*
X2280140Y-3308896D01*
X2583235Y-3252532D01*
X2584624Y-3252209D01*
X2586021Y-3251764D01*
X2587415Y-3251204D01*
X2588799Y-3250538D01*
X2590162Y-3249774D01*
X2591495Y-3248918D01*
X2592790Y-3247980D01*
X2594037Y-3246966D01*
X2595226Y-3245886D01*
X2596349Y-3244746D01*
X2597396Y-3243554D01*
X2598358Y-3242319D01*
X2599226Y-3241048D01*
X2599991Y-3239750D01*
X2600643Y-3238431D01*
X2601174Y-3237100D01*
X2694081Y-3020348D01*
X2694682Y-3019051D01*
X2695188Y-3017676D01*
X2695598Y-3016235D01*
X2695914Y-3014740D01*
X2696136Y-3013203D01*
X2696265Y-3011636D01*
X2696302Y-3010050D01*
X2696247Y-3008459D01*
X2696102Y-3006872D01*
X2695866Y-3005303D01*
X2695541Y-3003763D01*
X2695128Y-3002264D01*
X2694627Y-3000818D01*
X2694039Y-2999436D01*
X2693364Y-2998131D01*
X2692604Y-2996915D01*
X2516010Y-2739527D01*
X2515629Y-2738937D01*
X2515278Y-2738329D01*
X2514955Y-2737705D01*
X2514663Y-2737067D01*
X2514399Y-2736415D01*
X2514164Y-2735750D01*
X2513782Y-2734390D01*
X2513515Y-2732997D01*
X2513363Y-2731582D01*
X2513323Y-2730156D01*
X2513397Y-2728729D01*
X2513582Y-2727313D01*
X2513879Y-2725917D01*
X2514286Y-2724553D01*
X2514802Y-2723231D01*
X2515427Y-2721963D01*
X2515780Y-2721351D01*
X2516160Y-2720758D01*
X2516566Y-2720182D01*
X2516999Y-2719627D01*
X2517459Y-2719093D01*
X2517945Y-2718582D01*
X2738513Y-2498014D01*
X2739025Y-2497528D01*
X2739558Y-2497067D01*
X2740113Y-2496634D01*
X2740688Y-2496226D01*
X2741282Y-2495846D01*
X2741892Y-2495492D01*
X2742519Y-2495165D01*
X2743160Y-2494865D01*
X2743814Y-2494592D01*
X2744480Y-2494346D01*
X2745843Y-2493937D01*
X2747237Y-2493638D01*
X2748651Y-2493451D01*
X2750076Y-2493376D01*
X2751501Y-2493414D01*
X2752914Y-2493567D01*
X2753613Y-2493686D01*
X2754306Y-2493834D01*
X2754990Y-2494012D01*
X2755664Y-2494219D01*
X2756328Y-2494454D01*
X2756980Y-2494720D01*
X2757618Y-2495015D01*
X2758242Y-2495339D01*
X2758849Y-2495694D01*
X2759439Y-2496078D01*
X3021345Y-2675807D01*
X3022556Y-2676565D01*
X3023859Y-2677239D01*
X3025241Y-2677830D01*
X3026691Y-2678336D01*
X3028195Y-2678756D01*
X3029742Y-2679091D01*
X3031320Y-2679338D01*
X3032917Y-2679497D01*
X3034519Y-2679568D01*
X3036116Y-2679548D01*
X3037694Y-2679439D01*
X3039243Y-2679238D01*
X3040748Y-2678944D01*
X3042200Y-2678558D01*
X3043584Y-2678078D01*
X3044889Y-2677504D01*
X3255003Y-2591493D01*
X3255672Y-2591255D01*
X3256338Y-2590986D01*
X3257001Y-2590686D01*
X3257660Y-2590356D01*
X3258962Y-2589613D01*
X3260237Y-2588765D01*
X3261475Y-2587822D01*
X3262670Y-2586793D01*
X3263813Y-2585686D01*
X3264897Y-2584512D01*
X3265914Y-2583278D01*
X3266856Y-2581995D01*
X3267715Y-2580670D01*
X3268483Y-2579315D01*
X3269153Y-2577936D01*
X3269716Y-2576544D01*
X3270164Y-2575148D01*
X3270343Y-2574451D01*
X3270491Y-2573756D01*
X3328846Y-2260263D01*
X3328991Y-2259574D01*
X3329170Y-2258893D01*
X3329381Y-2258223D01*
X3329624Y-2257562D01*
X3329897Y-2256913D01*
X3330200Y-2256277D01*
X3330532Y-2255653D01*
X3330890Y-2255043D01*
X3331275Y-2254448D01*
X3331686Y-2253869D01*
X3332121Y-2253306D01*
X3332578Y-2252761D01*
X3333059Y-2252233D01*
X3333560Y-2251725D01*
X3334081Y-2251237D01*
X3334622Y-2250769D01*
X3335180Y-2250324D01*
X3335756Y-2249900D01*
X3336347Y-2249501D01*
X3336954Y-2249125D01*
X3337574Y-2248774D01*
X3338207Y-2248450D01*
X3338852Y-2248152D01*
X3339508Y-2247882D01*
X3340173Y-2247641D01*
X3340847Y-2247428D01*
X3341529Y-2247247D01*
X3342217Y-2247096D01*
X3342911Y-2246977D01*
X3343610Y-2246891D01*
X3344312Y-2246839D01*
X3345016Y-2246822D01*
X3656979Y-2246822D01*
X3657682Y-2246839D01*
G37*
D12*
%TO.C,kibuzzard-693350BE*%
G36*
X11668667Y-9836470D02*
G01*
X11400427Y-9836470D01*
X11283260Y-9836470D01*
X10999998Y-9836470D01*
X10099998Y-9836470D01*
X9788410Y-9836470D01*
X9788303Y-9836470D01*
X9726653Y-9833441D01*
X9665597Y-9824384D01*
X9605722Y-9809387D01*
X9547606Y-9788592D01*
X9491808Y-9762202D01*
X9438866Y-9730469D01*
X9389288Y-9693700D01*
X9343554Y-9652249D01*
X9302102Y-9606514D01*
X9265333Y-9556937D01*
X9233601Y-9503994D01*
X9207210Y-9448196D01*
X9186416Y-9390080D01*
X9171418Y-9330206D01*
X9162361Y-9269150D01*
X9159333Y-9207500D01*
X9162361Y-9145850D01*
X9171418Y-9084794D01*
X9186416Y-9024920D01*
X9207210Y-8966804D01*
X9231910Y-8914582D01*
X9788410Y-8914582D01*
X9816736Y-8986685D01*
X9865019Y-9038830D01*
X9909440Y-9056212D01*
X9978968Y-9026599D01*
X9987337Y-9020805D01*
X9998281Y-9013723D01*
X10010513Y-9006642D01*
X10027895Y-9000204D01*
X10048496Y-8995054D01*
X10074247Y-8990547D01*
X10105148Y-8989260D01*
X10178539Y-9002135D01*
X10251285Y-9040118D01*
X10308582Y-9110290D01*
X10324998Y-9158573D01*
X10330470Y-9213294D01*
X10320652Y-9283627D01*
X10291200Y-9342693D01*
X10249515Y-9387918D01*
X10203002Y-9416727D01*
X10105148Y-9437328D01*
X10037230Y-9426706D01*
X9972530Y-9394839D01*
X9908152Y-9369088D01*
X9864376Y-9387436D01*
X9818024Y-9442479D01*
X9789697Y-9517157D01*
X9807723Y-9564152D01*
X9860513Y-9603423D01*
X9936908Y-9643480D01*
X10016736Y-9667514D01*
X10099998Y-9675526D01*
X10154558Y-9671663D01*
X10212659Y-9660075D01*
X10273496Y-9639313D01*
X10336264Y-9607929D01*
X10396618Y-9567371D01*
X10450212Y-9519088D01*
X10496082Y-9459700D01*
X10533260Y-9385826D01*
X10556304Y-9305998D01*
X10589268Y-9305998D01*
X10596350Y-9362006D01*
X10618238Y-9391620D01*
X10643345Y-9401921D01*
X10672959Y-9403852D01*
X10999998Y-9403852D01*
X11079826Y-9375526D01*
X11109440Y-9298273D01*
X11090448Y-9226491D01*
X11033474Y-9165655D01*
X10997101Y-9140547D01*
X10942058Y-9109002D01*
X10885567Y-9075365D01*
X10844848Y-9043981D01*
X10812015Y-8975097D01*
X10815234Y-8964796D01*
X10830685Y-8947414D01*
X10860942Y-8937758D01*
X10895062Y-8951921D01*
X10909225Y-8975097D01*
X10911157Y-8990547D01*
X10914376Y-9025955D01*
X10927895Y-9056212D01*
X10960727Y-9079388D01*
X11018024Y-9087114D01*
X11070813Y-9078101D01*
X11099139Y-9051062D01*
X11108796Y-9021448D01*
X11110727Y-8990547D01*
X11092702Y-8893981D01*
X11083260Y-8879818D01*
X11164805Y-8879818D01*
X11164805Y-9545483D01*
X11166736Y-9589903D01*
X11178968Y-9624667D01*
X11215019Y-9653637D01*
X11283260Y-9662650D01*
X11350212Y-9653637D01*
X11386264Y-9624024D01*
X11398496Y-9588616D01*
X11400427Y-9544195D01*
X11400427Y-8878530D01*
X11398496Y-8835397D01*
X11386264Y-8799989D01*
X11350212Y-8770376D01*
X11281972Y-8761363D01*
X11215019Y-8770376D01*
X11178968Y-8799989D01*
X11166736Y-8835397D01*
X11164805Y-8879818D01*
X11083260Y-8879818D01*
X11038624Y-8812865D01*
X10958474Y-8757822D01*
X10862230Y-8739474D01*
X10765019Y-8757661D01*
X10684547Y-8812221D01*
X10630470Y-8893498D01*
X10612444Y-8991835D01*
X10626607Y-9068802D01*
X10669097Y-9140046D01*
X10739912Y-9205569D01*
X10672959Y-9205569D01*
X10644633Y-9207500D01*
X10619526Y-9217800D01*
X10596994Y-9248058D01*
X10589268Y-9305998D01*
X10556304Y-9305998D01*
X10557884Y-9300526D01*
X10566092Y-9206856D01*
X10558045Y-9116727D01*
X10533903Y-9034324D01*
X10497208Y-8962704D01*
X10451500Y-8904925D01*
X10397906Y-8857929D01*
X10337552Y-8818659D01*
X10274461Y-8788240D01*
X10212659Y-8767800D01*
X10152948Y-8756212D01*
X10096135Y-8752350D01*
X10019454Y-8760361D01*
X9940484Y-8784396D01*
X9859225Y-8824453D01*
X9824461Y-8848916D01*
X9800642Y-8875955D01*
X9788410Y-8914582D01*
X9231910Y-8914582D01*
X9233601Y-8911006D01*
X9265333Y-8858063D01*
X9302102Y-8808486D01*
X9343554Y-8762751D01*
X9389288Y-8721300D01*
X9438866Y-8684531D01*
X9491808Y-8652798D01*
X9547606Y-8626408D01*
X9605722Y-8605613D01*
X9665597Y-8590616D01*
X9726653Y-8581559D01*
X9788303Y-8578530D01*
X9788410Y-8578530D01*
X11400427Y-8578530D01*
X11668667Y-8578530D01*
X11668667Y-9836470D01*
G37*
%TO.C,G\u002A\u002A\u002A*%
G36*
X1929007Y-57971088D02*
G01*
X2406389Y-57481274D01*
X2406389Y-57903123D01*
X1939115Y-58352623D01*
X2900967Y-58352623D01*
X2705437Y-58709179D01*
X1108197Y-58709179D01*
X1108197Y-58352623D01*
X1555025Y-58352623D01*
X1688283Y-58214485D01*
X1108197Y-57858162D01*
X1108197Y-57426321D01*
X1929007Y-57971088D01*
G37*
G36*
X2431527Y-58856327D02*
G01*
X2433934Y-58865788D01*
X2436073Y-58875316D01*
X2437904Y-58884941D01*
X2439393Y-58894691D01*
X2440502Y-58904595D01*
X2440903Y-58909614D01*
X2441195Y-58914682D01*
X2441373Y-58919802D01*
X2441434Y-58924979D01*
X2441105Y-58941645D01*
X2440125Y-58958237D01*
X2438507Y-58974739D01*
X2436262Y-58991133D01*
X2433401Y-59007404D01*
X2429935Y-59023535D01*
X2425877Y-59039509D01*
X2421236Y-59055309D01*
X2416026Y-59070920D01*
X2410257Y-59086323D01*
X2403941Y-59101503D01*
X2397089Y-59116444D01*
X2389712Y-59131127D01*
X2381823Y-59145538D01*
X2373432Y-59159659D01*
X2364551Y-59173473D01*
X2355192Y-59186965D01*
X2345366Y-59200116D01*
X2335084Y-59212912D01*
X2324357Y-59225335D01*
X2313198Y-59237368D01*
X2301618Y-59248995D01*
X2289627Y-59260199D01*
X2277239Y-59270964D01*
X2264463Y-59281274D01*
X2251311Y-59291110D01*
X2237796Y-59300458D01*
X2223928Y-59309299D01*
X2209719Y-59317619D01*
X2195180Y-59325399D01*
X2180322Y-59332624D01*
X2165158Y-59339276D01*
X2165158Y-59344156D01*
X2406347Y-59344156D01*
X2345817Y-59683169D01*
X1108154Y-59683169D01*
X1108154Y-59326613D01*
X1693120Y-59326613D01*
X1735882Y-59325561D01*
X1777377Y-59322319D01*
X1817398Y-59316759D01*
X1836792Y-59313069D01*
X1855740Y-59308752D01*
X1874217Y-59303791D01*
X1892197Y-59298170D01*
X1909655Y-59291873D01*
X1926564Y-59284884D01*
X1942899Y-59277187D01*
X1958634Y-59268766D01*
X1973743Y-59259605D01*
X1988201Y-59249687D01*
X2001983Y-59238997D01*
X2015061Y-59227519D01*
X2027411Y-59215237D01*
X2039007Y-59202134D01*
X2049823Y-59188194D01*
X2059834Y-59173402D01*
X2069013Y-59157741D01*
X2077335Y-59141195D01*
X2084774Y-59123749D01*
X2091305Y-59105386D01*
X2096902Y-59086090D01*
X2101539Y-59065844D01*
X2105190Y-59044634D01*
X2107829Y-59022443D01*
X2109432Y-58999254D01*
X2109972Y-58975053D01*
X2109734Y-58958615D01*
X2109043Y-58941600D01*
X2107938Y-58924357D01*
X2106458Y-58907233D01*
X2104640Y-58890577D01*
X2102522Y-58874739D01*
X2100143Y-58860066D01*
X2097541Y-58846906D01*
X2428886Y-58846906D01*
X2431527Y-58856327D01*
G37*
G36*
X2892072Y-56609393D02*
G01*
X2893532Y-56632571D01*
X2896853Y-56679776D01*
X2898415Y-56703607D01*
X2899715Y-56727461D01*
X2900604Y-56751238D01*
X2900934Y-56774840D01*
X2900458Y-56801713D01*
X2899044Y-56827719D01*
X2896708Y-56852859D01*
X2893468Y-56877135D01*
X2889342Y-56900547D01*
X2884346Y-56923096D01*
X2878498Y-56944783D01*
X2871816Y-56965609D01*
X2864317Y-56985575D01*
X2856019Y-57004681D01*
X2846938Y-57022929D01*
X2837094Y-57040319D01*
X2826502Y-57056852D01*
X2815180Y-57072530D01*
X2803146Y-57087352D01*
X2790417Y-57101320D01*
X2777011Y-57114435D01*
X2762946Y-57126697D01*
X2748237Y-57138108D01*
X2732904Y-57148668D01*
X2716963Y-57158378D01*
X2700432Y-57167240D01*
X2683328Y-57175253D01*
X2665669Y-57182419D01*
X2647473Y-57188739D01*
X2628756Y-57194213D01*
X2609536Y-57198843D01*
X2589830Y-57202629D01*
X2569657Y-57205572D01*
X2549033Y-57207673D01*
X2527976Y-57208933D01*
X2506503Y-57209353D01*
X2406356Y-57209353D01*
X2406356Y-57317981D01*
X2167839Y-57561029D01*
X2167839Y-57209353D01*
X1108047Y-57209353D01*
X1108047Y-56852797D01*
X2167839Y-56852797D01*
X2167839Y-56606844D01*
X2406356Y-56606844D01*
X2406356Y-56852797D01*
X2484080Y-56852797D01*
X2503551Y-56852349D01*
X2521472Y-56850983D01*
X2529864Y-56849945D01*
X2537883Y-56848666D01*
X2545536Y-56847140D01*
X2552826Y-56845365D01*
X2559760Y-56843335D01*
X2566341Y-56841047D01*
X2572575Y-56838496D01*
X2578468Y-56835679D01*
X2584024Y-56832591D01*
X2589248Y-56829228D01*
X2594145Y-56825586D01*
X2598721Y-56821661D01*
X2602980Y-56817448D01*
X2606928Y-56812944D01*
X2610569Y-56808145D01*
X2613909Y-56803046D01*
X2616953Y-56797643D01*
X2619705Y-56791932D01*
X2622171Y-56785910D01*
X2624356Y-56779571D01*
X2626266Y-56772912D01*
X2627904Y-56765928D01*
X2629276Y-56758616D01*
X2630387Y-56750971D01*
X2631243Y-56742990D01*
X2631848Y-56734667D01*
X2632326Y-56716983D01*
X2632211Y-56700955D01*
X2631863Y-56684721D01*
X2631278Y-56668345D01*
X2630452Y-56651893D01*
X2629381Y-56635430D01*
X2628062Y-56619021D01*
X2626488Y-56602733D01*
X2624658Y-56586629D01*
X2890942Y-56586629D01*
X2892072Y-56609393D01*
G37*
G36*
X2406315Y-55645419D02*
G01*
X1725850Y-55645419D01*
X1678254Y-55646395D01*
X1655801Y-55647623D01*
X1634233Y-55649352D01*
X1613541Y-55651585D01*
X1593716Y-55654329D01*
X1574750Y-55657588D01*
X1556634Y-55661368D01*
X1539359Y-55665674D01*
X1522918Y-55670512D01*
X1507300Y-55675885D01*
X1492497Y-55681799D01*
X1478502Y-55688260D01*
X1465304Y-55695273D01*
X1452895Y-55702842D01*
X1441268Y-55710974D01*
X1430412Y-55719672D01*
X1420319Y-55728943D01*
X1410981Y-55738790D01*
X1402389Y-55749221D01*
X1394535Y-55760239D01*
X1387408Y-55771850D01*
X1381002Y-55784059D01*
X1375307Y-55796870D01*
X1370314Y-55810291D01*
X1366015Y-55824324D01*
X1362402Y-55838976D01*
X1359465Y-55854252D01*
X1357195Y-55870157D01*
X1355585Y-55886695D01*
X1354625Y-55903873D01*
X1354307Y-55921695D01*
X1354616Y-55937130D01*
X1355543Y-55951944D01*
X1357088Y-55966143D01*
X1359252Y-55979738D01*
X1362036Y-55992736D01*
X1365440Y-56005146D01*
X1369464Y-56016978D01*
X1374109Y-56028239D01*
X1379375Y-56038939D01*
X1385264Y-56049085D01*
X1391775Y-56058688D01*
X1398909Y-56067755D01*
X1406667Y-56076295D01*
X1415049Y-56084317D01*
X1424056Y-56091829D01*
X1433687Y-56098840D01*
X1443944Y-56105359D01*
X1454828Y-56111395D01*
X1466337Y-56116956D01*
X1478474Y-56122051D01*
X1504632Y-56130877D01*
X1533304Y-56137942D01*
X1564495Y-56143316D01*
X1598208Y-56147069D01*
X1634449Y-56149270D01*
X1673221Y-56149988D01*
X2406315Y-56149988D01*
X2406315Y-56506659D01*
X1607695Y-56506659D01*
X1548733Y-56505496D01*
X1492458Y-56501821D01*
X1439023Y-56495358D01*
X1388584Y-56485833D01*
X1364535Y-56479835D01*
X1341293Y-56472968D01*
X1318877Y-56465197D01*
X1297306Y-56456488D01*
X1276599Y-56446807D01*
X1256776Y-56436118D01*
X1237856Y-56424388D01*
X1219858Y-56411581D01*
X1202802Y-56397664D01*
X1186706Y-56382602D01*
X1171590Y-56366360D01*
X1157474Y-56348904D01*
X1144376Y-56330199D01*
X1132316Y-56310212D01*
X1121313Y-56288907D01*
X1111386Y-56266249D01*
X1102555Y-56242206D01*
X1094839Y-56216741D01*
X1088257Y-56189821D01*
X1082829Y-56161411D01*
X1078574Y-56131476D01*
X1075510Y-56099983D01*
X1073658Y-56066896D01*
X1073036Y-56032181D01*
X1073834Y-56003865D01*
X1076241Y-55975535D01*
X1080274Y-55947294D01*
X1085952Y-55919248D01*
X1093293Y-55891497D01*
X1102315Y-55864148D01*
X1113037Y-55837301D01*
X1125477Y-55811063D01*
X1139652Y-55785534D01*
X1155582Y-55760820D01*
X1164210Y-55748801D01*
X1173283Y-55737024D01*
X1182805Y-55725502D01*
X1192776Y-55714248D01*
X1203199Y-55703276D01*
X1214077Y-55692598D01*
X1225411Y-55682226D01*
X1237205Y-55672175D01*
X1249459Y-55662457D01*
X1262178Y-55653084D01*
X1275362Y-55644070D01*
X1289014Y-55635428D01*
X1289014Y-55627876D01*
X1108122Y-55627876D01*
X1108122Y-55288747D01*
X2406315Y-55288747D01*
X2406315Y-55645419D01*
G37*
G36*
X1965636Y-53875218D02*
G01*
X2021897Y-53878893D01*
X2075322Y-53885356D01*
X2125756Y-53894882D01*
X2149803Y-53900879D01*
X2173044Y-53907746D01*
X2195460Y-53915517D01*
X2217032Y-53924226D01*
X2237739Y-53933907D01*
X2257564Y-53944596D01*
X2276486Y-53956327D01*
X2294487Y-53969133D01*
X2311546Y-53983050D01*
X2327645Y-53998113D01*
X2342764Y-54014354D01*
X2356884Y-54031810D01*
X2369986Y-54050515D01*
X2382049Y-54070503D01*
X2393056Y-54091808D01*
X2402986Y-54114465D01*
X2411820Y-54138509D01*
X2419539Y-54163973D01*
X2426124Y-54190893D01*
X2431555Y-54219303D01*
X2435812Y-54249238D01*
X2438877Y-54280731D01*
X2440731Y-54313818D01*
X2441353Y-54348533D01*
X2440555Y-54376867D01*
X2438148Y-54405208D01*
X2434116Y-54433453D01*
X2428439Y-54461499D01*
X2421099Y-54489245D01*
X2412079Y-54516587D01*
X2401361Y-54543423D01*
X2388927Y-54569651D01*
X2374757Y-54595169D01*
X2358836Y-54619873D01*
X2350212Y-54631889D01*
X2341143Y-54643662D01*
X2331628Y-54655181D01*
X2321662Y-54666433D01*
X2311245Y-54677404D01*
X2300375Y-54688083D01*
X2289048Y-54698456D01*
X2277262Y-54708510D01*
X2265016Y-54718233D01*
X2252307Y-54727612D01*
X2239133Y-54736634D01*
X2225491Y-54745286D01*
X2225491Y-54752955D01*
X2406267Y-54752955D01*
X2406267Y-55091851D01*
X1108074Y-55091851D01*
X1108074Y-54735063D01*
X1788422Y-54735063D01*
X1836059Y-54734088D01*
X1858530Y-54732862D01*
X1880116Y-54731136D01*
X1900824Y-54728906D01*
X1920664Y-54726165D01*
X1939644Y-54722910D01*
X1957773Y-54719135D01*
X1975059Y-54714835D01*
X1991512Y-54710005D01*
X2007139Y-54704638D01*
X2021951Y-54698732D01*
X2035955Y-54692279D01*
X2049160Y-54685276D01*
X2061575Y-54677716D01*
X2073208Y-54669596D01*
X2084069Y-54660908D01*
X2094166Y-54651650D01*
X2103508Y-54641814D01*
X2112104Y-54631397D01*
X2119961Y-54620393D01*
X2127090Y-54608797D01*
X2133498Y-54596604D01*
X2139195Y-54583808D01*
X2144189Y-54570404D01*
X2148488Y-54556388D01*
X2152103Y-54541754D01*
X2155040Y-54526497D01*
X2157310Y-54510612D01*
X2158920Y-54494093D01*
X2159880Y-54476936D01*
X2160198Y-54459136D01*
X2159889Y-54443700D01*
X2158961Y-54428885D01*
X2157414Y-54414682D01*
X2155248Y-54401083D01*
X2152462Y-54388080D01*
X2149055Y-54375663D01*
X2145027Y-54363824D01*
X2140378Y-54352555D01*
X2135108Y-54341847D01*
X2129214Y-54331691D01*
X2122698Y-54322079D01*
X2115559Y-54313002D01*
X2107796Y-54304452D01*
X2099409Y-54296420D01*
X2090397Y-54288897D01*
X2080760Y-54281874D01*
X2070497Y-54275344D01*
X2059609Y-54269298D01*
X2048093Y-54263726D01*
X2035951Y-54258621D01*
X2009784Y-54249775D01*
X1981103Y-54242692D01*
X1949905Y-54237303D01*
X1916185Y-54233539D01*
X1879941Y-54231330D01*
X1841168Y-54230610D01*
X1108074Y-54230610D01*
X1108074Y-53874055D01*
X1906694Y-53874055D01*
X1965636Y-53875218D01*
G37*
G36*
X1812088Y-61210277D02*
G01*
X1879370Y-61216791D01*
X1944867Y-61227719D01*
X1976814Y-61234857D01*
X2008155Y-61243120D01*
X2038839Y-61252516D01*
X2068812Y-61263053D01*
X2098021Y-61274737D01*
X2126413Y-61287576D01*
X2153936Y-61301577D01*
X2180537Y-61316748D01*
X2206162Y-61333096D01*
X2230759Y-61350628D01*
X2254276Y-61369352D01*
X2276658Y-61389275D01*
X2297853Y-61410404D01*
X2317809Y-61432746D01*
X2336473Y-61456310D01*
X2353790Y-61481102D01*
X2369710Y-61507130D01*
X2384178Y-61534401D01*
X2397143Y-61562922D01*
X2408550Y-61592701D01*
X2418347Y-61623745D01*
X2426482Y-61656061D01*
X2432901Y-61689657D01*
X2437551Y-61724540D01*
X2440380Y-61760717D01*
X2441335Y-61798196D01*
X2440626Y-61828051D01*
X2438479Y-61857334D01*
X2434865Y-61886007D01*
X2429752Y-61914027D01*
X2423110Y-61941356D01*
X2414911Y-61967954D01*
X2405123Y-61993779D01*
X2399624Y-62006390D01*
X2393716Y-62018792D01*
X2387396Y-62030982D01*
X2380661Y-62042953D01*
X2373505Y-62054702D01*
X2365926Y-62066222D01*
X2357920Y-62077509D01*
X2349483Y-62088558D01*
X2340611Y-62099364D01*
X2331300Y-62109921D01*
X2321548Y-62120225D01*
X2311349Y-62130271D01*
X2300700Y-62140054D01*
X2289598Y-62149568D01*
X2278038Y-62158809D01*
X2266017Y-62167772D01*
X2253531Y-62176451D01*
X2240577Y-62184842D01*
X2240577Y-62189838D01*
X2406249Y-62189838D01*
X2345836Y-62528967D01*
X1753435Y-62528967D01*
X651121Y-62528967D01*
X333949Y-62172411D01*
X1268616Y-62172411D01*
X1268616Y-62167183D01*
X1245359Y-62150098D01*
X1223518Y-62131776D01*
X1203105Y-62112274D01*
X1184132Y-62091652D01*
X1166610Y-62069968D01*
X1150551Y-62047280D01*
X1135967Y-62023648D01*
X1122869Y-61999129D01*
X1111268Y-61973783D01*
X1101177Y-61947667D01*
X1092606Y-61920840D01*
X1085568Y-61893362D01*
X1081677Y-61873481D01*
X1341810Y-61873481D01*
X1342392Y-61894725D01*
X1344116Y-61915097D01*
X1346946Y-61934608D01*
X1350848Y-61953272D01*
X1355786Y-61971102D01*
X1361727Y-61988110D01*
X1368634Y-62004311D01*
X1376473Y-62019716D01*
X1385209Y-62034340D01*
X1394807Y-62048195D01*
X1405233Y-62061293D01*
X1416451Y-62073649D01*
X1428426Y-62085275D01*
X1441124Y-62096184D01*
X1454509Y-62106390D01*
X1468547Y-62115904D01*
X1483203Y-62124741D01*
X1498442Y-62132914D01*
X1530528Y-62147317D01*
X1564527Y-62159218D01*
X1600159Y-62168721D01*
X1637145Y-62175930D01*
X1675206Y-62180951D01*
X1714062Y-62183887D01*
X1753435Y-62184842D01*
X1792874Y-62183940D01*
X1831959Y-62181151D01*
X1870389Y-62176355D01*
X1907859Y-62169429D01*
X1926141Y-62165129D01*
X1944069Y-62160251D01*
X1961607Y-62154781D01*
X1978716Y-62148701D01*
X1995359Y-62141998D01*
X2011498Y-62134656D01*
X2027095Y-62126661D01*
X2042112Y-62117995D01*
X2056512Y-62108646D01*
X2070257Y-62098597D01*
X2083309Y-62087832D01*
X2095630Y-62076338D01*
X2107182Y-62064098D01*
X2117928Y-62051098D01*
X2127830Y-62037322D01*
X2136850Y-62022755D01*
X2144950Y-62007382D01*
X2152093Y-61991188D01*
X2158241Y-61974157D01*
X2163355Y-61956274D01*
X2167399Y-61937524D01*
X2170334Y-61917892D01*
X2172123Y-61897362D01*
X2172728Y-61875920D01*
X2172116Y-61854932D01*
X2170308Y-61834785D01*
X2167341Y-61815470D01*
X2163255Y-61796973D01*
X2158090Y-61779284D01*
X2151884Y-61762391D01*
X2144677Y-61746282D01*
X2136507Y-61730946D01*
X2127414Y-61716372D01*
X2117437Y-61702547D01*
X2106615Y-61689461D01*
X2094986Y-61677102D01*
X2082592Y-61665458D01*
X2069469Y-61654518D01*
X2055658Y-61644270D01*
X2041198Y-61634702D01*
X2026127Y-61625804D01*
X2010485Y-61617563D01*
X1977644Y-61603009D01*
X1942988Y-61590947D01*
X1906830Y-61581285D01*
X1869483Y-61573930D01*
X1831259Y-61568791D01*
X1792472Y-61565776D01*
X1753435Y-61564791D01*
X1714062Y-61565692D01*
X1675206Y-61568477D01*
X1637145Y-61573267D01*
X1600159Y-61580185D01*
X1582156Y-61584479D01*
X1564527Y-61589351D01*
X1547306Y-61594816D01*
X1530528Y-61600889D01*
X1514228Y-61607585D01*
X1498442Y-61614920D01*
X1483203Y-61622908D01*
X1468547Y-61631565D01*
X1454509Y-61640906D01*
X1441124Y-61650947D01*
X1428426Y-61661702D01*
X1416451Y-61673188D01*
X1405233Y-61685418D01*
X1394807Y-61698408D01*
X1385209Y-61712174D01*
X1376473Y-61726731D01*
X1368634Y-61742094D01*
X1361727Y-61758278D01*
X1355786Y-61775298D01*
X1350848Y-61793170D01*
X1346946Y-61811909D01*
X1344116Y-61831531D01*
X1342392Y-61852049D01*
X1341810Y-61873481D01*
X1081677Y-61873481D01*
X1080074Y-61865290D01*
X1076135Y-61836682D01*
X1073763Y-61807599D01*
X1072970Y-61778097D01*
X1073909Y-61742883D01*
X1076691Y-61708802D01*
X1081259Y-61675851D01*
X1087560Y-61644030D01*
X1095537Y-61613339D01*
X1105136Y-61583775D01*
X1116302Y-61555339D01*
X1128979Y-61528029D01*
X1143113Y-61501845D01*
X1158648Y-61476785D01*
X1175529Y-61452848D01*
X1193702Y-61430035D01*
X1213110Y-61408343D01*
X1233700Y-61387772D01*
X1255415Y-61368321D01*
X1278201Y-61349989D01*
X1302003Y-61332775D01*
X1326765Y-61316678D01*
X1352433Y-61301698D01*
X1378951Y-61287833D01*
X1434318Y-61263446D01*
X1492426Y-61243508D01*
X1552833Y-61228015D01*
X1615099Y-61216957D01*
X1678782Y-61210327D01*
X1743443Y-61208119D01*
X1812088Y-61210277D01*
G37*
G36*
X1118676Y-59845877D02*
G01*
X1130750Y-59851286D01*
X1144162Y-59856249D01*
X1158817Y-59860777D01*
X1174619Y-59864879D01*
X1191473Y-59868568D01*
X1209281Y-59871854D01*
X1227950Y-59874747D01*
X1267482Y-59879402D01*
X1309303Y-59882619D01*
X1352646Y-59884485D01*
X1396744Y-59885087D01*
X2072446Y-59885087D01*
X2100889Y-59885989D01*
X2127881Y-59888649D01*
X2153458Y-59893000D01*
X2177658Y-59898977D01*
X2200515Y-59906511D01*
X2222065Y-59915538D01*
X2242344Y-59925989D01*
X2261389Y-59937799D01*
X2279235Y-59950900D01*
X2295917Y-59965225D01*
X2311473Y-59980710D01*
X2325937Y-59997285D01*
X2339346Y-60014885D01*
X2351735Y-60033444D01*
X2363141Y-60052893D01*
X2373599Y-60073168D01*
X2391815Y-60115924D01*
X2406671Y-60161179D01*
X2418453Y-60208399D01*
X2427450Y-60257050D01*
X2433947Y-60306599D01*
X2438233Y-60356512D01*
X2440594Y-60406256D01*
X2441317Y-60455298D01*
X2440080Y-60509928D01*
X2436246Y-60564316D01*
X2429633Y-60618042D01*
X2420054Y-60670688D01*
X2414096Y-60696474D01*
X2407327Y-60721833D01*
X2399726Y-60746712D01*
X2391268Y-60771058D01*
X2381931Y-60794820D01*
X2371693Y-60817944D01*
X2360529Y-60840379D01*
X2348417Y-60862072D01*
X2335334Y-60882971D01*
X2321256Y-60903022D01*
X2306162Y-60922175D01*
X2290028Y-60940376D01*
X2272831Y-60957572D01*
X2254547Y-60973712D01*
X2235155Y-60988744D01*
X2214630Y-61002614D01*
X2192951Y-61015270D01*
X2170093Y-61026660D01*
X2146034Y-61036731D01*
X2120752Y-61045431D01*
X2094222Y-61052708D01*
X2066422Y-61058509D01*
X2037329Y-61062782D01*
X2006920Y-61065474D01*
X2006920Y-60708802D01*
X2019851Y-60707413D01*
X2032289Y-60705600D01*
X2044240Y-60703369D01*
X2055708Y-60700721D01*
X2066700Y-60697662D01*
X2077220Y-60694194D01*
X2087275Y-60690321D01*
X2096869Y-60686047D01*
X2106008Y-60681376D01*
X2114697Y-60676311D01*
X2122942Y-60670856D01*
X2130749Y-60665015D01*
X2138121Y-60658791D01*
X2145066Y-60652188D01*
X2151588Y-60645210D01*
X2157693Y-60637860D01*
X2163386Y-60630142D01*
X2168672Y-60622060D01*
X2173558Y-60613617D01*
X2178047Y-60604818D01*
X2182147Y-60595665D01*
X2185862Y-60586163D01*
X2189197Y-60576315D01*
X2192158Y-60566124D01*
X2196980Y-60544732D01*
X2200371Y-60522015D01*
X2202374Y-60498003D01*
X2203032Y-60472725D01*
X2202711Y-60449473D01*
X2201649Y-60426809D01*
X2199701Y-60404860D01*
X2196720Y-60383751D01*
X2194796Y-60373551D01*
X2192559Y-60363608D01*
X2189990Y-60353938D01*
X2187072Y-60344557D01*
X2183785Y-60335480D01*
X2180112Y-60326723D01*
X2176034Y-60318302D01*
X2171533Y-60310233D01*
X2166590Y-60302531D01*
X2161188Y-60295211D01*
X2155307Y-60288291D01*
X2148930Y-60281785D01*
X2142039Y-60275709D01*
X2134614Y-60270079D01*
X2126638Y-60264910D01*
X2118092Y-60260219D01*
X2108958Y-60256021D01*
X2099218Y-60252332D01*
X2088854Y-60249167D01*
X2077846Y-60246542D01*
X2066177Y-60244473D01*
X2053829Y-60242976D01*
X2040783Y-60242066D01*
X2027020Y-60241759D01*
X2001458Y-60242915D01*
X1979178Y-60248956D01*
X1959903Y-60259560D01*
X1943355Y-60274406D01*
X1929258Y-60293171D01*
X1917334Y-60315534D01*
X1907306Y-60341173D01*
X1898897Y-60369766D01*
X1885828Y-60434527D01*
X1875910Y-60507242D01*
X1856657Y-60666237D01*
X1842888Y-60747367D01*
X1833998Y-60787213D01*
X1823402Y-60826152D01*
X1810822Y-60863860D01*
X1795982Y-60900017D01*
X1778603Y-60934301D01*
X1758410Y-60966389D01*
X1735125Y-60995960D01*
X1708470Y-61022692D01*
X1678169Y-61046263D01*
X1643945Y-61066351D01*
X1605520Y-61082635D01*
X1562617Y-61094792D01*
X1514959Y-61102501D01*
X1477141Y-61104610D01*
X1462269Y-61105440D01*
X1437714Y-61104878D01*
X1413996Y-61103209D01*
X1391111Y-61100459D01*
X1369055Y-61096653D01*
X1347825Y-61091815D01*
X1327417Y-61085972D01*
X1307827Y-61079148D01*
X1289051Y-61071368D01*
X1271086Y-61062659D01*
X1253928Y-61053045D01*
X1237572Y-61042551D01*
X1222016Y-61031203D01*
X1207256Y-61019026D01*
X1193287Y-61006045D01*
X1180107Y-60992286D01*
X1167710Y-60977773D01*
X1156094Y-60962532D01*
X1145255Y-60946588D01*
X1135189Y-60929967D01*
X1125892Y-60912694D01*
X1117360Y-60894793D01*
X1109590Y-60876291D01*
X1102578Y-60857212D01*
X1096320Y-60837582D01*
X1086051Y-60796769D01*
X1078753Y-60754053D01*
X1074397Y-60709638D01*
X1072951Y-60663724D01*
X1073458Y-60633540D01*
X1075009Y-60603378D01*
X1077654Y-60573316D01*
X1081440Y-60543433D01*
X1083637Y-60530350D01*
X1311468Y-60530350D01*
X1311894Y-60551876D01*
X1313231Y-60572973D01*
X1315567Y-60593508D01*
X1318991Y-60613349D01*
X1321138Y-60622968D01*
X1323591Y-60632364D01*
X1326360Y-60641520D01*
X1329456Y-60650420D01*
X1332891Y-60659047D01*
X1336674Y-60667385D01*
X1340819Y-60675417D01*
X1345335Y-60683126D01*
X1350233Y-60690497D01*
X1355525Y-60697511D01*
X1361222Y-60704154D01*
X1367334Y-60710408D01*
X1373874Y-60716257D01*
X1380851Y-60721684D01*
X1388277Y-60726673D01*
X1396163Y-60731206D01*
X1404521Y-60735269D01*
X1413360Y-60738843D01*
X1422693Y-60741913D01*
X1432529Y-60744462D01*
X1442882Y-60746474D01*
X1453760Y-60747931D01*
X1465176Y-60748817D01*
X1477141Y-60749116D01*
X1489111Y-60748824D01*
X1500566Y-60747959D01*
X1511519Y-60746538D01*
X1521982Y-60744577D01*
X1531969Y-60742093D01*
X1541492Y-60739103D01*
X1550563Y-60735623D01*
X1559196Y-60731669D01*
X1567404Y-60727259D01*
X1575198Y-60722409D01*
X1582592Y-60717136D01*
X1589598Y-60711456D01*
X1596229Y-60705385D01*
X1602498Y-60698942D01*
X1608418Y-60692141D01*
X1614001Y-60685000D01*
X1619260Y-60677535D01*
X1624207Y-60669763D01*
X1633219Y-60653365D01*
X1641138Y-60635937D01*
X1648067Y-60617614D01*
X1654106Y-60598527D01*
X1659359Y-60578810D01*
X1663925Y-60558596D01*
X1667908Y-60538018D01*
X1693424Y-60371067D01*
X1697286Y-60351612D01*
X1701631Y-60332863D01*
X1706558Y-60314936D01*
X1712167Y-60297950D01*
X1718558Y-60282022D01*
X1725832Y-60267269D01*
X1729831Y-60260370D01*
X1734087Y-60253809D01*
X1738615Y-60247601D01*
X1743425Y-60241759D01*
X1610167Y-60241759D01*
X1574316Y-60242733D01*
X1552833Y-60244518D01*
X1529676Y-60247674D01*
X1505367Y-60252579D01*
X1480428Y-60259612D01*
X1467887Y-60264046D01*
X1455384Y-60269153D01*
X1442985Y-60274982D01*
X1430756Y-60281580D01*
X1418762Y-60288994D01*
X1407067Y-60297272D01*
X1395739Y-60306460D01*
X1384841Y-60316607D01*
X1374440Y-60327759D01*
X1364600Y-60339965D01*
X1355387Y-60353270D01*
X1346867Y-60367724D01*
X1339104Y-60383372D01*
X1332164Y-60400263D01*
X1326113Y-60418443D01*
X1321015Y-60437961D01*
X1316936Y-60458863D01*
X1313942Y-60481197D01*
X1312098Y-60505010D01*
X1311468Y-60530350D01*
X1083637Y-60530350D01*
X1086416Y-60513805D01*
X1092630Y-60484509D01*
X1100131Y-60455624D01*
X1108967Y-60427226D01*
X1119186Y-60399393D01*
X1130837Y-60372203D01*
X1143968Y-60345732D01*
X1158627Y-60320059D01*
X1174862Y-60295261D01*
X1192723Y-60271415D01*
X1212257Y-60248598D01*
X1233512Y-60226888D01*
X1217594Y-60225509D01*
X1201670Y-60223499D01*
X1185775Y-60220915D01*
X1169947Y-60217812D01*
X1154222Y-60214246D01*
X1138638Y-60210273D01*
X1123231Y-60205949D01*
X1108037Y-60201329D01*
X1108037Y-59840009D01*
X1118676Y-59845877D01*
G37*
G36*
X1546994Y-62671949D02*
G01*
X1568158Y-62673695D01*
X1588403Y-62676561D01*
X1607753Y-62680511D01*
X1626235Y-62685508D01*
X1643872Y-62691515D01*
X1660692Y-62698496D01*
X1676718Y-62706416D01*
X1691976Y-62715236D01*
X1706492Y-62724921D01*
X1720290Y-62735435D01*
X1733396Y-62746741D01*
X1745836Y-62758802D01*
X1757634Y-62771583D01*
X1768815Y-62785046D01*
X1779406Y-62799156D01*
X1798916Y-62829169D01*
X1816365Y-62861330D01*
X1831956Y-62895349D01*
X1845890Y-62930933D01*
X1858370Y-62967792D01*
X1869599Y-63005633D01*
X1879778Y-63044166D01*
X1889109Y-63083100D01*
X1897704Y-63120746D01*
X1905807Y-63158155D01*
X1921354Y-63231053D01*
X1929208Y-63265936D01*
X1937389Y-63299373D01*
X1946101Y-63331061D01*
X1955549Y-63360697D01*
X1960613Y-63374651D01*
X1965938Y-63387979D01*
X1971549Y-63400642D01*
X1977472Y-63412604D01*
X1983733Y-63423826D01*
X1990357Y-63434271D01*
X1997370Y-63443900D01*
X2004797Y-63452676D01*
X2012664Y-63460562D01*
X2020996Y-63467518D01*
X2029820Y-63473508D01*
X2039160Y-63478494D01*
X2049042Y-63482438D01*
X2059493Y-63485301D01*
X2070537Y-63487047D01*
X2082200Y-63487638D01*
X2092053Y-63487296D01*
X2101362Y-63486291D01*
X2110144Y-63484651D01*
X2118413Y-63482404D01*
X2126184Y-63479578D01*
X2133472Y-63476204D01*
X2140293Y-63472308D01*
X2146661Y-63467920D01*
X2152592Y-63463067D01*
X2158101Y-63457780D01*
X2163202Y-63452086D01*
X2167912Y-63446013D01*
X2172244Y-63439591D01*
X2176215Y-63432847D01*
X2179839Y-63425811D01*
X2183131Y-63418511D01*
X2188781Y-63403232D01*
X2193285Y-63387240D01*
X2196765Y-63370762D01*
X2199341Y-63354027D01*
X2201135Y-63337264D01*
X2202266Y-63320700D01*
X2202857Y-63304565D01*
X2203026Y-63289086D01*
X2202567Y-63265364D01*
X2201129Y-63242278D01*
X2198621Y-63219936D01*
X2194950Y-63198442D01*
X2192651Y-63188047D01*
X2190026Y-63177904D01*
X2187066Y-63168026D01*
X2183758Y-63158427D01*
X2180091Y-63149119D01*
X2176054Y-63140117D01*
X2171634Y-63131433D01*
X2166822Y-63123080D01*
X2161605Y-63115072D01*
X2155971Y-63107422D01*
X2149910Y-63100144D01*
X2143411Y-63093250D01*
X2136460Y-63086753D01*
X2129048Y-63080668D01*
X2121163Y-63075007D01*
X2112793Y-63069784D01*
X2103927Y-63065012D01*
X2094553Y-63060703D01*
X2084661Y-63056872D01*
X2074238Y-63053532D01*
X2063273Y-63050695D01*
X2051755Y-63048376D01*
X2039673Y-63046587D01*
X2027014Y-63045341D01*
X2027014Y-62706445D01*
X2056271Y-62709732D01*
X2084241Y-62714360D01*
X2110947Y-62720290D01*
X2136412Y-62727482D01*
X2160661Y-62735895D01*
X2183715Y-62745490D01*
X2205600Y-62756228D01*
X2226339Y-62768067D01*
X2245954Y-62780969D01*
X2264471Y-62794893D01*
X2281911Y-62809800D01*
X2298299Y-62825649D01*
X2313658Y-62842401D01*
X2328012Y-62860017D01*
X2341385Y-62878455D01*
X2353799Y-62897677D01*
X2365278Y-62917641D01*
X2375847Y-62938310D01*
X2394344Y-62981598D01*
X2409480Y-63027221D01*
X2421441Y-63074862D01*
X2430417Y-63124200D01*
X2436595Y-63174917D01*
X2440164Y-63226693D01*
X2441311Y-63279211D01*
X2440273Y-63331484D01*
X2437000Y-63383499D01*
X2431256Y-63434827D01*
X2422806Y-63485036D01*
X2417493Y-63509588D01*
X2411414Y-63533698D01*
X2404541Y-63557315D01*
X2396844Y-63580384D01*
X2388294Y-63602851D01*
X2378860Y-63624662D01*
X2368514Y-63645765D01*
X2357226Y-63666104D01*
X2344967Y-63685627D01*
X2331707Y-63704280D01*
X2317416Y-63722009D01*
X2302066Y-63738760D01*
X2285626Y-63754480D01*
X2268067Y-63769114D01*
X2249360Y-63782610D01*
X2229476Y-63794913D01*
X2208384Y-63805970D01*
X2186055Y-63815727D01*
X2162460Y-63824130D01*
X2137569Y-63831126D01*
X2111353Y-63836661D01*
X2083782Y-63840681D01*
X2054827Y-63843132D01*
X2024458Y-63843961D01*
X2003289Y-63843371D01*
X1983049Y-63841627D01*
X1963712Y-63838763D01*
X1945251Y-63834818D01*
X1927640Y-63829826D01*
X1910854Y-63823824D01*
X1894866Y-63816849D01*
X1879649Y-63808936D01*
X1865178Y-63800123D01*
X1851426Y-63790445D01*
X1838368Y-63779938D01*
X1825976Y-63768640D01*
X1814226Y-63756585D01*
X1803090Y-63743811D01*
X1792542Y-63730354D01*
X1782557Y-63716250D01*
X1764169Y-63686247D01*
X1747715Y-63654091D01*
X1732987Y-63620073D01*
X1719775Y-63584484D01*
X1707869Y-63547614D01*
X1697059Y-63509753D01*
X1677894Y-63432220D01*
X1668171Y-63385884D01*
X1658617Y-63342030D01*
X1649115Y-63300729D01*
X1639547Y-63262051D01*
X1629797Y-63226065D01*
X1619748Y-63192841D01*
X1614574Y-63177286D01*
X1609281Y-63162449D01*
X1603856Y-63148337D01*
X1598282Y-63134959D01*
X1592545Y-63122325D01*
X1586631Y-63110442D01*
X1580525Y-63099319D01*
X1574212Y-63088966D01*
X1567679Y-63079391D01*
X1560909Y-63070603D01*
X1553889Y-63062610D01*
X1546603Y-63055421D01*
X1539038Y-63049046D01*
X1531179Y-63043492D01*
X1523010Y-63038768D01*
X1514518Y-63034884D01*
X1505687Y-63031848D01*
X1496504Y-63029668D01*
X1486953Y-63028354D01*
X1477019Y-63027914D01*
X1465505Y-63028299D01*
X1454482Y-63029434D01*
X1443944Y-63031288D01*
X1433881Y-63033831D01*
X1424285Y-63037033D01*
X1415147Y-63040863D01*
X1406461Y-63045291D01*
X1398217Y-63050286D01*
X1390406Y-63055818D01*
X1383022Y-63061857D01*
X1376054Y-63068373D01*
X1369496Y-63075334D01*
X1363339Y-63082712D01*
X1357574Y-63090474D01*
X1352193Y-63098591D01*
X1347188Y-63107033D01*
X1338273Y-63124768D01*
X1330762Y-63143436D01*
X1324588Y-63162794D01*
X1319686Y-63182600D01*
X1315989Y-63202610D01*
X1313430Y-63222582D01*
X1311944Y-63242271D01*
X1311463Y-63261436D01*
X1312235Y-63287256D01*
X1314573Y-63312829D01*
X1318509Y-63337959D01*
X1321086Y-63350297D01*
X1324076Y-63362450D01*
X1327481Y-63374395D01*
X1331307Y-63386107D01*
X1335556Y-63397561D01*
X1340234Y-63408733D01*
X1345344Y-63419598D01*
X1350890Y-63430133D01*
X1356877Y-63440312D01*
X1363308Y-63450111D01*
X1370188Y-63459506D01*
X1377521Y-63468472D01*
X1385310Y-63476985D01*
X1393560Y-63485020D01*
X1402275Y-63492553D01*
X1411460Y-63499559D01*
X1421117Y-63506014D01*
X1431252Y-63511894D01*
X1441867Y-63517173D01*
X1452969Y-63521828D01*
X1464559Y-63525834D01*
X1476643Y-63529166D01*
X1489225Y-63531800D01*
X1502309Y-63533712D01*
X1515898Y-63534877D01*
X1529997Y-63535271D01*
X1529997Y-63874052D01*
X1498399Y-63872053D01*
X1468135Y-63868442D01*
X1439184Y-63863272D01*
X1411523Y-63856592D01*
X1385132Y-63848454D01*
X1359988Y-63838909D01*
X1336070Y-63828008D01*
X1313356Y-63815802D01*
X1291825Y-63802342D01*
X1271453Y-63787679D01*
X1252221Y-63771865D01*
X1234106Y-63754949D01*
X1217086Y-63736984D01*
X1201140Y-63718020D01*
X1186245Y-63698109D01*
X1172381Y-63677301D01*
X1159526Y-63655648D01*
X1147657Y-63633200D01*
X1126793Y-63586125D01*
X1109616Y-63536486D01*
X1095951Y-63484690D01*
X1085626Y-63431145D01*
X1078466Y-63376261D01*
X1074297Y-63320446D01*
X1072946Y-63264108D01*
X1074269Y-63209031D01*
X1078356Y-63154280D01*
X1085383Y-63100300D01*
X1095528Y-63047536D01*
X1101826Y-63021749D01*
X1108969Y-62996434D01*
X1116979Y-62971645D01*
X1125880Y-62947439D01*
X1135694Y-62923870D01*
X1146441Y-62900996D01*
X1158145Y-62878871D01*
X1170827Y-62857551D01*
X1184511Y-62837092D01*
X1199217Y-62817549D01*
X1214967Y-62798979D01*
X1231785Y-62781436D01*
X1249693Y-62764977D01*
X1268711Y-62749657D01*
X1288863Y-62735532D01*
X1310171Y-62722657D01*
X1332656Y-62711089D01*
X1356341Y-62700882D01*
X1381248Y-62692093D01*
X1407399Y-62684777D01*
X1434816Y-62678990D01*
X1463521Y-62674787D01*
X1493537Y-62672225D01*
X1524885Y-62671358D01*
X1546994Y-62671949D01*
G37*
G36*
X4123844Y-56420064D02*
G01*
X4162417Y-56423043D01*
X4200147Y-56427838D01*
X4272725Y-56442453D01*
X4340874Y-56463062D01*
X4403886Y-56488815D01*
X4461055Y-56518864D01*
X4511675Y-56552359D01*
X4555039Y-56588453D01*
X4590442Y-56626294D01*
X4604937Y-56645606D01*
X4617177Y-56665036D01*
X4627074Y-56684479D01*
X4634538Y-56703829D01*
X4628485Y-56702618D01*
X4621491Y-56701480D01*
X4612361Y-56700324D01*
X4601476Y-56699399D01*
X4589219Y-56698958D01*
X4575971Y-56699252D01*
X4562115Y-56700532D01*
X4555077Y-56701621D01*
X4548030Y-56703050D01*
X4541022Y-56704852D01*
X4534101Y-56707057D01*
X4527313Y-56709697D01*
X4520707Y-56712804D01*
X4514330Y-56716408D01*
X4508231Y-56720542D01*
X4502456Y-56725237D01*
X4497054Y-56730524D01*
X4492073Y-56736435D01*
X4487559Y-56743000D01*
X4483561Y-56750252D01*
X4480127Y-56758222D01*
X4477304Y-56766941D01*
X4475139Y-56776441D01*
X4474158Y-56783465D01*
X4473666Y-56790734D01*
X4473646Y-56798230D01*
X4474083Y-56805934D01*
X4474962Y-56813826D01*
X4476265Y-56821888D01*
X4480086Y-56838443D01*
X4485419Y-56855447D01*
X4492137Y-56872746D01*
X4500114Y-56890189D01*
X4509224Y-56907623D01*
X4519340Y-56924894D01*
X4530335Y-56941851D01*
X4542084Y-56958340D01*
X4554460Y-56974210D01*
X4567336Y-56989307D01*
X4580585Y-57003479D01*
X4594083Y-57016572D01*
X4607701Y-57028435D01*
X4624318Y-57041283D01*
X4632463Y-57046993D01*
X4640502Y-57052237D01*
X4648436Y-57057020D01*
X4656269Y-57061350D01*
X4664001Y-57065231D01*
X4671636Y-57068672D01*
X4679174Y-57071677D01*
X4686619Y-57074254D01*
X4693972Y-57076410D01*
X4701234Y-57078149D01*
X4708409Y-57079480D01*
X4715499Y-57080407D01*
X4722504Y-57080938D01*
X4729428Y-57081079D01*
X4736272Y-57080837D01*
X4743039Y-57080217D01*
X4749730Y-57079227D01*
X4756347Y-57077872D01*
X4762893Y-57076159D01*
X4769370Y-57074095D01*
X4775779Y-57071685D01*
X4782123Y-57068937D01*
X4794623Y-57062449D01*
X4806886Y-57054684D01*
X4818928Y-57045691D01*
X4830766Y-57035522D01*
X4839305Y-57027279D01*
X4847101Y-57018715D01*
X4854186Y-57009870D01*
X4860591Y-57000781D01*
X4866346Y-56991487D01*
X4871481Y-56982025D01*
X4876030Y-56972434D01*
X4880021Y-56962752D01*
X4883486Y-56953017D01*
X4886456Y-56943267D01*
X4891034Y-56923876D01*
X4894002Y-56904883D01*
X4895609Y-56886594D01*
X4896100Y-56869314D01*
X4895723Y-56853348D01*
X4894726Y-56839001D01*
X4893356Y-56826578D01*
X4890485Y-56808726D01*
X4889088Y-56802233D01*
X4898888Y-56814374D01*
X4909671Y-56828982D01*
X4923071Y-56848778D01*
X4938110Y-56873382D01*
X4953810Y-56902416D01*
X4961603Y-56918477D01*
X4969193Y-56935503D01*
X4976460Y-56953447D01*
X4983281Y-56972262D01*
X4989533Y-56991901D01*
X4995095Y-57012317D01*
X4999844Y-57033461D01*
X5003657Y-57055287D01*
X5006413Y-57077748D01*
X5007989Y-57100796D01*
X5008263Y-57124383D01*
X5007112Y-57148464D01*
X5004415Y-57172989D01*
X5000049Y-57197912D01*
X4993892Y-57223186D01*
X4985821Y-57248763D01*
X4975715Y-57274596D01*
X4963451Y-57300638D01*
X4948906Y-57326841D01*
X4931959Y-57353158D01*
X4915615Y-57375691D01*
X4898923Y-57396366D01*
X4881899Y-57415215D01*
X4864560Y-57432268D01*
X4846923Y-57447555D01*
X4829005Y-57461109D01*
X4810823Y-57472960D01*
X4792394Y-57483138D01*
X4773734Y-57491674D01*
X4754860Y-57498600D01*
X4735790Y-57503945D01*
X4716541Y-57507742D01*
X4697128Y-57510020D01*
X4677569Y-57510811D01*
X4657881Y-57510146D01*
X4638081Y-57508055D01*
X4618186Y-57504569D01*
X4598213Y-57499718D01*
X4578177Y-57493535D01*
X4558098Y-57486050D01*
X4537990Y-57477293D01*
X4517872Y-57467295D01*
X4497759Y-57456088D01*
X4477670Y-57443702D01*
X4457620Y-57430168D01*
X4437628Y-57415516D01*
X4417708Y-57399778D01*
X4397880Y-57382985D01*
X4358561Y-57346355D01*
X4319807Y-57305873D01*
X4302380Y-57287832D01*
X4284894Y-57271878D01*
X4267395Y-57257952D01*
X4249929Y-57245995D01*
X4232540Y-57235947D01*
X4215274Y-57227749D01*
X4198176Y-57221342D01*
X4181292Y-57216667D01*
X4164666Y-57213664D01*
X4148344Y-57212274D01*
X4132372Y-57212438D01*
X4116794Y-57214097D01*
X4101655Y-57217192D01*
X4087002Y-57221662D01*
X4072879Y-57227450D01*
X4059332Y-57234495D01*
X4046405Y-57242738D01*
X4034145Y-57252121D01*
X4022596Y-57262584D01*
X4011803Y-57274067D01*
X4001813Y-57286512D01*
X3992670Y-57299860D01*
X3984419Y-57314050D01*
X3977106Y-57329023D01*
X3970776Y-57344722D01*
X3965474Y-57361085D01*
X3961245Y-57378055D01*
X3958136Y-57395571D01*
X3956190Y-57413575D01*
X3955454Y-57432007D01*
X3955973Y-57450808D01*
X3957791Y-57469919D01*
X3959732Y-57482854D01*
X3962204Y-57495300D01*
X3965182Y-57507256D01*
X3968641Y-57518721D01*
X3972556Y-57529692D01*
X3976900Y-57540169D01*
X3981649Y-57550150D01*
X3986778Y-57559633D01*
X3992260Y-57568618D01*
X3998072Y-57577102D01*
X4004186Y-57585085D01*
X4010578Y-57592564D01*
X4017223Y-57599540D01*
X4024095Y-57606009D01*
X4031169Y-57611971D01*
X4038420Y-57617424D01*
X4045821Y-57622366D01*
X4053349Y-57626797D01*
X4060976Y-57630716D01*
X4068679Y-57634119D01*
X4076432Y-57637007D01*
X4084208Y-57639377D01*
X4091984Y-57641229D01*
X4099734Y-57642560D01*
X4107431Y-57643370D01*
X4115052Y-57643657D01*
X4122570Y-57643419D01*
X4129960Y-57642655D01*
X4137197Y-57641364D01*
X4144256Y-57639544D01*
X4151111Y-57637194D01*
X4157736Y-57634313D01*
X4163223Y-57631364D01*
X4168574Y-57628027D01*
X4173786Y-57624334D01*
X4178856Y-57620316D01*
X4183783Y-57616005D01*
X4188563Y-57611433D01*
X4197673Y-57601630D01*
X4206168Y-57591160D01*
X4214028Y-57580276D01*
X4221233Y-57569229D01*
X4227764Y-57558273D01*
X4233600Y-57547660D01*
X4238722Y-57537643D01*
X4246744Y-57520406D01*
X4253352Y-57504191D01*
X4255278Y-57509440D01*
X4257366Y-57515791D01*
X4259918Y-57524441D01*
X4262722Y-57535250D01*
X4265563Y-57548077D01*
X4268228Y-57562783D01*
X4270503Y-57579229D01*
X4272176Y-57597275D01*
X4272719Y-57606854D01*
X4273031Y-57616780D01*
X4273086Y-57627037D01*
X4272857Y-57637606D01*
X4272316Y-57648471D01*
X4271438Y-57659613D01*
X4270196Y-57671015D01*
X4268562Y-57682660D01*
X4266511Y-57694531D01*
X4264015Y-57706609D01*
X4261048Y-57718877D01*
X4257584Y-57731319D01*
X4253594Y-57743916D01*
X4249054Y-57756650D01*
X4239734Y-57779340D01*
X4228976Y-57801402D01*
X4223013Y-57812157D01*
X4216638Y-57822707D01*
X4209832Y-57833036D01*
X4202578Y-57843128D01*
X4194858Y-57852966D01*
X4186654Y-57862534D01*
X4177949Y-57871816D01*
X4168725Y-57880797D01*
X4158964Y-57889459D01*
X4148648Y-57897787D01*
X4137759Y-57905765D01*
X4126281Y-57913377D01*
X4114194Y-57920606D01*
X4101482Y-57927436D01*
X4088127Y-57933851D01*
X4074110Y-57939835D01*
X4059415Y-57945373D01*
X4044022Y-57950447D01*
X4027916Y-57955041D01*
X4011077Y-57959141D01*
X3993489Y-57962728D01*
X3975133Y-57965788D01*
X3955992Y-57968305D01*
X3936048Y-57970261D01*
X3915283Y-57971641D01*
X3893679Y-57972429D01*
X3871219Y-57972609D01*
X3847885Y-57972164D01*
X2671216Y-57972164D01*
X2698133Y-57950035D01*
X2729076Y-57924217D01*
X2769271Y-57890199D01*
X2816917Y-57849211D01*
X2870210Y-57802480D01*
X2927348Y-57751234D01*
X2986528Y-57696702D01*
X3108760Y-57585599D01*
X3135079Y-57561099D01*
X3159476Y-57537365D01*
X3181834Y-57514125D01*
X3202041Y-57491107D01*
X3219983Y-57468038D01*
X3235545Y-57444647D01*
X3242398Y-57432745D01*
X3248614Y-57420661D01*
X3254177Y-57408360D01*
X3259075Y-57395808D01*
X3263292Y-57382972D01*
X3266814Y-57369817D01*
X3269628Y-57356309D01*
X3271718Y-57342414D01*
X3273071Y-57328099D01*
X3273672Y-57313329D01*
X3273507Y-57298070D01*
X3272562Y-57282288D01*
X3270699Y-57222581D01*
X3272569Y-57164954D01*
X3278061Y-57109387D01*
X3287059Y-57055857D01*
X3299452Y-57004344D01*
X3315126Y-56954826D01*
X3333968Y-56907281D01*
X3355863Y-56861688D01*
X3380700Y-56818026D01*
X3408363Y-56776273D01*
X3438741Y-56736407D01*
X3471720Y-56698408D01*
X3507186Y-56662254D01*
X3545026Y-56627923D01*
X3585127Y-56595394D01*
X3627376Y-56564645D01*
X3669175Y-56537547D01*
X3711191Y-56513539D01*
X3753335Y-56492515D01*
X3795519Y-56474369D01*
X3837655Y-56458994D01*
X3879655Y-56446285D01*
X3921430Y-56436135D01*
X3962892Y-56428439D01*
X4003953Y-56423090D01*
X4044524Y-56419982D01*
X4084517Y-56419008D01*
X4123844Y-56420064D01*
G37*
%TO.C,kibuzzard-696937DE*%
G36*
X10959846Y-32068205D02*
G01*
X11019181Y-32100501D01*
X11051477Y-32160336D01*
X11062242Y-32253720D01*
X11019181Y-32399928D01*
X10869968Y-32441989D01*
X10720755Y-32399928D01*
X10677693Y-32251717D01*
X10688208Y-32159835D01*
X10719753Y-32100501D01*
X10867965Y-32057439D01*
X10959846Y-32068205D01*
G37*
G36*
X8107021Y-31054006D02*
G01*
X8158094Y-31105079D01*
X8175118Y-31165165D01*
X8178122Y-31238269D01*
X8166856Y-31387482D01*
X8133058Y-31554721D01*
X8080733Y-31686910D01*
X8013888Y-31730973D01*
X7944038Y-31687160D01*
X7890712Y-31555722D01*
X7856913Y-31388734D01*
X7845647Y-31238269D01*
X7848652Y-31166166D01*
X7865676Y-31105079D01*
X7915747Y-31054006D01*
X8009882Y-31037983D01*
X8107021Y-31054006D01*
G37*
G36*
X8518609Y-31054006D02*
G01*
X8568680Y-31105079D01*
X8585705Y-31165165D01*
X8588709Y-31238269D01*
X8584703Y-31325393D01*
X8572686Y-31426538D01*
X8550655Y-31532189D01*
X8516606Y-31632833D01*
X8424474Y-31730973D01*
X8356127Y-31687160D01*
X8303301Y-31555722D01*
X8269503Y-31388734D01*
X8258237Y-31238269D01*
X8261241Y-31166166D01*
X8278265Y-31105079D01*
X8328337Y-31054006D01*
X8422471Y-31037983D01*
X8518609Y-31054006D01*
G37*
G36*
X11464818Y-31072031D02*
G01*
X11496863Y-31098069D01*
X11751227Y-31326395D01*
X11812314Y-31394492D01*
X11835347Y-31458584D01*
X11773258Y-31590773D01*
X11654088Y-31660873D01*
X11530912Y-31602790D01*
X11510883Y-31584764D01*
X11510883Y-32261731D01*
X11470826Y-32403934D01*
X11330626Y-32443991D01*
X11188423Y-32403934D01*
X11148366Y-32263734D01*
X11148366Y-31222246D01*
X11188423Y-31079041D01*
X11328623Y-31037983D01*
X11464818Y-31072031D01*
G37*
G36*
X10531484Y-31043991D02*
G01*
X10583559Y-31064020D01*
X10625619Y-31119099D01*
X10639639Y-31222246D01*
X10625619Y-31326395D01*
X10580554Y-31382475D01*
X10525476Y-31402504D01*
X10457378Y-31406509D01*
X10056806Y-31406509D01*
X10133916Y-31530687D01*
X10201012Y-31628326D01*
X10268108Y-31728970D01*
X10332450Y-31843884D01*
X10391284Y-31984335D01*
X10433344Y-32134800D01*
X10447364Y-32279757D01*
X10443358Y-32345851D01*
X10423330Y-32393920D01*
X10368251Y-32429971D01*
X10263101Y-32439986D01*
X10159954Y-32428970D01*
X10103873Y-32393920D01*
X10082843Y-32346853D01*
X10078838Y-32283763D01*
X10060562Y-32166595D01*
X10005733Y-32027396D01*
X9929374Y-31883441D01*
X9846506Y-31752003D01*
X9763637Y-31621066D01*
X9687278Y-31478612D01*
X9632450Y-31340916D01*
X9614174Y-31224249D01*
X9617178Y-31155150D01*
X9636205Y-31100072D01*
X9692285Y-31054006D01*
X9796434Y-31039986D01*
X10467393Y-31039986D01*
X10531484Y-31043991D01*
G37*
G36*
X9408881Y-31052003D02*
G01*
X9464961Y-31105079D01*
X9487994Y-31160157D01*
X9498008Y-31216237D01*
X9572114Y-31785050D01*
X9547078Y-31843133D01*
X9457951Y-31903219D01*
X9327765Y-31943276D01*
X9215604Y-31895207D01*
X9137493Y-31867167D01*
X9049367Y-31900215D01*
X9013315Y-31983333D01*
X9047364Y-32067454D01*
X9143501Y-32097496D01*
X9259667Y-32065451D01*
X9395862Y-31999356D01*
X9520039Y-32067454D01*
X9594145Y-32203648D01*
X9518036Y-32325823D01*
X9475976Y-32361874D01*
X9339782Y-32430973D01*
X9239639Y-32457260D01*
X9131484Y-32466023D01*
X9001298Y-32450111D01*
X8885800Y-32402376D01*
X8784989Y-32322818D01*
X8707100Y-32219893D01*
X8660367Y-32102058D01*
X8644789Y-31969313D01*
X8660812Y-31850143D01*
X8708881Y-31740987D01*
X8788995Y-31641845D01*
X8890251Y-31563400D01*
X9001743Y-31516333D01*
X9123473Y-31500644D01*
X9133487Y-31500644D01*
X9167536Y-31504649D01*
X9153516Y-31398498D01*
X8845075Y-31398498D01*
X8780984Y-31395494D01*
X8728909Y-31377468D01*
X8685848Y-31324392D01*
X8672829Y-31224249D01*
X8686849Y-31115093D01*
X8731913Y-31059013D01*
X8785991Y-31039986D01*
X8855089Y-31035980D01*
X9313745Y-31033977D01*
X9408881Y-31052003D01*
G37*
D10*
%TO.C,JP2*%
X11684000Y-8255000D02*
X11684000Y-10795000D01*
X13258800Y-7797800D02*
X12141200Y-7797800D01*
X13258800Y-11252200D02*
X12141200Y-11252200D01*
X13716000Y-10795000D02*
X13716000Y-8255000D01*
X11684000Y-8255000D02*
G75*
G02*
X12141200Y-7797800I457201J-1D01*
G01*
X12141200Y-11252200D02*
G75*
G02*
X11684000Y-10795000I0J457200D01*
G01*
X13258800Y-7797800D02*
G75*
G02*
X13716000Y-8255000I-1J-457201D01*
G01*
X13716000Y-10795000D02*
G75*
G02*
X13258800Y-11252200I-457200J0D01*
G01*
%TO.C,JP1*%
X889000Y-8445500D02*
X889000Y-9969500D01*
X1346200Y-7988300D02*
X2463800Y-7988300D01*
X1346200Y-10426700D02*
X2463800Y-10426700D01*
X2921000Y-9969500D02*
X2921000Y-8445500D01*
X889000Y-8445500D02*
G75*
G02*
X1346200Y-7988300I457200J0D01*
G01*
X1346200Y-10426700D02*
G75*
G02*
X889000Y-9969500I1J457201D01*
G01*
X2463800Y-7988300D02*
G75*
G02*
X2921000Y-8445500I0J-457200D01*
G01*
X2921000Y-9969500D02*
G75*
G02*
X2463800Y-10426700I-457201J1D01*
G01*
D12*
%TO.C,kibuzzard-69371667*%
G36*
X11041230Y-1663226D02*
G01*
X11066266Y-1690765D01*
X11245808Y-2062725D01*
X11255107Y-2113155D01*
X11215050Y-2147847D01*
X11162833Y-2158219D01*
X11127067Y-2118519D01*
X11094163Y-2049850D01*
X11040515Y-2049850D01*
X10918197Y-2049850D01*
X10885293Y-2117804D01*
X10850243Y-2158934D01*
X10797310Y-2148562D01*
X10757611Y-2113512D01*
X10767268Y-2062725D01*
X10827461Y-1938262D01*
X10973276Y-1938262D01*
X11040515Y-1938262D01*
X11006896Y-1868877D01*
X10973276Y-1938262D01*
X10827461Y-1938262D01*
X10946810Y-1691481D01*
X10971309Y-1662511D01*
X11006180Y-1652854D01*
X11041230Y-1663226D01*
G37*
G36*
X11681431Y-1657504D02*
G01*
X11701459Y-1673598D01*
X11708255Y-1693269D01*
X11709328Y-1717232D01*
X11709328Y-2087046D01*
X11707539Y-2112439D01*
X11700029Y-2132468D01*
X11680358Y-2147847D01*
X11644235Y-2152854D01*
X11578426Y-2152854D01*
X11522632Y-2152854D01*
X11472337Y-2148227D01*
X11425887Y-2134345D01*
X11383281Y-2111210D01*
X11344521Y-2078820D01*
X11312287Y-2039903D01*
X11289263Y-1997185D01*
X11275449Y-1950668D01*
X11271106Y-1903212D01*
X11401745Y-1903212D01*
X11410508Y-1948902D01*
X11436795Y-1987260D01*
X11475243Y-2013280D01*
X11520486Y-2021953D01*
X11578426Y-2021953D01*
X11578426Y-1783755D01*
X11521202Y-1783755D01*
X11475422Y-1792518D01*
X11436795Y-1818805D01*
X11410508Y-1857432D01*
X11401745Y-1903212D01*
X11271106Y-1903212D01*
X11270844Y-1900351D01*
X11275449Y-1851352D01*
X11289263Y-1805930D01*
X11312287Y-1764084D01*
X11344521Y-1725815D01*
X11383147Y-1693895D01*
X11425351Y-1671094D01*
X11471130Y-1657414D01*
X11520486Y-1652854D01*
X11643519Y-1652854D01*
X11681431Y-1657504D01*
G37*
G36*
X11975502Y-1649794D02*
G01*
X12015797Y-1664220D01*
X12050529Y-1688262D01*
X12077155Y-1719616D01*
X12093130Y-1755978D01*
X12098455Y-1797346D01*
X12092732Y-1843841D01*
X12075565Y-1882468D01*
X12046953Y-1913226D01*
X12006896Y-1936116D01*
X11979803Y-1945862D01*
X11945737Y-1955072D01*
X11889585Y-1971881D01*
X11870987Y-1994056D01*
X11883863Y-2027318D01*
X11926066Y-2037690D01*
X11954320Y-2030894D01*
X11983290Y-2004785D01*
X12015559Y-1978716D01*
X12046555Y-1973948D01*
X12076280Y-1990479D01*
X12106323Y-2036259D01*
X12088441Y-2082754D01*
X12084149Y-2087761D01*
X12076280Y-2097775D01*
X12063763Y-2110293D01*
X12046595Y-2124242D01*
X12024421Y-2137833D01*
X11996881Y-2149635D01*
X11963262Y-2157504D01*
X11923205Y-2160722D01*
X11875637Y-2155358D01*
X11826638Y-2137117D01*
X11782647Y-2105286D01*
X11751531Y-2057003D01*
X11742411Y-2026066D01*
X11739371Y-1991910D01*
X11746077Y-1938441D01*
X11766195Y-1899635D01*
X11797579Y-1872454D01*
X11838083Y-1853856D01*
X11883863Y-1842768D01*
X11927496Y-1833827D01*
X11955751Y-1821309D01*
X11968269Y-1798062D01*
X11956824Y-1776245D01*
X11930358Y-1767303D01*
X11906753Y-1769807D01*
X11892804Y-1775172D01*
X11882790Y-1783398D01*
X11874564Y-1790193D01*
X11826638Y-1803426D01*
X11784435Y-1768734D01*
X11767268Y-1724742D01*
X11793019Y-1687904D01*
X11830135Y-1664061D01*
X11875676Y-1649754D01*
X11929642Y-1644986D01*
X11975502Y-1649794D01*
G37*
%TO.C,kibuzzard-696937B5*%
G36*
X11002908Y-38426216D02*
G01*
X11062242Y-38458512D01*
X11094539Y-38518348D01*
X11105304Y-38611731D01*
X11062242Y-38757940D01*
X10913029Y-38800000D01*
X10763816Y-38757940D01*
X10720755Y-38609728D01*
X10731270Y-38517847D01*
X10762815Y-38458512D01*
X10911026Y-38415451D01*
X11002908Y-38426216D01*
G37*
G36*
X8063959Y-37412017D02*
G01*
X8115032Y-37463090D01*
X8132057Y-37523176D01*
X8135061Y-37596280D01*
X8123795Y-37745494D01*
X8089996Y-37912732D01*
X8037672Y-38044921D01*
X7970826Y-38088984D01*
X7900976Y-38045172D01*
X7847650Y-37913734D01*
X7813852Y-37746745D01*
X7802586Y-37596280D01*
X7805590Y-37524177D01*
X7822614Y-37463090D01*
X7872686Y-37412017D01*
X7966820Y-37395994D01*
X8063959Y-37412017D01*
G37*
G36*
X8475547Y-37412017D02*
G01*
X8525619Y-37463090D01*
X8542643Y-37523176D01*
X8545647Y-37596280D01*
X8541642Y-37683405D01*
X8529624Y-37784549D01*
X8507593Y-37890200D01*
X8473544Y-37990844D01*
X8381413Y-38088984D01*
X8313065Y-38045172D01*
X8260240Y-37913734D01*
X8226441Y-37746745D01*
X8215175Y-37596280D01*
X8218180Y-37524177D01*
X8235204Y-37463090D01*
X8285275Y-37412017D01*
X8379410Y-37395994D01*
X8475547Y-37412017D01*
G37*
G36*
X11507879Y-37430043D02*
G01*
X11539925Y-37456080D01*
X11794288Y-37684406D01*
X11855376Y-37752504D01*
X11878408Y-37816595D01*
X11816320Y-37948784D01*
X11697149Y-38018884D01*
X11573974Y-37960801D01*
X11553945Y-37942775D01*
X11553945Y-38619742D01*
X11513888Y-38761946D01*
X11373687Y-38802003D01*
X11231484Y-38761946D01*
X11191427Y-38621745D01*
X11191427Y-37580258D01*
X11231484Y-37437053D01*
X11371685Y-37395994D01*
X11507879Y-37430043D01*
G37*
G36*
X10497436Y-37410014D02*
G01*
X10553516Y-37463090D01*
X10576549Y-37518169D01*
X10586563Y-37574249D01*
X10660669Y-38143062D01*
X10635633Y-38201144D01*
X10546506Y-38261230D01*
X10416320Y-38301288D01*
X10304160Y-38253219D01*
X10226048Y-38225179D01*
X10137922Y-38258226D01*
X10101871Y-38341345D01*
X10135919Y-38425465D01*
X10232057Y-38455508D01*
X10348222Y-38423462D01*
X10484417Y-38357368D01*
X10608594Y-38425465D01*
X10682700Y-38561660D01*
X10606592Y-38683834D01*
X10564531Y-38719886D01*
X10428337Y-38788984D01*
X10328194Y-38815272D01*
X10220039Y-38824034D01*
X10089853Y-38808123D01*
X9974355Y-38760388D01*
X9873544Y-38680830D01*
X9795655Y-38577905D01*
X9748922Y-38460070D01*
X9733344Y-38327325D01*
X9749367Y-38208155D01*
X9797436Y-38098999D01*
X9877550Y-37999857D01*
X9978806Y-37921412D01*
X10090298Y-37874344D01*
X10212028Y-37858655D01*
X10222042Y-37858655D01*
X10256091Y-37862661D01*
X10242071Y-37756509D01*
X9933630Y-37756509D01*
X9869539Y-37753505D01*
X9817464Y-37735479D01*
X9774403Y-37682403D01*
X9761384Y-37582260D01*
X9775404Y-37473104D01*
X9820469Y-37417024D01*
X9874546Y-37397997D01*
X9943644Y-37393991D01*
X10402300Y-37391989D01*
X10497436Y-37410014D01*
G37*
G36*
X9262672Y-37389235D02*
G01*
X9372829Y-37429041D01*
X9463459Y-37488376D01*
X9531055Y-37560229D01*
X9581878Y-37644850D01*
X9622185Y-37742489D01*
X9650976Y-37841631D01*
X9667250Y-37930758D01*
X9674760Y-38014878D01*
X9677264Y-38098999D01*
X9669253Y-38245207D01*
X9641212Y-38404435D01*
X9615926Y-38487554D01*
X9580125Y-38562661D01*
X9481985Y-38694850D01*
X9416642Y-38749177D01*
X9334775Y-38789986D01*
X9239138Y-38815522D01*
X9140497Y-38823395D01*
X9132486Y-38824034D01*
X9011813Y-38811516D01*
X8906162Y-38773963D01*
X8818537Y-38717382D01*
X8751942Y-38647783D01*
X8701119Y-38565415D01*
X8660812Y-38470529D01*
X8631520Y-38372389D01*
X8613745Y-38280258D01*
X8604732Y-38190880D01*
X8601727Y-38101001D01*
X8601790Y-38098999D01*
X8968251Y-38098999D01*
X8968251Y-38109013D01*
X8969253Y-38189127D01*
X8980268Y-38277253D01*
X9006305Y-38367382D01*
X9057378Y-38428469D01*
X9140497Y-38455508D01*
X9214979Y-38433351D01*
X9268180Y-38366881D01*
X9300100Y-38256098D01*
X9310740Y-38101001D01*
X9299975Y-37944152D01*
X9267679Y-37832117D01*
X9213852Y-37764896D01*
X9138494Y-37742489D01*
X9064013Y-37764771D01*
X9010812Y-37831617D01*
X8978891Y-37943026D01*
X8968251Y-38098999D01*
X8601790Y-38098999D01*
X8604481Y-38013376D01*
X8612743Y-37926753D01*
X8629768Y-37836373D01*
X8658809Y-37737482D01*
X8699117Y-37640844D01*
X8749939Y-37557225D01*
X8817035Y-37486373D01*
X8906162Y-37428040D01*
X9013816Y-37388984D01*
X9136491Y-37375966D01*
X9262672Y-37389235D01*
G37*
%TO.C,kibuzzard-696937C3*%
G36*
X10782593Y-57476216D02*
G01*
X10841928Y-57508512D01*
X10874224Y-57568348D01*
X10884989Y-57661731D01*
X10841928Y-57807940D01*
X10692715Y-57850000D01*
X10543501Y-57807940D01*
X10500440Y-57659728D01*
X10510955Y-57567847D01*
X10542500Y-57508512D01*
X10690712Y-57465451D01*
X10782593Y-57476216D01*
G37*
G36*
X7929768Y-56462017D02*
G01*
X7980840Y-56513090D01*
X7997865Y-56573176D01*
X8000869Y-56646280D01*
X7989603Y-56795494D01*
X7955805Y-56962732D01*
X7903480Y-57094921D01*
X7836634Y-57138984D01*
X7766785Y-57095172D01*
X7713459Y-56963734D01*
X7679660Y-56796745D01*
X7668394Y-56646280D01*
X7671398Y-56574177D01*
X7688423Y-56513090D01*
X7738494Y-56462017D01*
X7832629Y-56445994D01*
X7929768Y-56462017D01*
G37*
G36*
X8341356Y-56462017D02*
G01*
X8391427Y-56513090D01*
X8408451Y-56573176D01*
X8411456Y-56646280D01*
X8407450Y-56733405D01*
X8395433Y-56834549D01*
X8373401Y-56940200D01*
X8339353Y-57040844D01*
X8247221Y-57138984D01*
X8178873Y-57095172D01*
X8126048Y-56963734D01*
X8092250Y-56796745D01*
X8080984Y-56646280D01*
X8083988Y-56574177D01*
X8101012Y-56513090D01*
X8151084Y-56462017D01*
X8245218Y-56445994D01*
X8341356Y-56462017D01*
G37*
G36*
X10354231Y-56452003D02*
G01*
X10406305Y-56472031D01*
X10448366Y-56527110D01*
X10462386Y-56630258D01*
X10448366Y-56734406D01*
X10403301Y-56790486D01*
X10348222Y-56810515D01*
X10280125Y-56814521D01*
X9879553Y-56814521D01*
X9956663Y-56938698D01*
X10023759Y-57036338D01*
X10090855Y-57136981D01*
X10155197Y-57251896D01*
X10214031Y-57392346D01*
X10256091Y-57542811D01*
X10270111Y-57687768D01*
X10266105Y-57753863D01*
X10246077Y-57801931D01*
X10190998Y-57837983D01*
X10085848Y-57847997D01*
X9982700Y-57836981D01*
X9926620Y-57801931D01*
X9905590Y-57754864D01*
X9901584Y-57691774D01*
X9883308Y-57574607D01*
X9828480Y-57435408D01*
X9752121Y-57291452D01*
X9669253Y-57160014D01*
X9586384Y-57029077D01*
X9510025Y-56886624D01*
X9455197Y-56748927D01*
X9436921Y-56632260D01*
X9439925Y-56563162D01*
X9458952Y-56508083D01*
X9515032Y-56462017D01*
X9619181Y-56447997D01*
X10290139Y-56447997D01*
X10354231Y-56452003D01*
G37*
G36*
X9231627Y-56460014D02*
G01*
X9287707Y-56513090D01*
X9310740Y-56568169D01*
X9320755Y-56624249D01*
X9394861Y-57193062D01*
X9369825Y-57251144D01*
X9280697Y-57311230D01*
X9150511Y-57351288D01*
X9038351Y-57303219D01*
X8960240Y-57275179D01*
X8872114Y-57308226D01*
X8836062Y-57391345D01*
X8870111Y-57475465D01*
X8966248Y-57505508D01*
X9082414Y-57473462D01*
X9218609Y-57407368D01*
X9342786Y-57475465D01*
X9416892Y-57611660D01*
X9340783Y-57733834D01*
X9298723Y-57769886D01*
X9162529Y-57838984D01*
X9062386Y-57865272D01*
X8954231Y-57874034D01*
X8824045Y-57858123D01*
X8708547Y-57810388D01*
X8607736Y-57730830D01*
X8529847Y-57627905D01*
X8483114Y-57510070D01*
X8467536Y-57377325D01*
X8483559Y-57258155D01*
X8531627Y-57148999D01*
X8611742Y-57049857D01*
X8712998Y-56971412D01*
X8824490Y-56924344D01*
X8946220Y-56908655D01*
X8956234Y-56908655D01*
X8990283Y-56912661D01*
X8976263Y-56806509D01*
X8667822Y-56806509D01*
X8603730Y-56803505D01*
X8551656Y-56785479D01*
X8508594Y-56732403D01*
X8495576Y-56632260D01*
X8509596Y-56523104D01*
X8554660Y-56467024D01*
X8608737Y-56447997D01*
X8677836Y-56443991D01*
X9136491Y-56441989D01*
X9231627Y-56460014D01*
G37*
G36*
X11602014Y-56439235D02*
G01*
X11712171Y-56479041D01*
X11802800Y-56538376D01*
X11870397Y-56610229D01*
X11921220Y-56694850D01*
X11961527Y-56792489D01*
X11990318Y-56891631D01*
X12006592Y-56980758D01*
X12014102Y-57064878D01*
X12016606Y-57148999D01*
X12008594Y-57295207D01*
X11980554Y-57454435D01*
X11955268Y-57537554D01*
X11919467Y-57612661D01*
X11821327Y-57744850D01*
X11755984Y-57799177D01*
X11674117Y-57839986D01*
X11578480Y-57865522D01*
X11479839Y-57873395D01*
X11471828Y-57874034D01*
X11351155Y-57861516D01*
X11245504Y-57823963D01*
X11157879Y-57767382D01*
X11091284Y-57697783D01*
X11040461Y-57615415D01*
X11000154Y-57520529D01*
X10970862Y-57422389D01*
X10953087Y-57330258D01*
X10944074Y-57240880D01*
X10941069Y-57151001D01*
X10941132Y-57148999D01*
X11307593Y-57148999D01*
X11307593Y-57159013D01*
X11308594Y-57239127D01*
X11319610Y-57327253D01*
X11345647Y-57417382D01*
X11396720Y-57478469D01*
X11479839Y-57505508D01*
X11554320Y-57483351D01*
X11607521Y-57416881D01*
X11639442Y-57306098D01*
X11650082Y-57151001D01*
X11639317Y-56994152D01*
X11607021Y-56882117D01*
X11553194Y-56814896D01*
X11477836Y-56792489D01*
X11403355Y-56814771D01*
X11350154Y-56881617D01*
X11318233Y-56993026D01*
X11307593Y-57148999D01*
X10941132Y-57148999D01*
X10943823Y-57063376D01*
X10952085Y-56976753D01*
X10969109Y-56886373D01*
X10998151Y-56787482D01*
X11038459Y-56690844D01*
X11089281Y-56607225D01*
X11156377Y-56536373D01*
X11245504Y-56478040D01*
X11353158Y-56438984D01*
X11475833Y-56425966D01*
X11602014Y-56439235D01*
G37*
%TO.C,kibuzzard-696937BE*%
G36*
X11075011Y-51126931D02*
G01*
X11134345Y-51159227D01*
X11166642Y-51219063D01*
X11177407Y-51312446D01*
X11134345Y-51458655D01*
X10985132Y-51500715D01*
X10835919Y-51458655D01*
X10792858Y-51310443D01*
X10803373Y-51218562D01*
X10834918Y-51159227D01*
X10983129Y-51116166D01*
X11075011Y-51126931D01*
G37*
G36*
X7991856Y-50112732D02*
G01*
X8042929Y-50163805D01*
X8059954Y-50223891D01*
X8062958Y-50296995D01*
X8051692Y-50446209D01*
X8017893Y-50613447D01*
X7965569Y-50745636D01*
X7898723Y-50789699D01*
X7828873Y-50745887D01*
X7775547Y-50614449D01*
X7741749Y-50447460D01*
X7730483Y-50296995D01*
X7733487Y-50224892D01*
X7750511Y-50163805D01*
X7800583Y-50112732D01*
X7894717Y-50096709D01*
X7991856Y-50112732D01*
G37*
G36*
X8403444Y-50112732D02*
G01*
X8453516Y-50163805D01*
X8470540Y-50223891D01*
X8473544Y-50296995D01*
X8469539Y-50384120D01*
X8457521Y-50485264D01*
X8435490Y-50590915D01*
X8401441Y-50691559D01*
X8309310Y-50789699D01*
X8240962Y-50745887D01*
X8188137Y-50614449D01*
X8154338Y-50447460D01*
X8143072Y-50296995D01*
X8146077Y-50224892D01*
X8163101Y-50163805D01*
X8213172Y-50112732D01*
X8307307Y-50096709D01*
X8403444Y-50112732D01*
G37*
G36*
X11579982Y-50130758D02*
G01*
X11612028Y-50156795D01*
X11866391Y-50385121D01*
X11927479Y-50453219D01*
X11950511Y-50517310D01*
X11888423Y-50649499D01*
X11769253Y-50719599D01*
X11646077Y-50661516D01*
X11626048Y-50643490D01*
X11626048Y-51320457D01*
X11585991Y-51462661D01*
X11445790Y-51502718D01*
X11303587Y-51462661D01*
X11263530Y-51322460D01*
X11263530Y-50280973D01*
X11303587Y-50137768D01*
X11443788Y-50096709D01*
X11579982Y-50130758D01*
G37*
G36*
X9190569Y-50089950D02*
G01*
X9300726Y-50129756D01*
X9391356Y-50189091D01*
X9458952Y-50260944D01*
X9509775Y-50345565D01*
X9550082Y-50443204D01*
X9578873Y-50542346D01*
X9595147Y-50631473D01*
X9602657Y-50715593D01*
X9605161Y-50799714D01*
X9597149Y-50945922D01*
X9569109Y-51105150D01*
X9543823Y-51188269D01*
X9508022Y-51263376D01*
X9409882Y-51395565D01*
X9344539Y-51449892D01*
X9262672Y-51490701D01*
X9167035Y-51516237D01*
X9068394Y-51524110D01*
X9060383Y-51524749D01*
X8939710Y-51512231D01*
X8834059Y-51474678D01*
X8746434Y-51418097D01*
X8679839Y-51348498D01*
X8629016Y-51266130D01*
X8588709Y-51171244D01*
X8559417Y-51073104D01*
X8541642Y-50980973D01*
X8532629Y-50891595D01*
X8529624Y-50801716D01*
X8529687Y-50799714D01*
X8896148Y-50799714D01*
X8896148Y-50809728D01*
X8897149Y-50889842D01*
X8908165Y-50977968D01*
X8934202Y-51068097D01*
X8985275Y-51129184D01*
X9068394Y-51156223D01*
X9142876Y-51134066D01*
X9196077Y-51067596D01*
X9227997Y-50956813D01*
X9238637Y-50801716D01*
X9227872Y-50644867D01*
X9195576Y-50532832D01*
X9141749Y-50465611D01*
X9066391Y-50443204D01*
X8991910Y-50465486D01*
X8938709Y-50532332D01*
X8906788Y-50643741D01*
X8896148Y-50799714D01*
X8529687Y-50799714D01*
X8532378Y-50714091D01*
X8540640Y-50627468D01*
X8557665Y-50537088D01*
X8586706Y-50438197D01*
X8627014Y-50341559D01*
X8677836Y-50257940D01*
X8744932Y-50187088D01*
X8834059Y-50128755D01*
X8941713Y-50089699D01*
X9064388Y-50076681D01*
X9190569Y-50089950D01*
G37*
G36*
X10322185Y-50089950D02*
G01*
X10432343Y-50129756D01*
X10522972Y-50189091D01*
X10590569Y-50260944D01*
X10641391Y-50345565D01*
X10681699Y-50443204D01*
X10710490Y-50542346D01*
X10726763Y-50631473D01*
X10734274Y-50715593D01*
X10736778Y-50799714D01*
X10728766Y-50945922D01*
X10700726Y-51105150D01*
X10675440Y-51188269D01*
X10639639Y-51263376D01*
X10541499Y-51395565D01*
X10476155Y-51449892D01*
X10394288Y-51490701D01*
X10298652Y-51516237D01*
X10200011Y-51524110D01*
X10191999Y-51524749D01*
X10071327Y-51512231D01*
X9965676Y-51474678D01*
X9878051Y-51418097D01*
X9811456Y-51348498D01*
X9760633Y-51266130D01*
X9720325Y-51171244D01*
X9691034Y-51073104D01*
X9673258Y-50980973D01*
X9664245Y-50891595D01*
X9661241Y-50801716D01*
X9661304Y-50799714D01*
X10027765Y-50799714D01*
X10027765Y-50809728D01*
X10028766Y-50889842D01*
X10039782Y-50977968D01*
X10065819Y-51068097D01*
X10116892Y-51129184D01*
X10200011Y-51156223D01*
X10274492Y-51134066D01*
X10327693Y-51067596D01*
X10359614Y-50956813D01*
X10370254Y-50801716D01*
X10359489Y-50644867D01*
X10327192Y-50532832D01*
X10273366Y-50465611D01*
X10198008Y-50443204D01*
X10123526Y-50465486D01*
X10070325Y-50532332D01*
X10038405Y-50643741D01*
X10027765Y-50799714D01*
X9661304Y-50799714D01*
X9663995Y-50714091D01*
X9672257Y-50627468D01*
X9689281Y-50537088D01*
X9718323Y-50438197D01*
X9758630Y-50341559D01*
X9809453Y-50257940D01*
X9876549Y-50187088D01*
X9965676Y-50128755D01*
X10073330Y-50089699D01*
X10196005Y-50076681D01*
X10322185Y-50089950D01*
G37*
%TO.C,kibuzzard-69371675*%
G36*
X11721041Y-4563294D02*
G01*
X11742232Y-4574828D01*
X11753766Y-4596198D01*
X11757611Y-4629549D01*
X11742232Y-4681767D01*
X11688941Y-4696788D01*
X11635651Y-4681767D01*
X11620272Y-4628834D01*
X11624027Y-4596019D01*
X11635293Y-4574828D01*
X11688226Y-4559449D01*
X11721041Y-4563294D01*
G37*
G36*
X11145308Y-4203226D02*
G01*
X11185365Y-4237203D01*
X11178212Y-4286917D01*
X11008684Y-4659592D01*
X10984363Y-4686416D01*
X10944306Y-4695358D01*
X10907468Y-4685701D01*
X10882790Y-4659592D01*
X10713262Y-4286917D01*
X10705036Y-4237561D01*
X10746166Y-4203226D01*
X10799099Y-4192854D01*
X10832718Y-4233269D01*
X10945737Y-4511524D01*
X11058755Y-4233269D01*
X11091660Y-4192496D01*
X11145308Y-4203226D01*
G37*
G36*
X11448956Y-4191423D02*
G01*
X11481860Y-4200007D01*
X11508326Y-4212525D01*
X11529428Y-4227189D01*
X11545165Y-4242568D01*
X11556609Y-4256874D01*
X11563763Y-4268677D01*
X11567697Y-4276545D01*
X11568770Y-4279049D01*
X11579142Y-4328405D01*
X11543734Y-4367747D01*
X11505425Y-4380543D01*
X11475382Y-4372198D01*
X11453605Y-4342711D01*
X11432861Y-4321252D01*
X11402103Y-4314099D01*
X11369557Y-4323040D01*
X11357754Y-4347718D01*
X11368126Y-4365959D01*
X11401388Y-4370608D01*
X11406395Y-4370608D01*
X11429285Y-4371681D01*
X11447525Y-4377761D01*
X11462546Y-4396359D01*
X11467196Y-4432124D01*
X11462904Y-4463598D01*
X11454320Y-4482196D01*
X11438226Y-4491137D01*
X11421774Y-4494356D01*
X11402103Y-4494356D01*
X11360794Y-4504728D01*
X11347024Y-4535844D01*
X11363834Y-4565529D01*
X11408541Y-4576617D01*
X11433934Y-4572682D01*
X11451102Y-4564099D01*
X11461831Y-4553369D01*
X11467196Y-4544785D01*
X11468627Y-4540851D01*
X11489371Y-4507232D01*
X11528712Y-4499363D01*
X11582361Y-4510629D01*
X11600243Y-4544428D01*
X11593885Y-4585161D01*
X11574810Y-4622476D01*
X11543019Y-4656373D01*
X11502723Y-4683197D01*
X11458135Y-4699292D01*
X11409256Y-4704657D01*
X11356681Y-4699292D01*
X11310544Y-4683197D01*
X11270844Y-4656373D01*
X11240443Y-4621363D01*
X11222203Y-4580710D01*
X11216123Y-4534413D01*
X11220951Y-4500079D01*
X11235436Y-4471466D01*
X11275494Y-4432840D01*
X11238476Y-4397253D01*
X11226137Y-4344857D01*
X11231661Y-4306469D01*
X11248232Y-4270465D01*
X11275851Y-4236845D01*
X11312769Y-4209823D01*
X11357237Y-4193609D01*
X11409256Y-4188205D01*
X11448956Y-4191423D01*
G37*
G36*
X12010472Y-4191423D02*
G01*
X12043376Y-4200007D01*
X12069843Y-4212525D01*
X12090944Y-4227189D01*
X12106681Y-4242568D01*
X12118126Y-4256874D01*
X12125279Y-4268677D01*
X12129213Y-4276545D01*
X12130286Y-4279049D01*
X12140658Y-4328405D01*
X12105250Y-4367747D01*
X12066942Y-4380543D01*
X12036899Y-4372198D01*
X12015122Y-4342711D01*
X11994378Y-4321252D01*
X11963619Y-4314099D01*
X11931073Y-4323040D01*
X11919270Y-4347718D01*
X11929642Y-4365959D01*
X11962904Y-4370608D01*
X11967911Y-4370608D01*
X11990801Y-4371681D01*
X12009041Y-4377761D01*
X12024063Y-4396359D01*
X12028712Y-4432124D01*
X12024421Y-4463598D01*
X12015837Y-4482196D01*
X11999742Y-4491137D01*
X11983290Y-4494356D01*
X11963619Y-4494356D01*
X11922310Y-4504728D01*
X11908541Y-4535844D01*
X11925351Y-4565529D01*
X11970057Y-4576617D01*
X11995451Y-4572682D01*
X12012618Y-4564099D01*
X12023348Y-4553369D01*
X12028712Y-4544785D01*
X12030143Y-4540851D01*
X12050887Y-4507232D01*
X12090229Y-4499363D01*
X12143877Y-4510629D01*
X12161760Y-4544428D01*
X12155401Y-4585161D01*
X12136326Y-4622476D01*
X12104535Y-4656373D01*
X12064239Y-4683197D01*
X12019652Y-4699292D01*
X11970773Y-4704657D01*
X11918197Y-4699292D01*
X11872060Y-4683197D01*
X11832361Y-4656373D01*
X11801960Y-4621363D01*
X11783720Y-4580710D01*
X11777639Y-4534413D01*
X11782468Y-4500079D01*
X11796953Y-4471466D01*
X11837010Y-4432840D01*
X11799993Y-4397253D01*
X11787654Y-4344857D01*
X11793178Y-4306469D01*
X11809749Y-4270465D01*
X11837368Y-4236845D01*
X11874285Y-4209823D01*
X11918754Y-4193609D01*
X11970773Y-4188205D01*
X12010472Y-4191423D01*
G37*
%TO.C,kibuzzard-696937B9*%
G36*
X11003909Y-44776216D02*
G01*
X11063244Y-44808512D01*
X11095540Y-44868348D01*
X11106305Y-44961731D01*
X11063244Y-45107940D01*
X10914031Y-45150000D01*
X10764818Y-45107940D01*
X10721756Y-44959728D01*
X10732271Y-44867847D01*
X10763816Y-44808512D01*
X10912028Y-44765451D01*
X11003909Y-44776216D01*
G37*
G36*
X8062958Y-43762017D02*
G01*
X8114031Y-43813090D01*
X8131055Y-43873176D01*
X8134059Y-43946280D01*
X8122793Y-44095494D01*
X8088995Y-44262732D01*
X8036670Y-44394921D01*
X7969825Y-44438984D01*
X7899975Y-44395172D01*
X7846649Y-44263734D01*
X7812851Y-44096745D01*
X7801584Y-43946280D01*
X7804589Y-43874177D01*
X7821613Y-43813090D01*
X7871685Y-43762017D01*
X7965819Y-43745994D01*
X8062958Y-43762017D01*
G37*
G36*
X8474546Y-43762017D02*
G01*
X8524617Y-43813090D01*
X8541642Y-43873176D01*
X8544646Y-43946280D01*
X8540640Y-44033405D01*
X8528623Y-44134549D01*
X8506592Y-44240200D01*
X8472543Y-44340844D01*
X8380411Y-44438984D01*
X8312064Y-44395172D01*
X8259238Y-44263734D01*
X8225440Y-44096745D01*
X8214174Y-43946280D01*
X8217178Y-43874177D01*
X8234202Y-43813090D01*
X8284274Y-43762017D01*
X8378408Y-43745994D01*
X8474546Y-43762017D01*
G37*
G36*
X11508881Y-43780043D02*
G01*
X11540926Y-43806080D01*
X11795290Y-44034406D01*
X11856377Y-44102504D01*
X11879410Y-44166595D01*
X11817321Y-44298784D01*
X11698151Y-44368884D01*
X11574975Y-44310801D01*
X11554946Y-44292775D01*
X11554946Y-44969742D01*
X11514889Y-45111946D01*
X11374689Y-45152003D01*
X11232486Y-45111946D01*
X11192428Y-44971745D01*
X11192428Y-43930258D01*
X11232486Y-43787053D01*
X11372686Y-43745994D01*
X11508881Y-43780043D01*
G37*
G36*
X9364818Y-43760014D02*
G01*
X9420898Y-43813090D01*
X9443931Y-43868169D01*
X9453945Y-43924249D01*
X9528051Y-44493062D01*
X9503015Y-44551144D01*
X9413888Y-44611230D01*
X9283702Y-44651288D01*
X9171541Y-44603219D01*
X9093430Y-44575179D01*
X9005304Y-44608226D01*
X8969253Y-44691345D01*
X9003301Y-44775465D01*
X9099438Y-44805508D01*
X9215604Y-44773462D01*
X9351799Y-44707368D01*
X9475976Y-44775465D01*
X9550082Y-44911660D01*
X9473974Y-45033834D01*
X9431913Y-45069886D01*
X9295719Y-45138984D01*
X9195576Y-45165272D01*
X9087421Y-45174034D01*
X8957235Y-45158123D01*
X8841737Y-45110388D01*
X8740926Y-45030830D01*
X8663037Y-44927905D01*
X8616304Y-44810070D01*
X8600726Y-44677325D01*
X8616749Y-44558155D01*
X8664818Y-44448999D01*
X8744932Y-44349857D01*
X8846188Y-44271412D01*
X8957680Y-44224344D01*
X9079410Y-44208655D01*
X9089424Y-44208655D01*
X9123473Y-44212661D01*
X9109453Y-44106509D01*
X8801012Y-44106509D01*
X8736921Y-44103505D01*
X8684846Y-44085479D01*
X8641785Y-44032403D01*
X8628766Y-43932260D01*
X8642786Y-43823104D01*
X8687851Y-43767024D01*
X8741928Y-43747997D01*
X8811026Y-43743991D01*
X9269682Y-43741989D01*
X9364818Y-43760014D01*
G37*
G36*
X10290028Y-43743769D02*
G01*
X10415541Y-43797179D01*
X10521470Y-43886195D01*
X10601584Y-43997242D01*
X10649653Y-44116746D01*
X10665676Y-44244707D01*
X10662672Y-44313805D01*
X10643644Y-44368884D01*
X10587564Y-44414950D01*
X10483416Y-44428970D01*
X10377264Y-44415951D01*
X10321184Y-44373891D01*
X10302157Y-44322818D01*
X10299152Y-44258727D01*
X10260097Y-44134049D01*
X10142929Y-44092489D01*
X10041785Y-44119528D01*
X9997722Y-44171602D01*
X9990712Y-44224678D01*
X10008487Y-44301788D01*
X10061813Y-44376896D01*
X10138172Y-44444993D01*
X10225046Y-44501073D01*
X10321685Y-44557403D01*
X10427335Y-44626252D01*
X10523974Y-44700107D01*
X10593573Y-44771459D01*
X10647650Y-44864092D01*
X10665676Y-44965737D01*
X10611599Y-45096924D01*
X10483416Y-45152003D01*
X9760383Y-45152003D01*
X9691284Y-45147997D01*
X9634202Y-45127969D01*
X9588137Y-45072890D01*
X9574117Y-44969742D01*
X9588137Y-44863591D01*
X9633201Y-44807511D01*
X9687278Y-44787482D01*
X9756377Y-44783476D01*
X10006735Y-44783476D01*
X9886563Y-44712375D01*
X9764388Y-44607225D01*
X9706556Y-44536123D01*
X9661241Y-44451001D01*
X9631949Y-44355866D01*
X9622185Y-44254721D01*
X9639098Y-44115188D01*
X9689837Y-43990343D01*
X9774403Y-43880186D01*
X9883225Y-43794508D01*
X10006735Y-43743101D01*
X10144932Y-43725966D01*
X10290028Y-43743769D01*
G37*
%TO.C,kibuzzard-693B565E*%
G36*
X2119136Y-40444466D02*
G01*
X2158478Y-40458057D01*
X2191382Y-40497399D01*
X2201396Y-40571076D01*
X2191382Y-40645468D01*
X2159193Y-40685525D01*
X2120567Y-40699116D01*
X2072641Y-40701262D01*
X2024715Y-40699116D01*
X1985373Y-40685525D01*
X1952469Y-40646183D01*
X1942455Y-40572506D01*
X1952469Y-40497399D01*
X1984658Y-40458057D01*
X2022569Y-40444466D01*
X2071210Y-40442320D01*
X2119136Y-40444466D01*
G37*
G36*
X2119136Y-43540318D02*
G01*
X2158478Y-43553908D01*
X2191382Y-43593250D01*
X2201396Y-43666927D01*
X2191382Y-43741319D01*
X2159193Y-43781376D01*
X2120567Y-43794967D01*
X2072641Y-43797113D01*
X2024715Y-43794967D01*
X1985373Y-43781376D01*
X1952469Y-43742034D01*
X1942455Y-43668358D01*
X1952469Y-43593250D01*
X1984658Y-43553908D01*
X2022569Y-43540318D01*
X2071210Y-43538172D01*
X2119136Y-43540318D01*
G37*
G36*
X2119136Y-47400117D02*
G01*
X2158478Y-47413708D01*
X2191382Y-47453050D01*
X2201396Y-47526727D01*
X2191382Y-47601119D01*
X2159193Y-47641176D01*
X2120567Y-47654767D01*
X2072641Y-47656913D01*
X2024715Y-47654767D01*
X1985373Y-47641176D01*
X1952469Y-47601834D01*
X1942455Y-47528157D01*
X1952469Y-47453050D01*
X1984658Y-47413708D01*
X2022569Y-47400117D01*
X2071210Y-47397971D01*
X2119136Y-47400117D01*
G37*
G36*
X2119136Y-48372936D02*
G01*
X2158478Y-48386526D01*
X2191382Y-48425868D01*
X2201396Y-48499545D01*
X2191382Y-48573937D01*
X2159193Y-48613994D01*
X2120567Y-48627585D01*
X2072641Y-48629731D01*
X2024715Y-48627585D01*
X1985373Y-48613994D01*
X1952469Y-48574652D01*
X1942455Y-48500976D01*
X1952469Y-48425868D01*
X1984658Y-48386526D01*
X2022569Y-48372936D01*
X2071210Y-48370790D01*
X2119136Y-48372936D01*
G37*
G36*
X1790094Y-40444466D02*
G01*
X1829436Y-40458057D01*
X1862340Y-40497399D01*
X1872355Y-40571076D01*
X1862340Y-40645468D01*
X1830152Y-40685525D01*
X1791525Y-40699116D01*
X1743599Y-40701262D01*
X1277219Y-40701262D01*
X1227863Y-40699116D01*
X1189236Y-40685525D01*
X1157047Y-40646183D01*
X1147033Y-40572506D01*
X1157047Y-40497399D01*
X1189236Y-40458057D01*
X1227147Y-40444466D01*
X1275788Y-40442320D01*
X1740738Y-40442320D01*
X1790094Y-40444466D01*
G37*
G36*
X1790094Y-43540318D02*
G01*
X1829436Y-43553908D01*
X1862340Y-43593250D01*
X1872355Y-43666927D01*
X1862340Y-43741319D01*
X1830152Y-43781376D01*
X1791525Y-43794967D01*
X1743599Y-43797113D01*
X1277219Y-43797113D01*
X1227863Y-43794967D01*
X1189236Y-43781376D01*
X1157047Y-43742034D01*
X1147033Y-43668358D01*
X1157047Y-43593250D01*
X1189236Y-43553908D01*
X1227147Y-43540318D01*
X1275788Y-43538172D01*
X1740738Y-43538172D01*
X1790094Y-43540318D01*
G37*
G36*
X1790094Y-47400117D02*
G01*
X1829436Y-47413708D01*
X1862340Y-47453050D01*
X1872355Y-47526727D01*
X1862340Y-47601119D01*
X1830152Y-47641176D01*
X1791525Y-47654767D01*
X1743599Y-47656913D01*
X1277219Y-47656913D01*
X1227863Y-47654767D01*
X1189236Y-47641176D01*
X1157047Y-47601834D01*
X1147033Y-47528157D01*
X1157047Y-47453050D01*
X1189236Y-47413708D01*
X1227147Y-47400117D01*
X1275788Y-47397971D01*
X1740738Y-47397971D01*
X1790094Y-47400117D01*
G37*
G36*
X1790094Y-48372936D02*
G01*
X1829436Y-48386526D01*
X1862340Y-48425868D01*
X1872355Y-48499545D01*
X1862340Y-48573937D01*
X1830152Y-48613994D01*
X1791525Y-48627585D01*
X1743599Y-48629731D01*
X1277219Y-48629731D01*
X1227863Y-48627585D01*
X1189236Y-48613994D01*
X1157047Y-48574652D01*
X1147033Y-48500976D01*
X1157047Y-48425868D01*
X1189236Y-48386526D01*
X1227147Y-48372936D01*
X1275788Y-48370790D01*
X1740738Y-48370790D01*
X1790094Y-48372936D01*
G37*
G36*
X1812269Y-46561777D02*
G01*
X1860910Y-46625439D01*
X1884515Y-46729874D01*
X1858585Y-46767785D01*
X1802255Y-46801405D01*
X1496103Y-46935883D01*
X1802255Y-47070361D01*
X1883800Y-47139745D01*
X1860910Y-47246326D01*
X1787233Y-47323579D01*
X1684944Y-47303551D01*
X1202827Y-47050332D01*
X1155617Y-47005268D01*
X1139880Y-46935883D01*
X1155617Y-46866498D01*
X1202827Y-46821433D01*
X1684944Y-46568215D01*
X1755044Y-46544609D01*
X1812269Y-46561777D01*
G37*
G36*
X1345888Y-43058200D02*
G01*
X1383084Y-43082521D01*
X1395245Y-43110418D01*
X1397391Y-43140461D01*
X1405259Y-43174080D01*
X1456046Y-43179087D01*
X2072641Y-43179087D01*
X2121282Y-43181948D01*
X2161339Y-43195539D01*
X2194243Y-43234166D01*
X2204258Y-43307843D01*
X2194243Y-43382235D01*
X2162054Y-43422292D01*
X2123428Y-43435883D01*
X2074072Y-43438029D01*
X1440309Y-43438029D01*
X1352863Y-43434452D01*
X1285087Y-43423722D01*
X1196389Y-43370790D01*
X1156332Y-43282092D01*
X1149358Y-43222006D01*
X1147033Y-43141891D01*
X1149179Y-43110418D01*
X1162054Y-43082521D01*
X1201396Y-43058200D01*
X1275788Y-43050332D01*
X1345888Y-43058200D01*
G37*
G36*
X1832298Y-32204123D02*
G01*
X1864486Y-32250618D01*
X1877362Y-32302120D01*
X1880938Y-32345039D01*
X1864486Y-32421577D01*
X1815130Y-32493823D01*
X1859122Y-32533880D01*
X1873785Y-32616856D01*
X1863771Y-32691963D01*
X1831582Y-32731305D01*
X1793671Y-32744896D01*
X1745030Y-32747041D01*
X1278649Y-32747041D01*
X1229293Y-32744896D01*
X1189951Y-32731305D01*
X1157047Y-32691963D01*
X1147033Y-32618286D01*
X1157047Y-32542464D01*
X1189236Y-32502406D01*
X1227147Y-32488815D01*
X1275788Y-32486670D01*
X1554758Y-32486670D01*
X1606976Y-32458773D01*
X1627720Y-32387957D01*
X1616990Y-32352907D01*
X1606260Y-32297828D01*
X1655617Y-32217714D01*
X1710874Y-32194109D01*
X1777934Y-32186240D01*
X1832298Y-32204123D01*
G37*
G36*
X1832298Y-37726298D02*
G01*
X1864486Y-37772793D01*
X1877362Y-37824295D01*
X1880938Y-37867213D01*
X1864486Y-37943751D01*
X1815130Y-38015997D01*
X1859122Y-38056054D01*
X1873785Y-38139030D01*
X1863771Y-38214137D01*
X1831582Y-38253479D01*
X1793671Y-38267070D01*
X1745030Y-38269216D01*
X1278649Y-38269216D01*
X1229293Y-38267070D01*
X1189951Y-38253479D01*
X1157047Y-38214137D01*
X1147033Y-38140461D01*
X1157047Y-38064638D01*
X1189236Y-38024581D01*
X1227147Y-38010990D01*
X1275788Y-38008844D01*
X1554758Y-38008844D01*
X1606976Y-37980947D01*
X1627720Y-37910132D01*
X1616990Y-37875082D01*
X1606260Y-37820003D01*
X1655617Y-37739888D01*
X1710874Y-37716283D01*
X1777934Y-37708415D01*
X1832298Y-37726298D01*
G37*
G36*
X1612301Y-32822308D02*
G01*
X1701953Y-32859265D01*
X1780795Y-32920861D01*
X1841994Y-33000101D01*
X1878713Y-33089992D01*
X1890953Y-33190532D01*
X1878475Y-33288768D01*
X1841040Y-33377466D01*
X1778649Y-33456627D01*
X1698932Y-33518620D01*
X1609519Y-33555816D01*
X1510409Y-33568215D01*
X1407961Y-33555021D01*
X1318071Y-33515441D01*
X1240738Y-33449474D01*
X1181527Y-33367611D01*
X1146000Y-33280343D01*
X1134523Y-33190532D01*
X1395960Y-33190532D01*
X1424572Y-33269216D01*
X1511840Y-33306412D01*
X1595531Y-33272793D01*
X1629150Y-33191963D01*
X1597677Y-33104695D01*
X1513270Y-33071791D01*
X1424572Y-33110418D01*
X1395960Y-33190532D01*
X1134523Y-33190532D01*
X1134157Y-33187671D01*
X1145761Y-33095873D01*
X1180573Y-33009321D01*
X1238592Y-32928014D01*
X1315369Y-32862444D01*
X1406451Y-32823103D01*
X1511840Y-32809989D01*
X1612301Y-32822308D01*
G37*
G36*
X1612301Y-40783681D02*
G01*
X1701953Y-40820639D01*
X1780795Y-40882235D01*
X1841994Y-40961475D01*
X1878713Y-41051365D01*
X1890953Y-41151906D01*
X1878475Y-41250141D01*
X1841040Y-41338839D01*
X1778649Y-41418000D01*
X1698932Y-41479993D01*
X1609519Y-41517189D01*
X1510409Y-41529588D01*
X1407961Y-41516395D01*
X1318071Y-41476814D01*
X1240738Y-41410847D01*
X1181527Y-41328984D01*
X1146000Y-41241716D01*
X1134523Y-41151906D01*
X1395960Y-41151906D01*
X1424572Y-41230589D01*
X1511840Y-41267785D01*
X1595531Y-41234166D01*
X1629150Y-41153336D01*
X1597677Y-41066069D01*
X1513270Y-41033165D01*
X1424572Y-41071791D01*
X1395960Y-41151906D01*
X1134523Y-41151906D01*
X1134157Y-41149044D01*
X1145761Y-41057247D01*
X1180573Y-40970694D01*
X1238592Y-40889388D01*
X1315369Y-40823818D01*
X1406451Y-40784476D01*
X1511840Y-40771362D01*
X1612301Y-40783681D01*
G37*
G36*
X1612301Y-43879532D02*
G01*
X1701953Y-43916490D01*
X1780795Y-43978086D01*
X1841994Y-44057326D01*
X1878713Y-44147216D01*
X1890953Y-44247757D01*
X1878475Y-44345992D01*
X1841040Y-44434691D01*
X1778649Y-44513851D01*
X1698932Y-44575845D01*
X1609519Y-44613041D01*
X1510409Y-44625439D01*
X1407961Y-44612246D01*
X1318071Y-44572665D01*
X1240738Y-44506698D01*
X1181527Y-44424835D01*
X1146000Y-44337568D01*
X1134523Y-44247757D01*
X1395960Y-44247757D01*
X1424572Y-44326441D01*
X1511840Y-44363637D01*
X1595531Y-44330017D01*
X1629150Y-44249187D01*
X1597677Y-44161920D01*
X1513270Y-44129016D01*
X1424572Y-44167642D01*
X1395960Y-44247757D01*
X1134523Y-44247757D01*
X1134157Y-44244896D01*
X1145761Y-44153098D01*
X1180573Y-44066546D01*
X1238592Y-43985239D01*
X1315369Y-43919669D01*
X1406451Y-43880327D01*
X1511840Y-43867213D01*
X1612301Y-43879532D01*
G37*
G36*
X1769351Y-48729159D02*
G01*
X1800109Y-48756340D01*
X1825144Y-48794252D01*
X1868063Y-48889388D01*
X1882369Y-48991677D01*
X1876289Y-49052657D01*
X1858049Y-49115425D01*
X1828900Y-49177299D01*
X1790094Y-49235597D01*
X1739129Y-49286920D01*
X1673499Y-49327871D01*
X1596961Y-49354695D01*
X1513270Y-49363637D01*
X1428328Y-49354695D01*
X1350896Y-49327871D01*
X1284551Y-49286741D01*
X1232870Y-49234881D01*
X1193528Y-49176047D01*
X1164200Y-49113994D01*
X1145960Y-49050868D01*
X1139880Y-48988815D01*
X1153828Y-48891534D01*
X1195674Y-48794252D01*
X1251627Y-48732100D01*
X1312666Y-48717316D01*
X1378793Y-48749903D01*
X1435660Y-48807485D01*
X1454615Y-48857199D01*
X1423142Y-48931591D01*
X1404544Y-48994538D01*
X1436017Y-49066784D01*
X1511840Y-49097542D01*
X1586947Y-49066069D01*
X1617705Y-48991677D01*
X1591954Y-48919431D01*
X1566203Y-48848615D01*
X1585874Y-48797113D01*
X1644887Y-48745611D01*
X1726432Y-48715568D01*
X1769351Y-48729159D01*
G37*
G36*
X1792956Y-38357199D02*
G01*
X1832298Y-38370790D01*
X1865202Y-38410847D01*
X1875216Y-38485239D01*
X1865202Y-38560346D01*
X1833013Y-38599688D01*
X1794386Y-38613279D01*
X1746461Y-38615425D01*
X1511840Y-38615425D01*
X1436732Y-38643322D01*
X1408835Y-38718429D01*
X1436017Y-38794252D01*
X1511840Y-38821433D01*
X1743599Y-38821433D01*
X1792956Y-38823579D01*
X1832298Y-38837170D01*
X1865202Y-38877227D01*
X1875216Y-38951619D01*
X1865202Y-39026011D01*
X1833013Y-39066069D01*
X1794386Y-39079660D01*
X1745030Y-39081805D01*
X1511840Y-39081805D01*
X1415194Y-39071473D01*
X1329357Y-39040477D01*
X1254329Y-38988815D01*
X1196310Y-38921735D01*
X1161498Y-38844482D01*
X1149894Y-38757056D01*
X1166346Y-38679445D01*
X1215702Y-38609702D01*
X1165273Y-38570718D01*
X1148464Y-38485239D01*
X1156332Y-38422292D01*
X1174215Y-38383665D01*
X1203542Y-38363637D01*
X1236446Y-38355768D01*
X1274358Y-38355053D01*
X1745030Y-38355053D01*
X1792956Y-38357199D01*
G37*
G36*
X1791525Y-49444466D02*
G01*
X1830867Y-49458057D01*
X1863771Y-49497399D01*
X1873785Y-49571076D01*
X1859122Y-49657628D01*
X1815130Y-49694109D01*
X1858049Y-49760275D01*
X1872355Y-49844323D01*
X1860115Y-49926345D01*
X1823396Y-50002645D01*
X1762197Y-50073222D01*
X1685580Y-50129652D01*
X1602604Y-50163509D01*
X1513270Y-50174795D01*
X1421552Y-50163589D01*
X1337146Y-50129969D01*
X1260052Y-50073937D01*
X1198853Y-50003598D01*
X1162134Y-49927061D01*
X1149894Y-49844323D01*
X1155517Y-49808558D01*
X1408835Y-49808558D01*
X1439594Y-49883665D01*
X1510409Y-49915854D01*
X1583371Y-49885096D01*
X1614844Y-49811419D01*
X1584801Y-49739173D01*
X1511840Y-49709845D01*
X1439594Y-49739173D01*
X1408835Y-49808558D01*
X1155517Y-49808558D01*
X1162770Y-49762421D01*
X1201396Y-49694109D01*
X1162770Y-49653694D01*
X1149894Y-49572506D01*
X1159908Y-49498114D01*
X1192097Y-49458057D01*
X1230009Y-49444466D01*
X1278649Y-49442320D01*
X1743599Y-49442320D01*
X1791525Y-49444466D01*
G37*
G36*
X1791525Y-51015282D02*
G01*
X1830867Y-51028873D01*
X1863771Y-51068215D01*
X1873785Y-51141891D01*
X1859122Y-51228443D01*
X1815130Y-51264924D01*
X1858049Y-51331090D01*
X1872355Y-51415139D01*
X1860115Y-51497161D01*
X1823396Y-51573460D01*
X1762197Y-51644037D01*
X1685580Y-51700467D01*
X1602604Y-51734325D01*
X1513270Y-51745611D01*
X1421552Y-51734404D01*
X1337146Y-51700785D01*
X1260052Y-51644753D01*
X1198853Y-51574414D01*
X1162134Y-51497876D01*
X1149894Y-51415139D01*
X1155517Y-51379373D01*
X1408835Y-51379373D01*
X1439594Y-51454481D01*
X1510409Y-51486670D01*
X1583371Y-51455911D01*
X1614844Y-51382235D01*
X1584801Y-51309989D01*
X1511840Y-51280661D01*
X1439594Y-51309989D01*
X1408835Y-51379373D01*
X1155517Y-51379373D01*
X1162770Y-51333236D01*
X1201396Y-51264924D01*
X1162770Y-51224509D01*
X1149894Y-51143322D01*
X1159908Y-51068930D01*
X1192097Y-51028873D01*
X1230009Y-51015282D01*
X1278649Y-51013136D01*
X1743599Y-51013136D01*
X1791525Y-51015282D01*
G37*
G36*
X1611347Y-34290516D02*
G01*
X1698138Y-34315790D01*
X1772212Y-34357914D01*
X1828642Y-34415457D01*
X1862499Y-34486987D01*
X1873785Y-34572506D01*
X1846604Y-34676226D01*
X1785087Y-34752764D01*
X1814415Y-34757056D01*
X1841597Y-34772793D01*
X1865202Y-34811419D01*
X1873785Y-34878658D01*
X1864486Y-34953050D01*
X1833728Y-34992392D01*
X1796532Y-35005983D01*
X1749322Y-35008844D01*
X1278649Y-35008844D01*
X1229293Y-35006698D01*
X1190667Y-34993107D01*
X1158478Y-34953765D01*
X1148464Y-34880089D01*
X1158478Y-34805697D01*
X1190667Y-34765639D01*
X1229293Y-34752049D01*
X1277219Y-34749903D01*
X1511840Y-34749903D01*
X1586947Y-34721290D01*
X1614844Y-34645468D01*
X1587662Y-34570361D01*
X1511840Y-34543894D01*
X1278649Y-34543894D01*
X1230724Y-34541748D01*
X1191382Y-34528157D01*
X1158478Y-34488100D01*
X1148464Y-34412278D01*
X1158478Y-34337170D01*
X1190667Y-34297828D01*
X1229293Y-34284237D01*
X1277219Y-34282092D01*
X1511840Y-34282092D01*
X1611347Y-34290516D01*
G37*
G36*
X1701039Y-35094502D02*
G01*
X1796532Y-35158343D01*
X1848193Y-35223436D01*
X1879190Y-35305220D01*
X1889522Y-35403694D01*
X1877680Y-35512023D01*
X1842153Y-35606205D01*
X1782941Y-35686240D01*
X1704973Y-35747041D01*
X1613175Y-35783522D01*
X1507548Y-35795682D01*
X1442455Y-35790139D01*
X1378793Y-35773508D01*
X1317276Y-35745969D01*
X1258621Y-35707700D01*
X1206940Y-35655303D01*
X1166346Y-35585382D01*
X1140059Y-35500976D01*
X1131296Y-35405124D01*
X1139433Y-35274938D01*
X1163843Y-35181948D01*
X1204526Y-35126155D01*
X1261482Y-35107557D01*
X1327290Y-35126155D01*
X1378793Y-35164781D01*
X1395960Y-35211991D01*
X1377362Y-35277800D01*
X1358764Y-35393680D01*
X1378793Y-35478086D01*
X1433156Y-35521004D01*
X1433156Y-35360775D01*
X1567634Y-35360775D01*
X1567634Y-35521004D01*
X1631296Y-35487385D01*
X1659193Y-35406555D01*
X1644172Y-35345039D01*
X1601969Y-35322149D01*
X1567634Y-35360775D01*
X1433156Y-35360775D01*
X1433156Y-35216283D01*
X1444064Y-35158165D01*
X1476790Y-35112564D01*
X1529544Y-35083057D01*
X1600538Y-35073222D01*
X1701039Y-35094502D01*
G37*
G36*
X1701039Y-36971469D02*
G01*
X1796532Y-37035310D01*
X1848193Y-37100403D01*
X1879190Y-37182187D01*
X1889522Y-37280661D01*
X1877680Y-37388990D01*
X1842153Y-37483172D01*
X1782941Y-37563207D01*
X1704973Y-37624009D01*
X1613175Y-37660489D01*
X1507548Y-37672649D01*
X1442455Y-37667106D01*
X1378793Y-37650475D01*
X1317276Y-37622936D01*
X1258621Y-37584667D01*
X1206940Y-37532270D01*
X1166346Y-37462349D01*
X1140059Y-37377943D01*
X1131296Y-37282092D01*
X1139433Y-37151906D01*
X1163843Y-37058916D01*
X1204526Y-37003122D01*
X1261482Y-36984524D01*
X1327290Y-37003122D01*
X1378793Y-37041748D01*
X1395960Y-37088959D01*
X1377362Y-37154767D01*
X1358764Y-37270647D01*
X1378793Y-37355053D01*
X1433156Y-37397971D01*
X1433156Y-37237742D01*
X1567634Y-37237742D01*
X1567634Y-37397971D01*
X1631296Y-37364352D01*
X1659193Y-37283522D01*
X1644172Y-37222006D01*
X1601969Y-37199116D01*
X1567634Y-37237742D01*
X1433156Y-37237742D01*
X1433156Y-37093250D01*
X1444064Y-37035132D01*
X1476790Y-36989531D01*
X1529544Y-36960024D01*
X1600538Y-36950189D01*
X1701039Y-36971469D01*
G37*
G36*
X1701039Y-45799795D02*
G01*
X1796532Y-45863637D01*
X1848193Y-45928730D01*
X1879190Y-46010513D01*
X1889522Y-46108987D01*
X1877680Y-46217316D01*
X1842153Y-46311499D01*
X1782941Y-46391534D01*
X1704973Y-46452335D01*
X1613175Y-46488815D01*
X1507548Y-46500976D01*
X1442455Y-46495432D01*
X1378793Y-46478801D01*
X1317276Y-46451262D01*
X1258621Y-46412993D01*
X1206940Y-46360597D01*
X1166346Y-46290675D01*
X1140059Y-46206269D01*
X1131296Y-46110418D01*
X1139433Y-45980232D01*
X1163843Y-45887242D01*
X1204526Y-45831448D01*
X1261482Y-45812850D01*
X1327290Y-45831448D01*
X1378793Y-45870074D01*
X1395960Y-45917285D01*
X1377362Y-45983093D01*
X1358764Y-46098973D01*
X1378793Y-46183379D01*
X1433156Y-46226298D01*
X1433156Y-46066069D01*
X1567634Y-46066069D01*
X1567634Y-46226298D01*
X1631296Y-46192678D01*
X1659193Y-46111848D01*
X1644172Y-46050332D01*
X1601969Y-46027442D01*
X1567634Y-46066069D01*
X1433156Y-46066069D01*
X1433156Y-45921577D01*
X1444064Y-45863458D01*
X1476790Y-45817857D01*
X1529544Y-45788351D01*
X1600538Y-45778515D01*
X1701039Y-45799795D01*
G37*
G36*
X1602604Y-50221847D02*
G01*
X1685580Y-50255705D01*
X1762197Y-50312134D01*
X1823396Y-50382711D01*
X1860115Y-50459011D01*
X1872355Y-50541033D01*
X1861268Y-50615783D01*
X1828006Y-50682664D01*
X1862340Y-50729516D01*
X1873785Y-50807127D01*
X1863771Y-50879373D01*
X1831582Y-50918000D01*
X1793671Y-50930876D01*
X1746461Y-50933021D01*
X969637Y-50933021D01*
X931010Y-50932306D01*
X898821Y-50925153D01*
X869494Y-50905840D01*
X851611Y-50867928D01*
X843742Y-50805697D01*
X853757Y-50731305D01*
X884515Y-50691247D01*
X923857Y-50677657D01*
X971067Y-50676941D01*
X1201396Y-50676941D01*
X1173499Y-50614352D01*
X1168555Y-50575368D01*
X1407405Y-50575368D01*
X1438163Y-50646898D01*
X1510409Y-50676941D01*
X1583371Y-50646898D01*
X1613413Y-50573937D01*
X1583371Y-50500976D01*
X1510409Y-50470933D01*
X1438163Y-50502406D01*
X1407405Y-50575368D01*
X1168555Y-50575368D01*
X1164200Y-50541033D01*
X1175725Y-50457580D01*
X1210298Y-50380804D01*
X1267920Y-50310704D01*
X1341279Y-50255069D01*
X1423062Y-50221688D01*
X1513270Y-50210561D01*
X1602604Y-50221847D01*
G37*
G36*
X1804401Y-39146898D02*
G01*
X1843742Y-39165496D01*
X1863771Y-39196255D01*
X1871639Y-39229874D01*
X1872355Y-39267785D01*
X1869494Y-39343608D01*
X1983943Y-39343608D01*
X2031868Y-39346469D01*
X2071926Y-39360775D01*
X2104114Y-39400117D01*
X2114129Y-39472363D01*
X2104830Y-39547471D01*
X2074787Y-39586813D01*
X2037591Y-39600403D01*
X1989665Y-39602549D01*
X1865202Y-39602549D01*
X1865202Y-39632592D01*
X1834443Y-39701262D01*
X1742169Y-39724152D01*
X1647748Y-39704838D01*
X1616275Y-39638315D01*
X1616275Y-39602549D01*
X1434587Y-39602549D01*
X1344935Y-39594522D01*
X1272450Y-39570440D01*
X1217133Y-39530303D01*
X1178189Y-39473317D01*
X1154822Y-39398687D01*
X1147033Y-39306412D01*
X1149179Y-39259917D01*
X1162770Y-39220575D01*
X1202112Y-39186956D01*
X1275788Y-39176226D01*
X1341597Y-39184810D01*
X1376647Y-39213422D01*
X1390237Y-39252049D01*
X1393099Y-39304981D01*
X1404544Y-39335740D01*
X1447462Y-39343608D01*
X1613413Y-39343608D01*
X1611983Y-39269216D01*
X1615559Y-39220575D01*
X1630581Y-39181233D01*
X1669923Y-39149760D01*
X1740738Y-39139030D01*
X1804401Y-39146898D01*
G37*
G36*
X1804401Y-47729159D02*
G01*
X1843742Y-47747757D01*
X1863771Y-47778515D01*
X1871639Y-47812134D01*
X1872355Y-47850046D01*
X1869494Y-47925868D01*
X1983943Y-47925868D01*
X2031868Y-47928730D01*
X2071926Y-47943036D01*
X2104114Y-47982378D01*
X2114129Y-48054624D01*
X2104830Y-48129731D01*
X2074787Y-48169073D01*
X2037591Y-48182664D01*
X1989665Y-48184810D01*
X1865202Y-48184810D01*
X1865202Y-48214853D01*
X1834443Y-48283522D01*
X1742169Y-48306412D01*
X1647748Y-48287099D01*
X1616275Y-48220575D01*
X1616275Y-48184810D01*
X1434587Y-48184810D01*
X1344935Y-48176782D01*
X1272450Y-48152700D01*
X1217133Y-48112564D01*
X1178189Y-48055577D01*
X1154822Y-47980947D01*
X1147033Y-47888672D01*
X1149179Y-47842177D01*
X1162770Y-47802835D01*
X1202112Y-47769216D01*
X1275788Y-47758486D01*
X1341597Y-47767070D01*
X1376647Y-47795682D01*
X1390237Y-47834309D01*
X1393099Y-47887242D01*
X1404544Y-47918000D01*
X1447462Y-47925868D01*
X1613413Y-47925868D01*
X1611983Y-47851476D01*
X1615559Y-47802835D01*
X1630581Y-47763494D01*
X1669923Y-47732020D01*
X1740738Y-47721290D01*
X1804401Y-47729159D01*
G37*
G36*
X2065488Y-41592535D02*
G01*
X2104830Y-41606126D01*
X2137019Y-41645468D01*
X2147033Y-41719860D01*
X2138449Y-41795682D01*
X2105545Y-41838601D01*
X1732155Y-42129016D01*
X2106976Y-42420861D01*
X2116990Y-42430160D01*
X2127720Y-42440890D01*
X2134873Y-42453050D01*
X2141310Y-42471648D01*
X2144887Y-42497399D01*
X2147033Y-42535310D01*
X2137019Y-42611133D01*
X2104830Y-42651190D01*
X2066203Y-42664781D01*
X2018278Y-42666927D01*
X1280080Y-42666927D01*
X1230009Y-42664066D01*
X1190667Y-42650475D01*
X1158478Y-42611848D01*
X1148464Y-42538172D01*
X1158478Y-42462349D01*
X1190667Y-42422292D01*
X1229293Y-42408701D01*
X1277219Y-42406555D01*
X1684944Y-42406555D01*
X1458907Y-42240604D01*
X1414916Y-42193393D01*
X1400252Y-42129016D01*
X1404544Y-42089674D01*
X1417419Y-42059631D01*
X1431725Y-42041033D01*
X1447462Y-42027442D01*
X1458907Y-42018858D01*
X1686375Y-41851476D01*
X1280080Y-41851476D01*
X1230724Y-41849330D01*
X1191382Y-41835740D01*
X1158478Y-41795682D01*
X1148464Y-41721290D01*
X1158478Y-41646183D01*
X1189951Y-41606841D01*
X1228578Y-41592535D01*
X1277219Y-41589674D01*
X2015416Y-41589674D01*
X2065488Y-41592535D01*
G37*
G36*
X1484658Y-33629016D02*
G01*
X1550466Y-33684810D01*
X1583371Y-33753479D01*
X1601969Y-33831448D01*
X1605545Y-33854338D01*
X1609122Y-33877227D01*
X1613413Y-33897256D01*
X1618421Y-33915854D01*
X1623428Y-33931591D01*
X1629866Y-33945182D01*
X1637734Y-33954481D01*
X1647748Y-33960918D01*
X1660624Y-33963064D01*
X1689236Y-33910132D01*
X1663485Y-33821433D01*
X1637734Y-33742750D01*
X1692097Y-33671219D01*
X1781511Y-33640103D01*
X1840881Y-33695539D01*
X1876289Y-33795325D01*
X1888092Y-33894395D01*
X1881654Y-33985557D01*
X1862340Y-34060664D01*
X1830152Y-34119717D01*
X1759157Y-34177120D01*
X1662054Y-34196255D01*
X1581672Y-34185257D01*
X1516489Y-34152263D01*
X1466507Y-34097274D01*
X1431725Y-34020289D01*
X1412412Y-33943036D01*
X1392383Y-33872220D01*
X1367348Y-33851476D01*
X1344458Y-33905840D01*
X1379508Y-34012421D01*
X1414558Y-34111848D01*
X1385946Y-34167642D01*
X1319422Y-34207342D01*
X1268635Y-34220575D01*
X1216060Y-34195718D01*
X1172784Y-34121147D01*
X1143814Y-34023329D01*
X1134157Y-33928730D01*
X1144057Y-33813880D01*
X1173757Y-33724552D01*
X1223256Y-33660747D01*
X1292555Y-33622464D01*
X1381654Y-33609702D01*
X1484658Y-33629016D01*
G37*
G36*
X1484658Y-39779230D02*
G01*
X1550466Y-39835024D01*
X1583371Y-39903694D01*
X1601969Y-39981662D01*
X1605545Y-40004552D01*
X1609122Y-40027442D01*
X1613413Y-40047471D01*
X1618421Y-40066069D01*
X1623428Y-40081805D01*
X1629866Y-40095396D01*
X1637734Y-40104695D01*
X1647748Y-40111133D01*
X1660624Y-40113279D01*
X1689236Y-40060346D01*
X1663485Y-39971648D01*
X1637734Y-39892964D01*
X1692097Y-39821433D01*
X1781511Y-39790318D01*
X1840881Y-39845754D01*
X1876289Y-39945539D01*
X1888092Y-40044609D01*
X1881654Y-40135771D01*
X1862340Y-40210879D01*
X1830152Y-40269931D01*
X1759157Y-40327335D01*
X1662054Y-40346469D01*
X1581672Y-40335471D01*
X1516489Y-40302478D01*
X1466507Y-40247489D01*
X1431725Y-40170504D01*
X1412412Y-40093250D01*
X1392383Y-40022435D01*
X1367348Y-40001691D01*
X1344458Y-40056054D01*
X1379508Y-40162635D01*
X1414558Y-40262063D01*
X1385946Y-40317857D01*
X1319422Y-40357557D01*
X1268635Y-40370790D01*
X1216060Y-40345933D01*
X1172784Y-40271362D01*
X1143814Y-40173544D01*
X1134157Y-40078944D01*
X1144057Y-39964094D01*
X1173757Y-39874767D01*
X1223256Y-39810961D01*
X1292555Y-39772678D01*
X1381654Y-39759917D01*
X1484658Y-39779230D01*
G37*
G36*
X1577290Y-35850582D02*
G01*
X1654901Y-35890818D01*
X1709265Y-35953587D01*
X1746461Y-36034595D01*
X1768635Y-36126155D01*
X1786518Y-36213422D01*
X1811554Y-36269931D01*
X1858049Y-36294967D01*
X1901682Y-36272077D01*
X1919565Y-36219144D01*
X1914558Y-36171934D01*
X1903828Y-36144037D01*
X1887376Y-36124009D01*
X1873785Y-36107557D01*
X1847319Y-36011705D01*
X1916704Y-35927299D01*
X2004687Y-35892964D01*
X2078363Y-35944466D01*
X2126051Y-36018699D01*
X2154663Y-36109782D01*
X2164200Y-36217714D01*
X2154583Y-36309432D01*
X2125733Y-36390024D01*
X2077648Y-36459488D01*
X2014939Y-36512739D01*
X1942216Y-36544689D01*
X1859479Y-36555339D01*
X1766489Y-36543894D01*
X1689236Y-36509559D01*
X1627720Y-36452335D01*
X1581940Y-36372220D01*
X1562448Y-36318036D01*
X1544029Y-36249903D01*
X1510409Y-36137599D01*
X1466060Y-36100403D01*
X1399536Y-36126155D01*
X1378793Y-36210561D01*
X1392383Y-36267070D01*
X1444601Y-36325010D01*
X1496739Y-36389547D01*
X1506276Y-36451540D01*
X1473213Y-36510990D01*
X1381654Y-36571076D01*
X1288664Y-36535310D01*
X1278649Y-36526727D01*
X1258621Y-36510990D01*
X1233585Y-36485954D01*
X1205688Y-36451619D01*
X1178506Y-36407270D01*
X1154901Y-36352192D01*
X1139165Y-36284953D01*
X1132727Y-36204838D01*
X1143456Y-36109702D01*
X1179937Y-36011705D01*
X1243599Y-35923722D01*
X1340166Y-35861491D01*
X1402040Y-35843250D01*
X1470352Y-35837170D01*
X1577290Y-35850582D01*
G37*
G36*
X1577290Y-44678908D02*
G01*
X1654901Y-44719144D01*
X1709265Y-44781913D01*
X1746461Y-44862921D01*
X1768635Y-44954481D01*
X1786518Y-45041748D01*
X1811554Y-45098258D01*
X1858049Y-45123293D01*
X1901682Y-45100403D01*
X1919565Y-45047471D01*
X1914558Y-45000260D01*
X1903828Y-44972363D01*
X1887376Y-44952335D01*
X1873785Y-44935883D01*
X1847319Y-44840031D01*
X1916704Y-44755625D01*
X2004687Y-44721290D01*
X2078363Y-44772793D01*
X2126051Y-44847026D01*
X2154663Y-44938108D01*
X2164200Y-45046040D01*
X2154583Y-45137758D01*
X2125733Y-45218350D01*
X2077648Y-45287814D01*
X2014939Y-45341065D01*
X1942216Y-45373015D01*
X1859479Y-45383665D01*
X1766489Y-45372220D01*
X1689236Y-45337886D01*
X1627720Y-45280661D01*
X1581940Y-45200546D01*
X1562448Y-45146362D01*
X1544029Y-45078229D01*
X1510409Y-44965926D01*
X1466060Y-44928730D01*
X1399536Y-44954481D01*
X1378793Y-45038887D01*
X1392383Y-45095396D01*
X1444601Y-45153336D01*
X1496739Y-45217873D01*
X1506276Y-45279866D01*
X1473213Y-45339316D01*
X1381654Y-45399402D01*
X1288664Y-45363637D01*
X1278649Y-45355053D01*
X1258621Y-45339316D01*
X1233585Y-45314280D01*
X1205688Y-45279946D01*
X1178506Y-45235597D01*
X1154901Y-45180518D01*
X1139165Y-45113279D01*
X1132727Y-45033165D01*
X1143456Y-44938029D01*
X1179937Y-44840031D01*
X1243599Y-44752049D01*
X1340166Y-44689817D01*
X1402040Y-44671577D01*
X1470352Y-44665496D01*
X1577290Y-44678908D01*
G37*
G36*
X2021139Y-51799259D02*
G01*
X2051182Y-51825725D01*
X2078363Y-51864352D01*
X2122871Y-51954640D01*
X2149576Y-52042384D01*
X2158478Y-52127585D01*
X2154186Y-52190711D01*
X2141310Y-52257056D01*
X2118599Y-52325725D01*
X2084801Y-52395825D01*
X2041167Y-52462886D01*
X1988950Y-52522435D01*
X1924751Y-52573222D01*
X1845173Y-52613994D01*
X1753614Y-52640818D01*
X1653471Y-52649760D01*
X1549393Y-52640639D01*
X1454615Y-52613279D01*
X1372534Y-52571970D01*
X1306546Y-52521004D01*
X1252898Y-52461455D01*
X1207834Y-52394395D01*
X1172963Y-52324652D01*
X1149894Y-52257056D01*
X1137019Y-52192499D01*
X1132727Y-52131877D01*
X1141628Y-52039364D01*
X1168333Y-51950666D01*
X1212841Y-51865783D01*
X1256475Y-51807127D01*
X1308692Y-51787099D01*
X1391668Y-51818572D01*
X1452827Y-51870074D01*
X1473213Y-51918715D01*
X1444601Y-51990246D01*
X1409193Y-52062134D01*
X1397391Y-52137599D01*
X1420280Y-52246326D01*
X1452290Y-52298007D01*
X1502541Y-52344323D01*
X1568170Y-52377049D01*
X1646318Y-52387957D01*
X1707119Y-52381877D01*
X1760767Y-52363637D01*
X1838735Y-52299974D01*
X1880938Y-52219144D01*
X1895245Y-52137599D01*
X1893814Y-52103265D01*
X1888807Y-52074652D01*
X1883084Y-52051763D01*
X1875931Y-52032449D01*
X1868063Y-52018858D01*
X1860195Y-52006698D01*
X1853757Y-51997399D01*
X1820853Y-51920146D01*
X1840166Y-51870790D01*
X1898106Y-51817142D01*
X1978220Y-51785668D01*
X2021139Y-51799259D01*
G37*
%TO.C,kibuzzard-69693786*%
G36*
X1848755Y-25858841D02*
G01*
X1899828Y-25909914D01*
X1916853Y-25970000D01*
X1919857Y-26043104D01*
X1908591Y-26192318D01*
X1874793Y-26359557D01*
X1822468Y-26491745D01*
X1755622Y-26535808D01*
X1685773Y-26491996D01*
X1632446Y-26360558D01*
X1598648Y-26193569D01*
X1587382Y-26043104D01*
X1590386Y-25971001D01*
X1607411Y-25909914D01*
X1657482Y-25858841D01*
X1751617Y-25842818D01*
X1848755Y-25858841D01*
G37*
G36*
X2260343Y-25858841D02*
G01*
X2310415Y-25909914D01*
X2327439Y-25970000D01*
X2330443Y-26043104D01*
X2326438Y-26130229D01*
X2314421Y-26231373D01*
X2292389Y-26337024D01*
X2258340Y-26437668D01*
X2166209Y-26535808D01*
X2097861Y-26491996D01*
X2045036Y-26360558D01*
X2011237Y-26193569D01*
X1999971Y-26043104D01*
X2002976Y-25971001D01*
X2020000Y-25909914D01*
X2070072Y-25858841D01*
X2164206Y-25842818D01*
X2260343Y-25858841D01*
G37*
G36*
X11587668Y-26283448D02*
G01*
X11660773Y-26416638D01*
X11587668Y-26539814D01*
X11395393Y-26734092D01*
X11587668Y-26930372D01*
X11659771Y-27052546D01*
X11587668Y-27184735D01*
X11458484Y-27256838D01*
X11335308Y-27184735D01*
X11141030Y-26990458D01*
X10948755Y-27184735D01*
X10824578Y-27257840D01*
X10696395Y-27184735D01*
X10622289Y-27053548D01*
X10696395Y-26930372D01*
X10888670Y-26734092D01*
X10696395Y-26539814D01*
X10622289Y-26415637D01*
X10696395Y-26283448D01*
X10822575Y-26211345D01*
X10948755Y-26283448D01*
X11141030Y-26479728D01*
X11335308Y-26283448D01*
X11459485Y-26210343D01*
X11587668Y-26283448D01*
G37*
G36*
X12041316Y-26247897D02*
G01*
X12092389Y-26309485D01*
X12185021Y-26249399D01*
X12302690Y-26229371D01*
X12417520Y-26246506D01*
X12524340Y-26297913D01*
X12623147Y-26383591D01*
X12702149Y-26490855D01*
X12749550Y-26607021D01*
X12765351Y-26732089D01*
X12749661Y-26860494D01*
X12702594Y-26978663D01*
X12624149Y-27086595D01*
X12525675Y-27172273D01*
X12418522Y-27223680D01*
X12302690Y-27240815D01*
X12252618Y-27232944D01*
X12188026Y-27222790D01*
X12092389Y-27168712D01*
X12035808Y-27222790D01*
X11922146Y-27240815D01*
X11817997Y-27226795D01*
X11761917Y-27181731D01*
X11742890Y-27128655D01*
X11739886Y-27060558D01*
X11739886Y-26734092D01*
X12114421Y-26734092D01*
X12155479Y-26835236D01*
X12252618Y-26878298D01*
X12357768Y-26835236D01*
X12402833Y-26736094D01*
X12359771Y-26633948D01*
X12256624Y-26589886D01*
X12155479Y-26631946D01*
X12114421Y-26734092D01*
X11739886Y-26734092D01*
X11739886Y-26409628D01*
X11742890Y-26342532D01*
X11761917Y-26287454D01*
X11816996Y-26241388D01*
X11920143Y-26227368D01*
X12041316Y-26247897D01*
G37*
G36*
X5672217Y-25782732D02*
G01*
X5727296Y-25827797D01*
X5746323Y-25881874D01*
X5749328Y-25948970D01*
X5749328Y-27062561D01*
X5746323Y-27131660D01*
X5727296Y-27185737D01*
X5672217Y-27230801D01*
X5569070Y-27244821D01*
X5464921Y-27230801D01*
X5408841Y-27185737D01*
X5389814Y-27132661D01*
X5386810Y-27064564D01*
X5386810Y-26704049D01*
X5332732Y-26625937D01*
X5232589Y-26591888D01*
X5134449Y-26630944D01*
X5098398Y-26734092D01*
X5098398Y-27060558D01*
X5094392Y-27131660D01*
X5074363Y-27186738D01*
X5019285Y-27230801D01*
X4916137Y-27244821D01*
X4811989Y-27230801D01*
X4755908Y-27185737D01*
X4736881Y-27131660D01*
X4733877Y-27064564D01*
X4733877Y-26736094D01*
X4748342Y-26600790D01*
X4791737Y-26480618D01*
X4864063Y-26375579D01*
X4957752Y-26294352D01*
X5065239Y-26245616D01*
X5186524Y-26229371D01*
X5291674Y-26250901D01*
X5386810Y-26315494D01*
X5386810Y-25950973D01*
X5389814Y-25881874D01*
X5408841Y-25827797D01*
X5463920Y-25782732D01*
X5567067Y-25768712D01*
X5672217Y-25782732D01*
G37*
G36*
X9997396Y-25855837D02*
G01*
X10053476Y-25900901D01*
X10072504Y-25955980D01*
X10075508Y-26023076D01*
X10075508Y-27058555D01*
X10070501Y-27129657D01*
X10049471Y-27185737D01*
X9994392Y-27228798D01*
X9893247Y-27242818D01*
X9708984Y-27242818D01*
X9552761Y-27242818D01*
X9411935Y-27229862D01*
X9281874Y-27190994D01*
X9162579Y-27126214D01*
X9054049Y-27035522D01*
X8963795Y-26926554D01*
X8899328Y-26806946D01*
X8860647Y-26676697D01*
X8848487Y-26543820D01*
X9214278Y-26543820D01*
X9238813Y-26671753D01*
X9312418Y-26779156D01*
X9420072Y-26852010D01*
X9546753Y-26876295D01*
X9708984Y-26876295D01*
X9708984Y-26209342D01*
X9548755Y-26209342D01*
X9420572Y-26233877D01*
X9312418Y-26307482D01*
X9238813Y-26415637D01*
X9214278Y-26543820D01*
X8848487Y-26543820D01*
X8847754Y-26535808D01*
X8860647Y-26398612D01*
X8899328Y-26271431D01*
X8963795Y-26154263D01*
X9054049Y-26047110D01*
X9162203Y-25957732D01*
X9280372Y-25893891D01*
X9408555Y-25855587D01*
X9546753Y-25842818D01*
X9891245Y-25842818D01*
X9997396Y-25855837D01*
G37*
G36*
X8392548Y-26221915D02*
G01*
X8524403Y-26271653D01*
X8636452Y-26354549D01*
X8721574Y-26463705D01*
X8772647Y-26592222D01*
X8789671Y-26740100D01*
X8781910Y-26831230D01*
X8758627Y-26920358D01*
X8720072Y-27006481D01*
X8666495Y-27088598D01*
X8593140Y-27160951D01*
X8495250Y-27217783D01*
X8377082Y-27254585D01*
X8242890Y-27266853D01*
X8060629Y-27255461D01*
X7930443Y-27221288D01*
X7852332Y-27164331D01*
X7826295Y-27084592D01*
X7852332Y-26992461D01*
X7906409Y-26920358D01*
X7972504Y-26896323D01*
X8064635Y-26922361D01*
X8226867Y-26948398D01*
X8345036Y-26920358D01*
X8405122Y-26844249D01*
X7978512Y-26844249D01*
X7897146Y-26828977D01*
X7833305Y-26783162D01*
X7791996Y-26709306D01*
X7778226Y-26609914D01*
X7778650Y-26607911D01*
X8126724Y-26607911D01*
X8180801Y-26655980D01*
X8405122Y-26655980D01*
X8358054Y-26566853D01*
X8244893Y-26527797D01*
X8158770Y-26548827D01*
X8126724Y-26607911D01*
X7778650Y-26607911D01*
X7808019Y-26469213D01*
X7897396Y-26335522D01*
X7988526Y-26263197D01*
X8103023Y-26219801D01*
X8240887Y-26205336D01*
X8392548Y-26221915D01*
G37*
G36*
X3767246Y-25693856D02*
G01*
X3881660Y-25763705D01*
X3977046Y-25870358D01*
X4048898Y-26004049D01*
X4101474Y-26154514D01*
X4139027Y-26311488D01*
X4161559Y-26470715D01*
X4169070Y-26627940D01*
X4161059Y-26786917D01*
X4137024Y-26947396D01*
X4097718Y-27104371D01*
X4043891Y-27252833D01*
X3971788Y-27383519D01*
X3877654Y-27487167D01*
X3765744Y-27554764D01*
X3640315Y-27577296D01*
X3590243Y-27574292D01*
X3548183Y-27559270D01*
X3513133Y-27517210D01*
X3502117Y-27439099D01*
X3513133Y-27357983D01*
X3547182Y-27315923D01*
X3587239Y-27301903D01*
X3638312Y-27298898D01*
X3720179Y-27249828D01*
X3789528Y-27102618D01*
X3824578Y-26962195D01*
X3845608Y-26802634D01*
X3852618Y-26623934D01*
X3848863Y-26492997D01*
X3837597Y-26372575D01*
X3820572Y-26267175D01*
X3799542Y-26181302D01*
X3748469Y-26051116D01*
X3692389Y-25973004D01*
X3640315Y-25948970D01*
X3630300Y-25948970D01*
X3582232Y-25945966D01*
X3544177Y-25931946D01*
X3512132Y-25890887D01*
X3502117Y-25810773D01*
X3524149Y-25715637D01*
X3571216Y-25676581D01*
X3638312Y-25670572D01*
X3767246Y-25693856D01*
G37*
G36*
X7621001Y-26241388D02*
G01*
X7675079Y-26286452D01*
X7693104Y-26339528D01*
X7696109Y-26405622D01*
X7696109Y-27493176D01*
X7695107Y-27547253D01*
X7685093Y-27592318D01*
X7658054Y-27633376D01*
X7604979Y-27658412D01*
X7517854Y-27669428D01*
X7413705Y-27655408D01*
X7357625Y-27612346D01*
X7338598Y-27557268D01*
X7337597Y-27491173D01*
X7337597Y-27168712D01*
X7249971Y-27207768D01*
X7195393Y-27214690D01*
X7147325Y-27220787D01*
X7030491Y-27204653D01*
X6923004Y-27156250D01*
X6824864Y-27075579D01*
X6746975Y-26972877D01*
X6700242Y-26858380D01*
X6685158Y-26736094D01*
X7049185Y-26736094D01*
X7093247Y-26837239D01*
X7195393Y-26880300D01*
X7295536Y-26837239D01*
X7337597Y-26736094D01*
X7295536Y-26633948D01*
X7193391Y-26591888D01*
X7091245Y-26633948D01*
X7049185Y-26736094D01*
X6685158Y-26736094D01*
X6684664Y-26732089D01*
X6700464Y-26607021D01*
X6747865Y-26490855D01*
X6826867Y-26383591D01*
X6925675Y-26297913D01*
X7032494Y-26246506D01*
X7147325Y-26229371D01*
X7251974Y-26244893D01*
X7345608Y-26291459D01*
X7411202Y-26243391D01*
X7519857Y-26227368D01*
X7621001Y-26241388D01*
G37*
G36*
X6397253Y-25903906D02*
G01*
X6452332Y-25945966D01*
X6471359Y-25998040D01*
X6474363Y-26065136D01*
X6474363Y-26239385D01*
X6516423Y-26239385D01*
X6612561Y-26282446D01*
X6644607Y-26411631D01*
X6617568Y-26543820D01*
X6524435Y-26587883D01*
X6474363Y-26587883D01*
X6474363Y-26842246D01*
X6463125Y-26967759D01*
X6429410Y-27069237D01*
X6373219Y-27146681D01*
X6293438Y-27201203D01*
X6188956Y-27233917D01*
X6059771Y-27244821D01*
X5994678Y-27241817D01*
X5939599Y-27222790D01*
X5892532Y-27167711D01*
X5877511Y-27064564D01*
X5889528Y-26972432D01*
X5929585Y-26923362D01*
X5983662Y-26904335D01*
X6057768Y-26900329D01*
X6100830Y-26884306D01*
X6111845Y-26824220D01*
X6111845Y-26591888D01*
X6007697Y-26593891D01*
X5939599Y-26588884D01*
X5884521Y-26567854D01*
X5840458Y-26512775D01*
X5825436Y-26413634D01*
X5836452Y-26324506D01*
X5862489Y-26269428D01*
X5905551Y-26241388D01*
X5952618Y-26230372D01*
X6005694Y-26229371D01*
X6111845Y-26233376D01*
X6111845Y-26073147D01*
X6115851Y-26006052D01*
X6135880Y-25949971D01*
X6190959Y-25904907D01*
X6292103Y-25890887D01*
X6397253Y-25903906D01*
G37*
G36*
X1480229Y-25676581D02*
G01*
X1527296Y-25715637D01*
X1549328Y-25810773D01*
X1539313Y-25890887D01*
X1507268Y-25931946D01*
X1469213Y-25945966D01*
X1421144Y-25948970D01*
X1411130Y-25948970D01*
X1359056Y-25973004D01*
X1302976Y-26051116D01*
X1251903Y-26181302D01*
X1230873Y-26267175D01*
X1213848Y-26372575D01*
X1202582Y-26492997D01*
X1198827Y-26623934D01*
X1205837Y-26802634D01*
X1226867Y-26962195D01*
X1261917Y-27102618D01*
X1331266Y-27249828D01*
X1413133Y-27298898D01*
X1464206Y-27301903D01*
X1504263Y-27315923D01*
X1538312Y-27357983D01*
X1549328Y-27439099D01*
X1538312Y-27517210D01*
X1503262Y-27559270D01*
X1461202Y-27574292D01*
X1411130Y-27577296D01*
X1285451Y-27554764D01*
X1172790Y-27487167D01*
X1077904Y-27383519D01*
X1005551Y-27252833D01*
X951724Y-27104371D01*
X912418Y-26947396D01*
X888383Y-26786917D01*
X880372Y-26627940D01*
X884878Y-26504514D01*
X898398Y-26378584D01*
X922182Y-26251152D01*
X957482Y-26123219D01*
X1003298Y-26002046D01*
X1058627Y-25894893D01*
X1126724Y-25804263D01*
X1210844Y-25732661D01*
X1307482Y-25686094D01*
X1413133Y-25670572D01*
X1480229Y-25676581D01*
G37*
G36*
X14281516Y-25858841D02*
G01*
X14337597Y-25903906D01*
X14356624Y-25957983D01*
X14359628Y-26025079D01*
X14359628Y-27058555D01*
X14355622Y-27128655D01*
X14336595Y-27183734D01*
X14282518Y-27228798D01*
X14179371Y-27242818D01*
X14073219Y-27228798D01*
X14017139Y-27183734D01*
X13998112Y-27129657D01*
X13995107Y-27062561D01*
X13995107Y-26491745D01*
X13762775Y-26808197D01*
X13696681Y-26869785D01*
X13606552Y-26890315D01*
X13551474Y-26884306D01*
X13509413Y-26866280D01*
X13483376Y-26846252D01*
X13464349Y-26824220D01*
X13452332Y-26808197D01*
X13217997Y-26489742D01*
X13217997Y-27058555D01*
X13214993Y-27127654D01*
X13195966Y-27182732D01*
X13139886Y-27228798D01*
X13035737Y-27242818D01*
X12930587Y-27228798D01*
X12875508Y-27184735D01*
X12855479Y-27130658D01*
X12851474Y-27062561D01*
X12851474Y-26029084D01*
X12855479Y-25958984D01*
X12874506Y-25903906D01*
X12929585Y-25858841D01*
X13033734Y-25844821D01*
X13139886Y-25856838D01*
X13199971Y-25902904D01*
X13606552Y-26425651D01*
X14015136Y-25900901D01*
X14028155Y-25886881D01*
X14043176Y-25871860D01*
X14060200Y-25861845D01*
X14086237Y-25852833D01*
X14122289Y-25847825D01*
X14175365Y-25844821D01*
X14281516Y-25858841D01*
G37*
G36*
X3088415Y-25840593D02*
G01*
X3213928Y-25894003D01*
X3319857Y-25983019D01*
X3399971Y-26094066D01*
X3448040Y-26213570D01*
X3464063Y-26341531D01*
X3461059Y-26410629D01*
X3442031Y-26465708D01*
X3385951Y-26511774D01*
X3281803Y-26525794D01*
X3175651Y-26512775D01*
X3119571Y-26470715D01*
X3100544Y-26419642D01*
X3097539Y-26355551D01*
X3058484Y-26230873D01*
X2941316Y-26189313D01*
X2840172Y-26216352D01*
X2796109Y-26268426D01*
X2789099Y-26321502D01*
X2806874Y-26398612D01*
X2860200Y-26473720D01*
X2936559Y-26541817D01*
X3023433Y-26597897D01*
X3120072Y-26654227D01*
X3225722Y-26723076D01*
X3322361Y-26796931D01*
X3391960Y-26868283D01*
X3446037Y-26960916D01*
X3464063Y-27062561D01*
X3409986Y-27193748D01*
X3281803Y-27248827D01*
X2558770Y-27248827D01*
X2489671Y-27244821D01*
X2432589Y-27224793D01*
X2386524Y-27169714D01*
X2372504Y-27066567D01*
X2386524Y-26960415D01*
X2431588Y-26904335D01*
X2485665Y-26884306D01*
X2554764Y-26880300D01*
X2805122Y-26880300D01*
X2684950Y-26809199D01*
X2562775Y-26704049D01*
X2504943Y-26632947D01*
X2459628Y-26547825D01*
X2430336Y-26452690D01*
X2420572Y-26351545D01*
X2437485Y-26212012D01*
X2488224Y-26087167D01*
X2572790Y-25977010D01*
X2681612Y-25891332D01*
X2805122Y-25839925D01*
X2943319Y-25822790D01*
X3088415Y-25840593D01*
G37*
%TD*%
M02*
