%TF.GenerationSoftware,KiCad,Pcbnew,9.0.4*%
%TF.CreationDate,2026-01-16T11:12:57-07:00*%
%TF.ProjectId,SparkFun_Capacitive_Soil_Moisture_Sensor,53706172-6b46-4756-9e5f-436170616369,v10*%
%TF.SameCoordinates,Original*%
%TF.FileFunction,Soldermask,Bot*%
%TF.FilePolarity,Negative*%
%FSLAX46Y46*%
G04 Gerber Fmt 4.6, Leading zero omitted, Abs format (unit mm)*
G04 Created by KiCad (PCBNEW 9.0.4) date 2026-01-16 11:12:57*
%MOMM*%
%LPD*%
G01*
G04 APERTURE LIST*
%TA.AperFunction,Profile*%
%ADD10C,0.100000*%
%TD*%
%ADD11C,0.150000*%
G04 APERTURE END LIST*
D10*
X15240000Y-66802000D02*
X7620000Y-76200000D01*
X0Y-66802000D01*
X0Y0D01*
X15240000Y0D01*
X15240000Y-66802000D01*
D11*
X976475Y-73951875D02*
X643142Y-73475684D01*
X405047Y-73951875D02*
X405047Y-72951875D01*
X405047Y-72951875D02*
X785999Y-72951875D01*
X785999Y-72951875D02*
X881237Y-72999494D01*
X881237Y-72999494D02*
X928856Y-73047113D01*
X928856Y-73047113D02*
X976475Y-73142351D01*
X976475Y-73142351D02*
X976475Y-73285208D01*
X976475Y-73285208D02*
X928856Y-73380446D01*
X928856Y-73380446D02*
X881237Y-73428065D01*
X881237Y-73428065D02*
X785999Y-73475684D01*
X785999Y-73475684D02*
X405047Y-73475684D01*
X1547904Y-73951875D02*
X1452666Y-73904256D01*
X1452666Y-73904256D02*
X1405047Y-73856636D01*
X1405047Y-73856636D02*
X1357428Y-73761398D01*
X1357428Y-73761398D02*
X1357428Y-73475684D01*
X1357428Y-73475684D02*
X1405047Y-73380446D01*
X1405047Y-73380446D02*
X1452666Y-73332827D01*
X1452666Y-73332827D02*
X1547904Y-73285208D01*
X1547904Y-73285208D02*
X1690761Y-73285208D01*
X1690761Y-73285208D02*
X1785999Y-73332827D01*
X1785999Y-73332827D02*
X1833618Y-73380446D01*
X1833618Y-73380446D02*
X1881237Y-73475684D01*
X1881237Y-73475684D02*
X1881237Y-73761398D01*
X1881237Y-73761398D02*
X1833618Y-73856636D01*
X1833618Y-73856636D02*
X1785999Y-73904256D01*
X1785999Y-73904256D02*
X1690761Y-73951875D01*
X1690761Y-73951875D02*
X1547904Y-73951875D01*
X2738380Y-73285208D02*
X2738380Y-73951875D01*
X2309809Y-73285208D02*
X2309809Y-73809017D01*
X2309809Y-73809017D02*
X2357428Y-73904256D01*
X2357428Y-73904256D02*
X2452666Y-73951875D01*
X2452666Y-73951875D02*
X2595523Y-73951875D01*
X2595523Y-73951875D02*
X2690761Y-73904256D01*
X2690761Y-73904256D02*
X2738380Y-73856636D01*
X3071714Y-73285208D02*
X3452666Y-73285208D01*
X3214571Y-72951875D02*
X3214571Y-73809017D01*
X3214571Y-73809017D02*
X3262190Y-73904256D01*
X3262190Y-73904256D02*
X3357428Y-73951875D01*
X3357428Y-73951875D02*
X3452666Y-73951875D01*
X4166952Y-73904256D02*
X4071714Y-73951875D01*
X4071714Y-73951875D02*
X3881238Y-73951875D01*
X3881238Y-73951875D02*
X3786000Y-73904256D01*
X3786000Y-73904256D02*
X3738381Y-73809017D01*
X3738381Y-73809017D02*
X3738381Y-73428065D01*
X3738381Y-73428065D02*
X3786000Y-73332827D01*
X3786000Y-73332827D02*
X3881238Y-73285208D01*
X3881238Y-73285208D02*
X4071714Y-73285208D01*
X4071714Y-73285208D02*
X4166952Y-73332827D01*
X4166952Y-73332827D02*
X4214571Y-73428065D01*
X4214571Y-73428065D02*
X4214571Y-73523303D01*
X4214571Y-73523303D02*
X3738381Y-73618541D01*
X1452666Y-74561819D02*
X1643142Y-74561819D01*
X1643142Y-74561819D02*
X1738380Y-74609438D01*
X1738380Y-74609438D02*
X1833618Y-74704676D01*
X1833618Y-74704676D02*
X1881237Y-74895152D01*
X1881237Y-74895152D02*
X1881237Y-75228485D01*
X1881237Y-75228485D02*
X1833618Y-75418961D01*
X1833618Y-75418961D02*
X1738380Y-75514200D01*
X1738380Y-75514200D02*
X1643142Y-75561819D01*
X1643142Y-75561819D02*
X1452666Y-75561819D01*
X1452666Y-75561819D02*
X1357428Y-75514200D01*
X1357428Y-75514200D02*
X1262190Y-75418961D01*
X1262190Y-75418961D02*
X1214571Y-75228485D01*
X1214571Y-75228485D02*
X1214571Y-74895152D01*
X1214571Y-74895152D02*
X1262190Y-74704676D01*
X1262190Y-74704676D02*
X1357428Y-74609438D01*
X1357428Y-74609438D02*
X1452666Y-74561819D01*
X2738380Y-74895152D02*
X2738380Y-75561819D01*
X2309809Y-74895152D02*
X2309809Y-75418961D01*
X2309809Y-75418961D02*
X2357428Y-75514200D01*
X2357428Y-75514200D02*
X2452666Y-75561819D01*
X2452666Y-75561819D02*
X2595523Y-75561819D01*
X2595523Y-75561819D02*
X2690761Y-75514200D01*
X2690761Y-75514200D02*
X2738380Y-75466580D01*
X3071714Y-74895152D02*
X3452666Y-74895152D01*
X3214571Y-74561819D02*
X3214571Y-75418961D01*
X3214571Y-75418961D02*
X3262190Y-75514200D01*
X3262190Y-75514200D02*
X3357428Y-75561819D01*
X3357428Y-75561819D02*
X3452666Y-75561819D01*
X11644475Y-73951875D02*
X11311142Y-73475684D01*
X11073047Y-73951875D02*
X11073047Y-72951875D01*
X11073047Y-72951875D02*
X11453999Y-72951875D01*
X11453999Y-72951875D02*
X11549237Y-72999494D01*
X11549237Y-72999494D02*
X11596856Y-73047113D01*
X11596856Y-73047113D02*
X11644475Y-73142351D01*
X11644475Y-73142351D02*
X11644475Y-73285208D01*
X11644475Y-73285208D02*
X11596856Y-73380446D01*
X11596856Y-73380446D02*
X11549237Y-73428065D01*
X11549237Y-73428065D02*
X11453999Y-73475684D01*
X11453999Y-73475684D02*
X11073047Y-73475684D01*
X12215904Y-73951875D02*
X12120666Y-73904256D01*
X12120666Y-73904256D02*
X12073047Y-73856636D01*
X12073047Y-73856636D02*
X12025428Y-73761398D01*
X12025428Y-73761398D02*
X12025428Y-73475684D01*
X12025428Y-73475684D02*
X12073047Y-73380446D01*
X12073047Y-73380446D02*
X12120666Y-73332827D01*
X12120666Y-73332827D02*
X12215904Y-73285208D01*
X12215904Y-73285208D02*
X12358761Y-73285208D01*
X12358761Y-73285208D02*
X12453999Y-73332827D01*
X12453999Y-73332827D02*
X12501618Y-73380446D01*
X12501618Y-73380446D02*
X12549237Y-73475684D01*
X12549237Y-73475684D02*
X12549237Y-73761398D01*
X12549237Y-73761398D02*
X12501618Y-73856636D01*
X12501618Y-73856636D02*
X12453999Y-73904256D01*
X12453999Y-73904256D02*
X12358761Y-73951875D01*
X12358761Y-73951875D02*
X12215904Y-73951875D01*
X13406380Y-73285208D02*
X13406380Y-73951875D01*
X12977809Y-73285208D02*
X12977809Y-73809017D01*
X12977809Y-73809017D02*
X13025428Y-73904256D01*
X13025428Y-73904256D02*
X13120666Y-73951875D01*
X13120666Y-73951875D02*
X13263523Y-73951875D01*
X13263523Y-73951875D02*
X13358761Y-73904256D01*
X13358761Y-73904256D02*
X13406380Y-73856636D01*
X13739714Y-73285208D02*
X14120666Y-73285208D01*
X13882571Y-72951875D02*
X13882571Y-73809017D01*
X13882571Y-73809017D02*
X13930190Y-73904256D01*
X13930190Y-73904256D02*
X14025428Y-73951875D01*
X14025428Y-73951875D02*
X14120666Y-73951875D01*
X14834952Y-73904256D02*
X14739714Y-73951875D01*
X14739714Y-73951875D02*
X14549238Y-73951875D01*
X14549238Y-73951875D02*
X14454000Y-73904256D01*
X14454000Y-73904256D02*
X14406381Y-73809017D01*
X14406381Y-73809017D02*
X14406381Y-73428065D01*
X14406381Y-73428065D02*
X14454000Y-73332827D01*
X14454000Y-73332827D02*
X14549238Y-73285208D01*
X14549238Y-73285208D02*
X14739714Y-73285208D01*
X14739714Y-73285208D02*
X14834952Y-73332827D01*
X14834952Y-73332827D02*
X14882571Y-73428065D01*
X14882571Y-73428065D02*
X14882571Y-73523303D01*
X14882571Y-73523303D02*
X14406381Y-73618541D01*
X12120666Y-74561819D02*
X12311142Y-74561819D01*
X12311142Y-74561819D02*
X12406380Y-74609438D01*
X12406380Y-74609438D02*
X12501618Y-74704676D01*
X12501618Y-74704676D02*
X12549237Y-74895152D01*
X12549237Y-74895152D02*
X12549237Y-75228485D01*
X12549237Y-75228485D02*
X12501618Y-75418961D01*
X12501618Y-75418961D02*
X12406380Y-75514200D01*
X12406380Y-75514200D02*
X12311142Y-75561819D01*
X12311142Y-75561819D02*
X12120666Y-75561819D01*
X12120666Y-75561819D02*
X12025428Y-75514200D01*
X12025428Y-75514200D02*
X11930190Y-75418961D01*
X11930190Y-75418961D02*
X11882571Y-75228485D01*
X11882571Y-75228485D02*
X11882571Y-74895152D01*
X11882571Y-74895152D02*
X11930190Y-74704676D01*
X11930190Y-74704676D02*
X12025428Y-74609438D01*
X12025428Y-74609438D02*
X12120666Y-74561819D01*
X13406380Y-74895152D02*
X13406380Y-75561819D01*
X12977809Y-74895152D02*
X12977809Y-75418961D01*
X12977809Y-75418961D02*
X13025428Y-75514200D01*
X13025428Y-75514200D02*
X13120666Y-75561819D01*
X13120666Y-75561819D02*
X13263523Y-75561819D01*
X13263523Y-75561819D02*
X13358761Y-75514200D01*
X13358761Y-75514200D02*
X13406380Y-75466580D01*
X13739714Y-74895152D02*
X14120666Y-74895152D01*
X13882571Y-74561819D02*
X13882571Y-75418961D01*
X13882571Y-75418961D02*
X13930190Y-75514200D01*
X13930190Y-75514200D02*
X14025428Y-75561819D01*
X14025428Y-75561819D02*
X14120666Y-75561819D01*
M02*
