M48
; DRILL file {KiCad 9.0.4} date 2026-01-16T11:12:57-0700
; FORMAT={-:-/ absolute / metric / decimal}
; #@! TF.CreationDate,2026-01-16T11:12:57-07:00
; #@! TF.GenerationSoftware,Kicad,Pcbnew,9.0.4
; #@! TF.FileFunction,MixedPlating,1,2
FMAT,2
METRIC
; #@! TA.AperFunction,Plated,PTH,ViaDrill
T1C0.300
; #@! TA.AperFunction,NonPlated,NPTH,ComponentDrill
T2C3.100
%
G90
G05
T1
X0.635Y-11.43
X0.635Y-14.605
X0.635Y-16.192
X3.492Y-6.35
X6.04Y-8.89
X6.35Y-2.222
X6.667Y-5.397
X7.62Y-2.222
X7.62Y-15.24
X8.255Y-5.397
X8.89Y-3.492
X9.525Y-17.462
X9.525Y-19.05
X9.842Y-6.096
X10.477Y-16.51
X11.112Y-8.255
X11.43Y-2.857
X11.43Y-5.397
X13.97Y-2.857
X13.97Y-5.397
T2
X2.54Y-22.225
X12.7Y-22.225
M30
